<?xml version="1.0" encoding="UTF-8"?>
<svg id="_레이어_1" xmlns="http://www.w3.org/2000/svg" version="1.1" xmlns:xlink="http://www.w3.org/1999/xlink" viewBox="0 0 784 1175.4">
  <!-- Generator: Adobe Illustrator 29.2.1, SVG Export Plug-In . SVG Version: 2.1.0 Build 116)  -->
  <defs>
    <style>
      .st0 {
        fill: #f59d61;
      }

      .st1 {
        fill: #80d8f0;
      }

      .st2 {
        fill: #ea7639;
      }

      .st3 {
        fill: #d8d5bb;
      }

      .st4 {
        fill: #7fd9f2;
      }

      .st5 {
        fill: #182647;
      }

      .st6 {
        fill: #f3e1c9;
      }

      .st7 {
        fill: #ff6700;
      }

      .st8 {
        fill: #dcd9be;
      }

      .st9 {
        fill: #fff;
      }

      .st10 {
        fill: #eba976;
      }

      .st11 {
        fill: #1f2945;
      }

      .st12 {
        fill: #09112e;
      }

      .st13 {
        fill: #101e3c;
      }

      .st14 {
        fill: #223354;
      }

      .st15 {
        fill: #8aa7a6;
      }

      .st16 {
        fill: #efb38f;
      }

      .st17 {
        fill: #f0f2f4;
      }

      .st18 {
        fill: #e76f36;
      }

      .st19 {
        fill: #fafbfb;
      }

      .st20 {
        fill: #f0e1d0;
      }

      .st21 {
        fill: #f1dfc7;
      }

      .st22 {
        fill: #ed7739;
      }

      .st23 {
        fill: #0f1d3c;
      }

      .st24 {
        fill: #f2e0c8;
      }

      .st25 {
        fill: #ec8d52;
      }

      .st26 {
        fill: #f69e61;
      }

      .st27 {
        fill: #253657;
      }

      .st28 {
        fill: #e98b52;
      }

      .st29 {
        fill: #8aa8a7;
      }

      .st30 {
        fill: #eceef1;
      }

      .st31 {
        fill: #e3a474;
      }

      .st32 {
        fill: #172547;
      }

      .st33 {
        fill: #e97036;
      }

      .st34 {
        fill: #142143;
      }

      .st35 {
        fill: #f3e3d2;
      }

      .st36 {
        fill: #fefefe;
      }

      .st37 {
        fill: #e56e36;
      }

      .st38 {
        fill: #132142;
      }

      .st39 {
        fill: #122042;
      }

      .st40 {
        fill: #fe6a05;
      }

      .st41 {
        fill: #e66f36;
      }

      .st42 {
        fill: #000927;
      }
    </style>
  </defs>
  <g>
    <path class="st26" d="M441.4,16.4c-3.3,3.9,6.3,7.8,6.2,1.7,0-3.1-4.7-3.5-6.2-1.7,1.6-1.1,1.5-1.7,4.2-1.6,9,.3,9.4,12.4-.9,12s-8.5-6-4.8-9.7,1.2-.6,1.5-.8h0Z"/>
    <path class="st25" d="M435.1,29.1c-.4,0-2.2.5-3.2,1.2l5.1-4.2,1.3,1.3c-1,1-1.7,1.4-3.2,1.8h0Z"/>
    <path class="st35" d="M441.6,16.5c1.5-1.7,6.2-1.4,6.2,1.7,0,6-9.5,2.1-6.2-1.7Z"/>
    <g>
      <path class="st29" d="M429.7,357c2.5,11.2,8.1,23.7,21.5,24,10.7.3,22.4-11.4,25.5-21,8.1,1.7,37.3,6.2,41.5,13,4.1,6.8-11.9,12.7-16.5,14s-2.9-.3-4,0c-1.9.5-4.2,1.8-5,2-42.2,8.8-129,10-170-2s-10.9-5.1-12.4-7.1-1.6-4.9-.6-7.9c1.6-1,5.9-4.6,7-5,5.3-2.1,18-4.2,24-5s4.7,0,7-1c10.7,26.6,44.2,27.6,49-4h33Z"/>
      <path class="st23" d="M426.8,47.4c3.3-.5,5-.7,5-.5s-.5.4-1.7.7c-.4,0-.9.2-1.4.2-1,0-1.9-.3-1.9-.3,0,0,1.5.5,3.3,0,.7-.2,1.3-.4,1.7-.6,8.5,1,16,4.6,19.1,12.9l72,7.5c6.6,1.9,12.9,9.8,14.7,16.3v124c-1.3,11.4-14.3,14.4-15.7,19.2-.9,3.2.8,16,.8,20.8s-1.6,20.2.5,23.4c1.5,2.3,4.5,4.2,6.3,6.7,9.5,13.4,18.8,46.1,7.2,59.8-11.5,13.5-30.4,10.6-38.7-4.6l-17.8,6c-1.2.8-2.6,17.9-3.6,21.1-3.1,9.6-14.7,21.3-25.5,21-13.4-.3-19.1-12.9-21.5-24-.4-1.9.3-4.8-1.1-6.9l-29.3-3.2-2.4,1.7c-.6,2.7.2,5.8-.1,8.4-4.8,31.6-38.3,30.6-49,4-.5-1.2-2.7-7.9-3-9-.5-1.7.5-8.5,0-9-9.1.9-21.6-3.6-26-12-.8-1.5-2.4-6.9-3-9-.4-1.5-.1-4.2-1-6l1-.5c-.1-1-2.1-.8-2,.5-.7,1.2-2.3.7-3,1-3.6,1.6-8.4,5-12,7-1.2.3-2.5.9-3,1-9,1.7-16.7,4-25.4-1.1-5.9-3.5-11.2-14.2-11.6-20.9-.4-5.7,3.6-12.9,6-18,8.4-2.5,18.2-10.4,26-15,3.3-2,6.7-4,10-6,3.9-2.3,11.4-4.9,14.6-7.9,2.5-2.4,1.8-13.4.5-16.6-1.3-.9-12.4-1.3-15.1-2.4-.3-.1-4.5-3.9-5-4.5-5.4-6.1-5.6-10.8-6-18.5v-2c-1.3-38,.3-76.8.8-114.7,2.4-5.5,6.3-8.8,11.6-11.4,24-12.2,53.9-18.4,78.1-30.9,1.7-.6,4.1-1.4,7-2.4,4.5-1.5,9.4-3.1,13.5-4.1s10.2-2,18-1.9c-.4,2.8-.8,5-1,6.4-.3,1.7-.5,2.5,0,3,.9.8,3.2-.2,4.5-1,3.2-2,4.2-5.7,4.6-7.6h0ZM410.7,54c-3.6,0-15.2,1.9-11,6.5s35.7,6.6,42-1.1c.7-3.1-8.9-6-11.4-5.5-.9,11-21,11.5-19.6,0h0ZM384.7,69c1.4-.5,5.6-5.3,4-7-2.7-.4-4.8.4-7.3,1.2-9,2.8-46.7,17.5-53.1,21.9s-1.7.9-1.6,1.8c4.9-.5,8.3,1.8,13,0,1.9,1.4,5.2,1.7,7.5,2,36.6,4.3,73.5,5.4,109.9,10.7,13.2-5.2,25.5-12.2,38-18.9s3.2-.4,2.6-2.8l9-3-7.5-2-46-5c-2.6,4.9,1.3,4.7,1.5,5,.4.7,0,5.7-.5,7-.8,1.8-5.3,4.7-7.3,5.7-14.2,7.4-46.8,8-58.7-3.7-4.4-4.3-1.1-4.6-1.4-9.5s-2.7-1.2-2.1-3.5h0ZM392.9,76.8c10,5.9,21.9,7.1,33.3,6.2s19.5-2.6,20.2-6.7c-1-2-.2-10.2-2.3-10.4-14.6,8.7-34.7,8.3-49.5,0l-1.8,10.8h0ZM522.7,130c1.9,1.1,3.8,3.5,5.5,5h1.5v-49.5c0-2.1-7.1-11.5-10.7-7.7l-51.1,26.4c-.7,1.1,2.4,9.8,4.9,8.9.5,39.1,2.8,79.7,1,119,0,.9-2.8,9.3.5,8,14.2-10,32.8-15.7,47.2-24.8,2.2-1.4,8.3-6.2,8.3-8.7v-18.5c-2.5,2-6.5,4.8-7,8-9.3,3.4-16.7,11.2-27,4.5-28-18.2-15.3-95.6,27-70.5h0ZM309.4,93.3c-6.6.3-11.1,4.6-11.7,11.1v115c1.7,9.1,8.9,10.1,16.6,11.3,30.1,4.8,62.4,6.7,92.9,10.1s31.3,5.5,46.1,6,11.8-5.5,12.5-13.5c3.1-35.8-2.4-75.8,0-112.1-1.6-17-20.3-14.1-32.5-15.5-30.3-3.3-60.7-7.2-91-10-9.3-.8-24.2-3-32.8-2.6v.2ZM500.7,135c-11.9,7.4-13,33.8-9.3,45.8,3,9.8,8.7,16,19.3,10.7-12.1-13.7-11.7-38.2-1-52.5s4-2.7,4-3.5c-4.4-3.4-8.3-3.4-13-.5ZM517,144.3c-9.5,8.4-11.5,34.5,2.1,40.7,10.7-4.4,11-36.8,4.1-42.1-2.3-1.8-4.3-.2-6.2,1.4h0ZM467.7,296v29c0,2.7-.2,5.2-.8,8.7s-.2,1.8,1.3,1.3c7.9-2.5,16-7.7,24.5-9,1.3-3.3-2.6-7.3-3-9s-.6-4.7-1-7c-1.1-5.7-2.2-14.2-2-20,.7-16,9.2-29.4,27-26v-35l-45.5,22-.5,45ZM329.7,247c-.4.8-.3,2.2-1,3s-2.3-.2-2.9,1.6c-.9,2.9-1.8,18.3,4.9,15.4,0,2.3-.9,4.2-1,6h-4c0,3.7-1.3,6.2,3,7-.6,2.1-.6,5.7-1,8h-3v20c0,6.6-.3,3.7,0,7,.7,8.9,1.1,14.3,10.7,17.8,32.9,1.1,67.1,8.2,99.8,9.2,15.3.5,23.2-1,24.5-18s0-5.4,0-8c.2-6.6,0-13.4,0-20v-41h-6.5l-2.5,3c-.2-1,0-1.9-1-2.5-1.2-.9-2.9-.2-4-.5-6-1.3-12.4-2.2-18.5-3-30.1-4.1-66.6-9.3-96.5-11s-2-1.4-3.4-.9c-3.1,1-2.3,8.3,2.4,6.9ZM316.7,265l-7.1,3.6,1,3,6,8.5v-15h.1ZM496.7,305c.6,3.6,1.2,5,2,8s.8,5.9,2,9,1.4,2.6,2,4l.5.9c.3,0,.4-.9.5-.9.6,0,1.6.2,2,0-2.7,7,5.2,11.2,11.5,11.1,13.1-.3,16.7-8.2,16.5-20.1s-.8-3.6-1-5c-.5-4.1-.9-6-2-10s-2.2-4.9-3-7c-1.8-4.7-2-8.3-5.2-13.3-12.4-19.7-27.8-7.5-27.9,11.8,0,3.6,1.5,8,2.1,11.5ZM315.5,304.8c2.6-4.4-5.9-26.7-9.8-30.3s-7.6,2.2-12,2.5c-.6.8,5.9,12.4,6.8,14.7,1.5,3.7,3.8,15.8,4.7,17.3,1.4,2.1,10-3.7,10.3-4.2ZM276.7,289c-.4.2-2.7-.3-4.6.9-5.9,3.7-5.7,16.8-2,22.1s8.8,6.6,15.5,6,8.7-2.5,12.8-4.2c2.1-3.4-7-29.4-10.8-31.4-2.7-1.4-7.5,2.6-9.9,4.1s-.9,2.3-1,2.4h0ZM354.7,352c.8,3.3.3,4.2,2,8,5.5,12.8,23.4,19.5,29.5,4s.2-3,.5-4c.9-3.3,1.8-3.6,2-8s0-4,0-6c-11.2.8-23.6-2.9-34.5-3-3.6,0,.1,7.5.5,9ZM469.7,352c.4-2,2.8-9.2-.5-9-6.5.3-13.9,6.7-20.2,7.8-3.7.6-7.5,0-11.3.2v3c0,2.7.3,4.5,1,7,4.4,15.9,19.7,14.8,27.2,1.7.8-1.4.4-2.9.8-3.7,1.2-2.7,2-2.5,3-7Z"/>
      <path class="st26" d="M287.7,213c.6.3,1.1,1.1,2,1,.4,7.7.6,12.4,6,18.5.5.6,4.7,4.4,5,4.5-.4,2.1.8,4.2,1,6-1.7,1.2-12.1,8.7-16.9,5.3-.3-.2-.5-.4-.8-.7-.5-.9-1.4-2.5-2.5-4.4-1.4-2.6-2.3-4.4-2.5-4.7-1.9-3.5-10.2-10.2-20.6-10.6-14.9-.6-23.9,12.2-24.4,13-.2,9.2-.4,18.4-.6,27.6,0,.7.2,1.3.4,1.9,3.2,8.9,20,9.9,22.7,10,1.8.2,3.4.3,4.8.4,2.7.2,3.1.2,3.7.1,1.1-.1,1.7-.4,1.9-.1.3.3,0,1.3-2.2,4.2-1.3,2.2-2.6,5.2-4,8.8-1.2,3.1-2.2,6.4-2,9.2-2.6-.2-5.5.3-8,0-7.8-1-13.5-5.8-19-7-6.9-5.9-14.3-13.6-18-22-4.6-10.3-4.6-21-3-32,.2-1.1,1.5-4.2,2-7,3.8-4.1,5.2-9,9-13.5,3.8-4.6,11.6-10.9,17-13.5,17.9-8.4,32.9-3.6,49,5Z"/>
      <path class="st29" d="M289.7,212v2c-.9,0-1.4-.7-2-1l2-1Z"/>
      <path class="st27" d="M309.4,93.3c8.6-.4,23.5,1.8,32.8,2.6,30.3,2.8,60.7,6.7,91,10,12.2,1.3,30.9-1.5,32.5,15.5-2.4,36.2,3.1,76.3,0,112.1-.7,8-3.4,13.8-12.5,13.5-14.8-.6-31.2-4.3-46.1-6-30.4-3.4-62.7-5.4-92.9-10.1-7.8-1.2-15-2.2-16.7-11.3v-115c.6-6.5,5.1-10.8,11.7-11.1l.2-.2ZM308.4,101.2c-2.9.8-3.5,3.6-3.8,6.2-3.3,34,2.6,73.5,0,108.1l3.5,6.5,145,15.9c3.6-.7,4.3-4.2,4.6-7.4,3-34-2.4-72.6,0-107.1,0-2.4-.7-4.8-2.5-6.5-4.6-4.1-29.5-4.2-37-5-30.3-3.2-60.7-7.4-91-10-4.4-.4-15.4-1.8-18.8-.8h0Z"/>
      <path class="st32" d="M472.7,113l50-25v42c-42.2-25.2-54.9,52.2-26.9,70.5,10.3,6.7,17.7-1,27-4.5-.6,3.5,1.4,8.3-1.5,11l-47.5,25c1.8-39.3-.5-79.9-1-119h-.1Z"/>
      <path class="st32" d="M445.7,255c.5,3.4-1.7,16.2,2.6,17,1.6.3,1.9-1.6,2.4-2s1.4.3,1.8-.1l.2-6.9h-2c0-1.5.2-3.6,0-5l2.5-3.1h6.5v41.1c-8-1.7-26.4,1.9-28.8-8.7s1.7-18.3-7.2-26.8-18-5.8-28.6-6.4-34.8-5.8-43.7,9.3c-8.9,15.1-1.8,11.2-3,18-1.9,10.8-13.7,6.9-20.8,6.7.4-2.3.4-5.9,1-8s2-.7,2.1-2.5-1.1-3.9-1.1-4.5c0-1.8,1-3.7,1-6,0-4.8,1.5-13.7-2-17,.7-.8.6-2.2,1-3,1-2,2.7-3.9,1-6,29.9,1.7,66.4,6.9,96.5,11s12.5,1.7,18.5,3h.1ZM450.5,277.1c-5.5-2.1-8.3,4.1-3.9,6.4s5.8-2.7,3.9-6.4Z"/>
      <path class="st27" d="M459.7,296c0,6.6.2,13.4,0,20-3.5-.2-7.1.3-10.5,0s-2.6-1-3-1h-18c-.3,0-4.7,3.4-5.5,4-1-13.7,1.3-29.1,0-42.5-.8-8.4-5.3-13.3-13.6-14.4-13.5-1.6-28.2-1.1-41.8-2.1-5.4,1.7-10,5.5-10.6,11.4l-1,43.5c-1.6-1.6-5.7-5.3-7.7-5.8l-23.3-1.2v-20h3c7.1.1,18.8,4.1,20.8-6.7s-1-11,3-18c8.9-15.1,29.1-10.1,43.7-9.3s19.9-1.9,28.6,6.4c8.7,8.3,5.1,17.4,7.2,26.8s20.8,7,28.8,8.7v.2Z"/>
      <path class="st5" d="M384.7,69c-.6,2.3,2,1.5,2.1,3.5.3,4.9-3,5.2,1.4,9.5,11.9,11.7,44.5,11.1,58.7,3.7s6.4-3.9,7.3-5.7,1-6.3.5-7l43,5c.5,2.4-1.2,2.1-2.6,2.8-12.5,6.7-24.8,13.6-38,18.9-36.4-5.3-73.3-6.4-109.9-10.7-2.3-.3-5.6-.6-7.5-2,13.3-4.9,26.5-12.4,40-17.5s4-.2,5-.5Z"/>
      <path class="st32" d="M467.7,296l.5-45,45.5-22v35c-17.8-3.4-26.3,10-27,26l-19,6Z"/>
      <path class="st14" d="M459.7,324c-1.3,17-9.2,18.4-24.5,18-32.7-1-66.8-8.1-99.8-9.2-9.6-3.5-10-8.9-10.7-17.8l22.3,2.2c1,.3,6.4,7.9,8.6,9.4,4.1,2.8,29.8,4.1,36.6,4.4s19.3,1.8,24.8.8,9.8-7.4,15.3-9.7l27.5,2h0Z"/>
      <path class="st22" d="M355.7,315c2,2,2.1,5.8,6.7,6.8l51.7,3.2c4.9-.7,5.9-3.9,8.6-6s5.2-4,5.5-4h18c.3,0,1.7.9,3,1,3.5.2,7.1-.2,10.5,0,0,2.6.2,5.4,0,8l-27.5-2c-5.5,2.4-9.2,8.6-15.3,9.7s-18.4-.4-24.8-.8-32.5-1.6-36.6-4.4c-2.2-1.5-7.6-9.1-8.6-9.4l-22.3-2.2c-.3-3.3,0-4.2,0-7l23.3,1.2c2,.4,6.2,4.2,7.7,5.8h0Z"/>
      <path class="st33" d="M472.7,113c-2.4,1-5.5-7.7-4.9-8.9l51.1-26.4c3.7-3.8,10.7,5.6,10.7,7.7v49.5h-1.5c-1.7-1.5-3.6-3.9-5.5-5v-42l-50,25h0Z"/>
      <path class="st14" d="M527.7,295c-11.1.4-20.8,6.4-31,10-.6-3.5-2.1-7.9-2.1-11.5,0-19.3,15.5-31.5,27.9-11.8,12.4,19.7,3.4,8.6,5.2,13.3Z"/>
      <path class="st6" d="M509.7,139c-10.7,14.3-11.1,38.8,1,52.5-10.6,5.3-16.2-.9-19.3-10.7-3.7-12-2.6-38.4,9.3-45.8l9,4Z"/>
      <path class="st32" d="M517,144.3c1.9-1.7,3.9-3.2,6.2-1.4,7,5.3,6.7,37.8-4.1,42.1-13.7-6.1-11.6-32.3-2.1-40.7h0Z"/>
      <path class="st14" d="M392.9,76.8l1.8-10.8c14.8,8.3,34.8,8.7,49.5,0,2.1,0,1.3,8.3,2.3,10.4-.7,4-16.4,6.4-20.2,6.7-11.5.8-23.3-.3-33.3-6.2h0Z"/>
      <path class="st33" d="M522.7,196c.5-3.2,4.5-6,7-8v18.5c0,2.4-6.2,7.3-8.3,8.7-14.4,9-33,14.8-47.2,24.8-3.3,1.3-.5-7.1-.5-8l47.5-25c2.8-2.8.9-7.5,1.5-11Z"/>
      <path class="st22" d="M276.7,289c.1,0,0-1.8,1-2.4,2.4-1.5,7.2-5.6,9.9-4.1,3.9,2,12.9,28,10.8,31.4-4.2,1.6-8.3,3.7-12.8,4.2-.6-9.8-3.6-20.7-9-29h.1Z"/>
      <path class="st35" d="M315.5,304.8c-.3.5-8.9,6.4-10.3,4.2s-3.3-13.5-4.7-17.3-7.4-13.9-6.8-14.7c4.4-.3,8.1-6.2,12-2.5s12.3,25.9,9.8,30.3Z"/>
      <path class="st26" d="M301.7,243c.6,7.1-.8,14-1,21-3.3,2-6.7,4-10,6h-4.3c-1.4-1.8-2.9-3.7-4.3-5.6,1.1-2.3,2.5-5.6,3.1-9.8.8-5.3.2-9.8-.5-12.5l17,1h0Z"/>
      <path class="st14" d="M486.7,290c-.2,5.8.9,14.3,2,20l-21,7v-21l19-6Z"/>
      <path class="st5" d="M533.7,317c.2,11.9-3.4,19.8-16.5,20.1-6.3.1-14.2-4.1-11.5-11.1.8-.3,1.8-1.6,3.3-2.2,7.8-3.2,16.2-6.4,24.7-6.8Z"/>
      <path class="st5" d="M276.7,289c5.4,8.3,8.4,19.2,9,29-6.7.6-11.5-.2-15.5-6s-3.9-18.4,2-22.1,4.2-.7,4.6-.9h-.1Z"/>
      <path class="st35" d="M530.7,302c1.1,4,1.5,5.9,2,10-11.3,1.2-21.3,6.8-32,10-1.2-3.1-1.3-6.2-2-9,10.5-4.1,20.4-10.7,32-11Z"/>
      <path class="st33" d="M339.7,87c-4.7,1.8-8.1-.5-13,0,0-.9,1-1.4,1.6-1.8,6.4-4.4,44.1-19.1,53.1-21.9,2.4-.8,4.6-1.6,7.3-1.2,1.6,1.7-2.6,6.5-4,7s-3.1-.2-5,.5c-13.5,5.1-26.7,12.6-40,17.5h0Z"/>
      <path class="st14" d="M354.7,352c-.4-1.5-4.1-9.1-.5-9,10.9.2,23.3,3.8,34.5,3v6c-11.4.6-22.7,2.9-34,0Z"/>
      <path class="st14" d="M386.7,360c-.3,1,.1,2.5-.5,4-6.2,15.5-24,8.9-29.5-4,10.2,1.7,19.8.5,30,0Z"/>
      <path class="st22" d="M527.7,295c.8,2.1,1.9,3.2,3,7-11.6.3-21.5,6.9-32,11-.8-3-1.4-4.4-2-8,10.2-3.6,19.9-9.6,31-10Z"/>
      <path class="st33" d="M410.7,54c-1.4,11.4,18.7,10.9,19.6,0,2.5-.6,12,2.4,11.4,5.5-6.3,7.7-36.4,7.1-42,1.1s7.4-6.6,11-6.5h0Z"/>
      <path class="st14" d="M466.7,359c-.3.7,0,2.3-.8,3.7-7.6,13.2-22.9,14.3-27.2-1.7,9.4.2,18.8-.4,28-2Z"/>
      <path class="st33" d="M388.7,352c-.2,4.4-1.1,4.7-2,8-10.2.5-19.8,1.7-30,0-1.7-3.8-1.2-4.7-2-8,11.3,2.9,22.6.6,34,0Z"/>
      <path class="st33" d="M454.7,73c-.2-.3-4.1,0-1.5-5l46,5,7.5,2-9,3-43-5Z"/>
      <path class="st14" d="M489.7,317c.4,1.7,4.3,5.7,3,9-8.5,1.4-16.6,6.5-24.5,9s-1.6,0-1.3-1.3c.7-3.4.8-5.2.8-8.7l22-8Z"/>
      <path class="st33" d="M469.7,352c-1,4.5-1.8,4.3-3,7-9.2,1.6-18.6,2.2-28,2-.7-2.5-1-4.3-1-7l32-2Z"/>
      <path class="st33" d="M488.7,310c.4,2.3.6,5.3,1,7l-22,8v-8l21-7Z"/>
      <path class="st5" d="M437.7,354v-3c3.7-.2,7.6.4,11.3-.2,6.4-1.1,13.8-7.5,20.2-7.8,3.3-.2.9,7,.5,9l-32,2Z"/>
      <path class="st22" d="M532.7,312c.2,1.4.9,2.3,1,5-8.5.4-16.9,3.7-24.7,6.8s-2.5,1.8-3.3,2.2-1.4,0-2,0h-1c-.6-1.4-1.5-2.6-2-4,10.7-3.2,20.7-8.8,32-10Z"/>
      <path class="st26" d="M282,264.3c1.4,1.9,2.9,3.8,4.3,5.7h4.3c-7.8,4.5-17.6,12.5-26,14.9h-1c0-.8,0-1.3.3-1.7.8-1.2,2.2-1.7,2.6-1.8,3.2-1,6.6-5.2,10.8-10.6,1.3-1.6,2.9-3.8,4.5-6.5h.2Z"/>
      <path class="st33" d="M328.7,250c3.5,3.3,2.1,12.2,2,17-6.7,2.9-5.8-12.5-4.9-15.4s2.7-1.4,2.9-1.6Z"/>
      <path class="st33" d="M450.7,258c.2,1.4,0,3.4,0,5v7c-.5.4-.8,2.3-2.4,2-4.2-.8-2.1-13.6-2.6-17,1.1.2,2.8-.4,4,.5,1,.6.8,1.6,1,2.5Z"/>
      <polygon class="st33" points="316.7 265 316.7 280 310.7 271.5 309.6 268.5 316.7 265"/>
      <path class="st8" d="M509.7,139l-9-4c4.7-2.9,8.6-2.9,13,.5,0,.8-3.5,2.8-4,3.5Z"/>
      <path class="st22" d="M330.7,241c1.7,2.1,0,4-1,6-4.6,1.4-5.4-6-2.4-6.9s2.7.9,3.4.9Z"/>
      <path class="st22" d="M329.7,273c0,.6,1.2,2.6,1.1,4.5s-2,2.1-2.1,2.5c-4.3-.8-3-3.3-3-7h4Z"/>
      <path class="st5" d="M502.7,326h1s-.2.9-.5.9l-.5-.9Z"/>
      <path class="st6" d="M308.4,101.2c3.4-1,14.4.4,18.8.8,30.3,2.5,60.7,6.8,91,10,7.5.8,32.4.9,37,5,1.9,1.6,2.6,4,2.5,6.5-2.4,34.5,3,73,0,107.1-.3,3.2-.9,6.7-4.6,7.4l-145-15.9c-.5-.2-1-.4-1.3-.6-2.5-1.7-2.2-5.5-2.2-5.9-.4-9.4-1.5-93.2,0-108.1.3-2.6.8-5.4,3.8-6.2h0ZM344.3,185.6c11-11,9.8-37.9-5.2-44.5-18-7.9-28.1,12.8-26.3,28.3,1.8,15.3,18.1,29.7,31.5,16.3h0ZM418.4,142.2c-11.9,2-16.7,18.8-15.7,29.2,1.4,14.2,14.6,28.7,28.9,18.9,18.7-12.8,11.4-52.3-13.2-48.2h0ZM361.4,176.2c-8.6,2.6-2,32.1,12.8,33.8s24.8-13.9,22.5-28.5-9.8-3.6-14.7-2.8c-8,1.3-15.2-4.2-20.6-2.6h0Z"/>
      <path class="st22" d="M450.5,277.1c1.9,3.7,1,8.9-3.9,6.4s-1.6-8.5,3.9-6.4Z"/>
      <path class="st23" d="M450.7,263h2l-.2,6.9c-.4.5-1.6,0-1.8.1v-7Z"/>
      <path class="st5" d="M422.7,319c-2.7,2.1-3.6,5.3-8.6,6l-51.7-3.2c-4.6-1-4.7-4.8-6.7-6.8l1-43.5c.6-5.9,5.2-9.8,10.6-11.4,13.6.9,28.4.4,41.8,2.1,8.4,1,12.9,6,13.6,14.4,1.3,13.5-1,28.9,0,42.5h0ZM369,274.3c-4.3,4.4-4.1,21-3.4,27.2s5.3,9.8,9.6,10.4,17.7,1.7,23,1.1,9.9-6.4,10.5-12.5,1.1-22.1-2.9-26-23.5-5.2-29.1-4-6.2,2.5-7.6,3.9h-.1Z"/>
      <path class="st25" d="M423.5,48c-.4,1.3-1.9,7.6-2.3,8s-2,.6-2.3.4.1-1,0-1.2c1-2.3,1.3-4.8,2.1-7.2h1.5l1.7-2.8c-.3.8-.3,2-.5,2.8h-.2Z"/>
      <path class="st23" d="M437.9,14.5c9.8-7.2,23.4,3.1,15.4,12.2-.4.5-3.5,2.8-4,2.9-.5.2-3.9.4-4.6.4-1.5,0-2.9-.7-4.4-1.1-.7.1-3.2,3.1-3.8,3.8-.6.7-.9,1.4-1.3,1.9s-.8.9-1.3,1.5c-1.3,1.7-2.4,3.2-3.5,5-.5.8-.9,1.4-1.3,2.3-1.5,2.8-2.8,5.4-3.5,8.5-.2,1.1-.4,2.3-.6,3.4-.2.9-.3,1.8-.5,2.8-.6,1.1-1.8,1.6-2.6,1.3-.6-.2-.9-.7-1-.9.4-3,1.1-6.6,2.4-10.4,3.1-8.7,8.1-15,11.9-18.9,1.2-.4,1.8-.8,2.6-1.8l-1.1-1.3-4.2,4.2c-5,3.7-10.3,14.9-11.9,20.5-.7,2.3-.9,4.7-1.8,6.9-.1-.2-2.5-.8-2.6-2.7,0-1,1.2-4.5,1.5-5.8,1.9-6.2,5.4-12.4,9.5-17.8.5-.6,1-1.5,1.3-1.9.5-.5,1.7-2.2,1.8-2.3.2-.2,1.5-1,2.2-1.5.7-.6,2.8-1.5,3-2.2.1-.5-.4-2.4-.3-3.7.3-2,1.6-3.5,2.5-5.3h.2ZM441.4,16.4c-.3.2-.8,0-1.5.8-3.7,3.7-.9,9.5,4.8,9.7,10.2.4,9.9-11.6.9-12-2.7-.1-2.6.5-4.2,1.6h0Z"/>
      <path class="st10" d="M436.2,28.2c-4.6,5.7-9.8,11.2-12.1,17.7l-1.4,2.5h-1.3c1.6-5,6.8-15.4,12-19,.9-.6,2.5-1.1,2.8-1.2Z"/>
      <path class="st39" d="M418.4,142.2c24.6-4.1,31.9,35.4,13.2,48.2-14.3,9.8-27.5-4.8-28.9-18.9-1-10.4,3.8-27.2,15.7-29.2h0ZM412.4,152.1c-8.8,1.6-7.1,17,3.5,14.6s5.1-16.2-3.5-14.6ZM427.4,172.1c-4.9,1.4-4.6,10.8,2.6,8.7s3.1-10.3-2.6-8.7Z"/>
      <path class="st39" d="M344.3,185.6c-13.5,13.4-29.8-1-31.5-16.3-1.8-15.5,8.3-36.2,26.3-28.3,15.1,6.6,16.2,33.6,5.2,44.5h0ZM324.4,149.2c-10.4.5-10,18.2,1.6,15.5,8.2-1.8,5.8-15.9-1.6-15.5ZM337.4,169.1c-3.5,1-4.3,8.1-.2,8.9,9.3,1.8,6.7-10.7.2-8.9Z"/>
      <path class="st39" d="M361.4,176.2c5.4-1.7,12.6,3.9,20.6,2.6s13.2-6.7,14.7,2.8c2.3,14.6-6,30.4-22.5,28.5s-21.4-31.2-12.8-33.8h0ZM390.6,192.1c-5.3-2.4-14-1.9-18.4,1.9-9,7.6,1.6,13.1,9.6,10.6s11-9.4,8.9-12.5h-.1Z"/>
      <path class="st23" d="M369,274.3c1.4-1.4,5.6-3.5,7.6-3.9,5.6-1.2,25.1.1,29.1,4s3.5,20.2,2.9,26-4,11.8-10.5,12.5-17.6-.2-23-1.1-9.1-6.2-9.6-10.4c-.7-6.2-1-22.7,3.4-27.2h.1ZM376.4,276.2c-2.2.6-4.3,4.2-4.7,6.3-.6,3.7-.7,18.9,1.5,21.4,2.3,2.7,19.9,3.6,23.9,3,4.6-.7,5.2-3.3,5.6-7.4s.6-18-1.6-20.5-21-3.9-24.8-2.8h.1Z"/>
      <path class="st17" d="M412.4,152.1c8.6-1.6,12.2,12.7,3.5,14.6s-12.3-13.1-3.5-14.6Z"/>
      <path class="st17" d="M427.4,172.1c5.7-1.6,7.4,7.2,2.6,8.7-7.2,2.2-7.5-7.3-2.6-8.7Z"/>
      <path class="st17" d="M324.4,149.2c7.4-.3,9.8,13.7,1.6,15.5-11.6,2.6-12-15.1-1.6-15.5Z"/>
      <path class="st17" d="M337.4,169.1c6.5-1.8,9.1,10.6-.2,8.9s-3.3-7.9.2-8.9Z"/>
      <path class="st10" d="M390.6,192.1c2.2,3.1-6,11.6-8.9,12.5-8,2.5-18.6-3-9.6-10.6s13.2-4.3,18.4-1.9h.1Z"/>
      <path class="st25" d="M376.4,276.2c3.8-1.1,22.3,0,24.8,2.8s1.9,16.6,1.6,20.5-1,6.7-5.6,7.4c-4,.6-21.6-.3-23.9-3-2.1-2.5-2.1-17.7-1.5-21.4s2.5-5.7,4.7-6.3h-.1ZM377.7,300c5.9-1.3,13.1,3.4,18-.5v-15c-2.2-2.2-18-4.1-18,0v15.5Z"/>
      <path class="st27" d="M377.7,300v-15.5c0-4.1,15.8-2.2,18,0v15c-4.9,3.9-12.1-.8-18,.5Z"/>
      <g>
        <path class="st39" d="M243.9,225.9c3.9-.5,21.2.1,25,.9,5.9,1.2,10.5,13.3,13.8,18.5s.9,3.2,3.4,3.1c.3,1.4,1.5,7.5,1.3,8.1l-16.9,24.5-31.4-.4c-1.9-5.8-15.7-23-15.2-27.8s15.6-24.9,17.4-26,1.5-.7,2.6-.8h0ZM232.1,253.7c.3,1.7,8.8,14.8,10,15,13.2-9.3,11.4-20.9,1-31.9-2.8,3-11.5,13.4-11,16.8h0ZM277.8,258.1l-17.5-.6-12.1,17.6,17.5.6,12.1-17.6ZM250.7,233.1c1.4,6,5.8,12.6,9.9,17.4l16.5.6-9.9-17.4-16.5-.6h0Z"/>
        <path class="st17" d="M231.7,253.9c-.6-3.4,8.1-13.9,11-16.8,10.4,11,12.2,22.6-1,31.9-1.2-.3-9.7-13.3-10-15h0Z"/>
        <polyline class="st9" points="270.8 246.7 265.6 236.4 263.1 236.4 266.8 243.8 261.5 243.8 257.7 236.4 255.1 236.4 260.5 246.7 270.8 246.7"/>
        <path class="st9" d="M242,258.5l-2.5-5,3.7-7.3c0-.1,0-.4-.1-.5-.3-.8-.8-1.5-1.2-2.1l-5.2,10.2,5.2,10.1,5.3-10.1c0-.2,0-.4-.1-.6-.3-.8-.8-1.4-1.1-2.1l-3.8,7.3h-.2Z"/>
        <path class="st9" d="M270.8,261.8h-10.6l-5.2,10.1h10.6l1.3-2.5h-7.5c.1-.3.5-1.2.7-1.3h7.4l1.3-2.5h-7.5c0-.3.5-1.2.7-1.3h7.4l1.3-2.5"/>
        <path class="st42" d="M270.9,261.8l-1.3,2.5h-7.4c-.2,0-.6,1-.7,1.3h7.5l-1.3,2.5h-7.4c-.2,0-.6,1-.7,1.3h7.5l-1.3,2.5h-10.6l5.2-10.1h10.6"/>
        <path class="st42" d="M241.8,258l3.8-7.3c.3.7.8,1.4,1.1,2.1s.2.4.1.6l-5.3,10.1-5.2-10.1,5.2-10.2c.4.7.8,1.4,1.2,2.1s.2.4.1.5l-3.7,7.3,2.5,5h.2Z"/>
        <polyline class="st7" points="270.8 246.7 260.5 246.7 255.1 236.4 257.7 236.4 261.5 243.8 266.8 243.8 263.1 236.4 265.6 236.4 270.8 246.7"/>
      </g>
      <path class="st6" d="M167.2,308.5"/>
    </g>
  </g>
  <g>
    <path class="st13" d="M521.7,436.3c11.3,1.5,20.2,14.1,12.3,24.4-4,5.2-9.8,7.8-16.4,7.6-2.4,0-6.5-2.2-7.9-2.1s-5.7,4.9-6.8,6.2c-3.1,3.7-7,8.8-9.8,12.8-3,4.3-5.7,8.8-7.8,13.7,7.6-1.8,15.8-.2,23,2.6,9.8,3.8,16.2,10.3,20.2,19.9,25.3,2.1,50.5,5.2,75.7,7.7,17.3,1.7,35,2.2,52.1,4.8s27.9,18.3,29.2,29.5c1.7,15.6-1.7,33.8.5,49.6v170.3c-1.5,16.2-14.7,20.7-25,29.7s-3.7,3.3-4.2,5.4c-1.7,8.1,1.2,22.1,1.6,30.8.6,13.6-2.8,31.1-.3,43.8,1.2,6.1,8.2,9.7,12.1,14.4,16.4,19.7,27.6,65.2,22.1,89.9-5.6,25.4-32.7,40.2-57.4,29.3-9.2-4.1-16.3-10.8-21.2-19.4l-31.9,10.4c-1,.7-1.6,4.5-1.9,5.9-2,9.9-1.8,22.2-4.5,31.6s-20.2,29-32.1,34.1c-29,12.5-49.8-14.2-53.8-39.7-.4-2.6.1-10.8-2.1-12l-52.1-5.7c-1.4-.1-4.9,2.3-5.3,3.5-.9,2.8,0,10.7-.2,14.3-.9,12-8.8,27.6-18.7,34.8-26.6,19.5-60.1-.7-70.7-27.5s-5.1-16.1-5.2-18.8.8-7.7.9-11.1,0-1.3-.2-2c-.5-.7-4,0-5.3,0-16.8-.5-36.9-8.1-43.6-24.4s-4.1-12.6-4.9-19.4-1.9-4.8.5-5c.1-1.6-1.8-1.5-2.8-.9s-.5,1.6-1,2.2c-.9,1.2-2.9.7-4.2,1.1-9.7,2.9-17.1,10.9-26.8,13.7-15.3,4.4-35,6.9-48.8-2.7-9.8-6.9-19.2-24.4-19.5-36.2s6.2-21.8,10.7-31.5c14.9-4.8,26.9-14.8,40-22.8s17.4-10.7,25.6-15.2,21.5-8.5,26.3-14.1,3.2-22,1.3-27.5-.4-1.6-1.4-2.1l-26.2-3.8c-.2-.8-7.8-7-9.2-8.4-9.3-9.9-10.2-19.6-11-32.5s0-2.3,0-3.4c-.3-6.3-.6-12.6-.4-19,5.6.8,10-1.2,14.5-4.3.7.4.4,1.6.4,2.4.1,10.6-.9,23,0,33.2,1.4,15.7,16.6,18.6,29.7,20.8,58.3,9.9,118.7,11.3,177.4,19.1,18.9,2.5,37.7,6.5,56.7,8.5,24.5,2.6,38.3,5.1,41.4-23.4,1.9-17.7,1.7-36.1,1.3-53.9-.1-5,.1-9.9,0-14.9,5.7-6,4.7-21-.9-26.7-.4-5.2-.2-10.5-.4-15.8-.8-21.9-1.8-43.9-1.4-66,.2-8.9,2.5-20.6-.3-29-7-21-38.1-18-56-19.5-38.8-3.1-78.2-9.2-117-13.4-26.5-2.8-53.2-5.8-79.8-8.2-19.3-1.7-48.6-7.2-50.6,19.6v105.4c-5.3,0-10.9,1.7-15.3,4.3l2.2-123.1c4.6-13.8,17.8-19.4,30.1-25.1,38.3-17.8,80.1-27.3,118.8-44,14-6,25.2-11,40.1-15.3,14.3-4.1,28.6-7,43.7-6.4,4-10.4,10.5-20.9,17.4-29.7s6.3-5.7,11.6-9.8.6-5.8,1.5-9.7,3.5-6.5,4.3-7.4c2.2-2.5,6.6-3.3,9.6-4.6,2.3.2,5.2-.3,7.5,0ZM514.2,442.4c-1.2.6-2.4,1.4-3.5,2.2s-1.1.2-1.7.7c-4.7,3.3-4.3,10-.5,13.8,7.2,7,23.2,3.3,22.4-7.7s-10.5-11.9-16.7-8.8ZM498.5,465.6c-9.7,4.1-20.6,25.8-23.7,35.4-1.5,4.6-3.1,9.3-3.5,14.2.8,0,2.1,0,2.8-.4s3.4-13.3,4.2-15.6c5.3-14.5,14.2-21.5,22.8-33.2,1.4-.4,2.7-1.1,3.4-2.4l-1.5-2.3-4.6,4.3ZM455.5,510.5c-5.3.7-10.9,1-15.9,3.1-10.4,4.3-5.2,9.8,2.5,12.8,14.1,5.5,54.4,6,66.8-3.3s3.9-4.3,0-7.3-14-6.3-17.7-5.4c-1.4,5.2-3,8.8-7.8,11.8-10.9,6.9-29.4,3.7-28-11.8ZM408.2,537.6c.8-.2,4.8-4.3,5.4-5.2,1-1.3,4.1-6.3,1.7-7.2-4.4-1.6-12.8,2.3-17.2,3.6-16.7,5.2-33.3,11.5-49.5,18.1s-27.8,10.9-39.3,17.4-7.5,4.1-6.3,5.2c8,.1,16.1,1.8,24.1.4,9.2,3.1,19.1,3.7,28.7,4.7,61,6.6,122.5,8.3,183.2,17.3,24.4-8.3,46.2-22.2,69.2-33.3,2.8-1.4,6-.8,5.1-5.1l16.2-5.2c0-.7-1.6-.9-2.2-1.1-4.2-1.3-8.7-2.1-13-3.2l-81-8.7c-1.8-.2-2.9,4.1-2.7,5.3.2,2.1,2.6,3.8,4.7,3.8,0,6.6.8,11.6-4.6,16.4-17.7,15.6-56.8,17.4-79.2,14.2s-30-6.2-38.2-15.9c-6-7.1,0-8.9-1.1-15.7s-4.6-2.4-3.9-5.8ZM426.2,532l-2.9,19.4c22.1,12.8,51,13.9,75.7,8.9s15.5-3.4,19.6-7c3.1-2.7,1.2-4.3.9-7.8s0-12.8-2.5-13.5c-4.3,1.4-8.1,3.8-12.3,5.5-21.7,8.3-46.9,7.5-68.5-1s-6.6-3.2-10.1-4.5ZM568.1,615.7l.5,25.6c1,55.3,3.3,110.6,1.7,166-.2,6.2.2,13.5-.4,19.6-.2,1.9-1.3,4.4-1.6,6.4s-2.1,9.5,2.5,8.1c25.4-18.7,58.3-26.2,84.4-43.3,3-2,16-11.7,16-14.9v-33.8c-1.6.5-3.3,2-4.6,3-2.8,2.4-8,7.5-8.6,11.2-5.9,1.6-10.8,5.3-16.4,7.8-15.7,7.1-28.4,5.6-40.4-7-25.7-27-24.5-93.7,4.4-118.1,15.4-13,36.5-10.9,52.8-.4s7.4,7.4,9.6,8.4,2.1.2,3.1.2v-88.6c0-.5-3.3-5.6-4-6.5-2.8-3.6-9.1-9.7-14.1-7.5-3.2,1.4-7.4,4.4-10.8,6.2-8.6,4.4-17.6,8.3-26.2,12.6-18.9,9.5-37.5,19.6-56.5,28.9-1.9,2,1,8.2,2.2,10.4s3.3,5.9,6.4,5.6ZM618.5,654.9c-20,12.6-22.5,50.7-19.1,71.7,3.1,19.3,14.2,41.1,37.5,28.6-7.7-8.9-13.2-20.5-15.2-32-3.2-18.2.4-46.4,13-60.9s7-4.9,7.4-5.9c.6-1.4-2.7-3.2-4-3.7-7.2-2.8-13.4-1.6-19.6,2.3ZM649.4,670.2c-14.6,12.6-18.3,41.4-11.3,58.5,2.5,6.1,7.9,12,13.9,15,2.6-.9,4.9-3,6.6-5.1,10.7-13.3,11.4-43.9,6.7-59.6-2.3-7.6-7.4-16.2-15.9-8.8ZM593.1,930.4c.6-14.4,4.7-29.1,16-38.8,9.2-7.9,21.3-9.7,33.1-7.3v-62.1l-82.3,38.4c-.7,26.6-.8,53.4-.9,80.1,0,12.5.1,25,0,37.5,0,4.7,0,9.5,0,14.2,0,6.2-1.2,12-1.8,18.1,2.5.1,4.9-.9,7.2-1.7,11.1-3.8,21.2-9.8,32.6-13.2s6.5-1.3,6.9-1.6c2.7-2.2-2.2-10.3-3.5-12.5s-2-2.3-2.1-2.9c-.9-3.3-.7-8.8-1.3-12.5-2-12.1-4.4-23.4-3.9-35.8ZM308.3,854.5c-.5,1.1-.5,3.2-1.3,4.3-2.4.5-4.4.5-5.5,3-1.9,4.4-1.4,17.6,0,22.3s4.2,7.5,8.9,5.7c-.3,2.9-2,7.5-1.8,9.9h-7.5c-.3,5.8-2.2,11.2,5.3,12.9l-1.3,14.2c-1.9,0-3.8-1.1-5.7.3,0,11.7,0,23.4,0,35.1s-.4,8.1,0,12.9c.8,10.2,1.3,20.6,10.6,26.9s16.3,4.3,26.5,5c54,3.9,107.5,14.2,161.7,15.5,28.6.7,43.4-.3,45.8-31.9s0-9.5,0-14.2c.1-11.9,0-23.9,0-35.8s.5-4,.5-5.8c0-22.4-.7-44.7-.5-67.1h-11.6l-4.6,5.2c-1-6.9-3.3-4.5-8.8-5.2-19.9-2.5-39.9-6.4-59.9-9-40.4-5.2-81.1-10.2-121.8-13.9-8.6-.8-18.2-.6-26.5-1.7-3.1-.4-5.6-4.3-8.8-.2s-.2,12.5,6.1,11.4ZM285,886l-12.7,6.3c0,.3,1.7,5.3,1.9,5.6s.9.5,1.3,1.1c2.7,4.6,5.7,9.5,9.5,13.3v-26.3ZM611.5,956.7c2.2,9.8,3.8,21,7.5,30.2s1.6,4.4,3.5,7.3.8,2.5,1.8,0c1.1,0,2,.3,3.1.4-.4.9-.5,4.7-.5,5.8.6,7.7,10.7,12.9,17.8,13.6,24.1,2.2,35.2-12.9,34-35.3-.2-3.4-1.2-5.8-1.8-9.1-1.6-9-2.7-16.8-6.5-25.3s-2.5-3.9-3.1-5.3c-1.5-3.6-2.3-8.6-3.7-12.5-3.4-9.2-13.9-26.2-24.3-28.3-23-4.7-32.8,22.6-31.6,40.6.4,6.1,2.6,12,4,17.9ZM243,907.1c-1,1.1,11.8,24.1,13.1,27.5,2.7,7.2,3.9,15.3,5.9,22.6s1.7,6.6,2.3,7.2c1.7,2,8.2-1,10.1-2.1s7.3-4.4,8-5.5c2.6-3.3.5-12-.5-15.9-2.1-8.4-10.7-35-17.8-39.4s-13.8,5.3-21.2,5.5ZM212.7,928.7c-9.1-1-14.2,5.9-16,13.8s-.8,21,5.1,28.7c7.1,9.2,15.6,10,26.7,9.3s16.5-4.6,23.9-7.8c.8-6.2-1-12.6-2.6-18.5-2.7-9.7-7.7-23.5-13-32-5.1-8.3-8.5-6.7-16.1-2.2-2.8,1.7-8.7,5-7.9,8.8ZM353.8,1040.8c1.5,5.8,1.4,8.4,3.9,14.2,8.6,19.5,38.2,34.6,51.3,10.6,2.7-5,1.8-5.7,2.6-10.6s3.6-8.2,3.9-14.7c.2-3.6-.2-7.2,0-10.8-16,1.6-32.2-2.6-48-4.3-2.9-.3-6.3-.8-9.2-.9-8.7-.4-9.8,0-7.4,8.6s2.2,5.1,2.8,7.8ZM562.4,1040.8c.9-3.3,3.7-12.8,1.5-15.5s-7.3-.3-9.6.4c-7.9,2.4-23.7,12.9-30.7,12.9h-19.1c-.8,2,0,3.6,0,5.6.1,5.2.3,7.5,1.8,12.5,6.9,23.6,28.4,27.6,44.7,9.3,1.2-1.3,4-4.8,4.6-6.2,1.2-2.6.6-4.4,1.1-6.5s3-4.6,3.7-6c1.1-2.3,1.3-4.2,2-6.5Z"/>
    <path class="st15" d="M489.7,1049.4c3.9,25.6,24.8,52.2,53.8,39.7s28.6-21.7,32.1-34.1c12.2,2.1,24.2,4.6,36.3,7.2,8.6,1.9,16.5,3.4,24.8,6.7s18,7.3,13.9,16.9-21.1,15.2-28.8,17-4,0-6.9,0c-4.4,0-7.6,2.6-11.7,3.6-29,7.5-68.9,9.2-99.2,10.6-62.7,3-135.3,2.6-196.6-11.4-9.8-2.2-28.5-7.5-34.5-16s-2.9-10.8.4-14.2c9.7-9.9,18.8-10.9,31.7-13.2,7.4-1.3,14.9-2.8,22.5-3.8,4.5-.6,9.2,0,13.3-1.8,10.6,26.8,44.1,47,70.7,27.5,9.9-7.2,17.8-22.8,18.7-34.8h59.6Z"/>
    <path class="st0" d="M232.5,793.3c.8.5,1.8,2.3,3.5,2.2.7,12.9,1.7,22.6,11,32.5s9,7.6,9.2,8.4c.6,2.6.2,6.5,1.7,9.3,1.4,12.7-1.4,25.4-1.7,38.1-8.1,4.5-17.6,10.3-25.6,15.2-13.1,8-25,18-40,22.8-4.6,9.7-11.1,20.5-10.7,31.5-4.3-.2-8.6.7-12.9.4-10.4-.7-19.6-6.4-28.8-10.4s-7.4-2.1-11.7-5.7c-19.3-16.1-33.9-38.5-35.5-63.8-.7-11.4.5-30.9,5.4-41.3s4.4-5.6,5.8-7.7c9.8-15.2,15.3-23.3,30.8-33.9,31.4-21.6,68.3-16.5,99.6,2.5ZM226,855.7c-7.1-9.4-13.4-30.9-23.9-36.6-4.3-2.3-15.1-2.7-20.3-2.9-8.3-.3-20.9-.8-28.9,0s-6.1,3.3-8.7,6.5c-8.2,10.1-15.9,22.5-22.9,33.6s-4.7,5.7-4.6,8.8c.2,5.8,10.8,21,14.3,26.5s10.4,13.9,13.4,22l57,.9c3.4-4.8,6.7-9.6,10-14.4s2.1-3.1,3.1-4.7c5.7-8.1,11.5-16.2,17.3-24.4l-2.1-14.3-3.8-1Z"/>
    <path class="st1" d="M250.4,707.1c3.1,0,9.5,1.5,11.8,3.4s8.2,10.9,9.3,13.5,3.6,15.6.5,16.6-6.9-.3-9.4-.4c-4.1,0-8.2,0-12.3,0s-10.5.9-15.3-.4-4.2-2-4.8-2.4c-8.8-6.1-2.2-20.2,4.6-25.4v-.7c4.6-2.6,10.1-4.2,15.5-4.3ZM246.4,713.7c-2.6.3-4.3,1.2-5.5,3.6s-2.8,8.7,1.9,9.2,7.6-.5,11-.5,7,1.9,7.6-1.9c1.1-6.8-9.3-11.1-15-10.4Z"/>
    <path class="st1" d="M250.4,748c3.9.3,8.6,1.3,12.3,2.6s7.8,2.3,4.8,5.4-3.6,2.4-4.8,3.2c-4.6,3.1-8.3,6.5-12.7,9.5s-8.9,5.1-14.5,4.3-11.1-3.8-11.2-8.5,3.4-11.3,6.3-13,3.5-1.5,4.5-1.8c4.9-1.6,10.2-2.1,15.3-1.7ZM237.6,754.2c-3,.2-8.4,1.8-8.7,5.3s1.6,5.9,5.1,5.8c5.8,0,16-12,3.6-11.1Z"/>
    <path class="st13" d="M250.4,740.3v7.8c-5.1-.3-10.5.2-15.3,1.7v-9.9c4.8,1.3,10.4.4,15.3.4Z"/>
    <path class="st15" d="M236,792c0,1.1,0,2.3,0,3.4-1.7.1-2.7-1.7-3.5-2.2l3.5-1.3Z"/>
    <path class="st32" d="M568.1,615.7l90.3-44.4v74.6c-16.3-10.5-37.4-12.6-52.8.4-28.9,24.4-30.1,91.2-4.4,118.1,12,12.6,24.7,14.1,40.4,7,5.5-2.5,10.4-6.2,16.4-7.8-.9,5.8,3.1,14.6-2.7,19.2s-14.7,8-20.1,10.8c-21.6,11.4-43.6,22.1-65.3,33.4.7-6.1.2-13.4.4-19.6,1.6-55.4-.7-110.7-1.7-166l-.5-25.6Z"/>
    <path class="st32" d="M519.1,867.9c.5,7.6-1.1,15.1,0,22.6.3,1.8,1.2,6.5,3.1,7.3,2.7,1.2,5.2-.4,5.7-3s0-11.1,0-15.1c0-2.5.5-3.7,0-6.7l4.6-5.2h11.6c-.2,22.4.4,44.7.5,67.1s-.5,3.7-.5,5.8c-1.7-.3-3.8-.8-5.5-.9-12.3-.7-36.1,1.8-44-8.9s.4-32.4-10.7-47.7c-15.4-21.2-36.5-16-59.3-17.1-25.3-1.2-58.9-10.1-75.8,15.1s-4,21.3-6.6,34c-3.8,18.3-23.2,12.2-37.1,11.6l1.3-14.2c7.8-3.9,2.6-7.9,2.2-12.9s1.4-7.1,1.8-9.9c.8-7.1,1.6-20.3-1-26.8s-1.4-2.9-2.5-4.2c.8-1.1.8-3.3,1.3-4.3,1.6-3.7,5.4-6.3,2.6-11.2,8.3,1.1,18,1,26.5,1.7,40.6,3.6,81.4,8.6,121.8,13.9,20,2.6,40,6.5,59.9,9ZM527.7,907.2c-1.8-1.4-6.3-.7-8.2.6-8.3,5.7,3.7,16,8.5,10.9s1.4-10.1-.3-11.5Z"/>
    <path class="st27" d="M544,940.8c0,11.9.1,23.9,0,35.8-6.5-.8-14.4,1.6-20.6-.2s-2.1-1.3-3.7-1.5c-9.8-1.2-22,.9-32,0-1.3.2-9.3,5.7-10.7,6.9l-.5-20.1c.8-4,.3-8,.4-12.1.4-14.9,3.6-41.8-2.8-54.9s-24.4-14.7-39-15.5c-15.6-.9-31.3-.7-46.9-1.3-8.3-.3-11.3-2.1-19,2.4s-11,9.8-11.9,17.2l-1.8,77c-1.7-1.8-7.3-6.3-9.5-7.7s-2.5-1.6-4-2.1l-42.6-2.3c0-11.7,0-23.4,0-35.1,1.9-1.3,3.9-.3,5.7-.3,13.8.6,33.3,6.6,37.1-11.6s-1.8-21.5,6.6-34c16.8-25.2,50.5-16.3,75.8-15.1,22.8,1.1,43.9-4.1,59.3,17.1,11.1,15.3,2.7,36.9,10.7,47.7s31.7,8.2,44,8.9c1.7.1,3.8.6,5.5.9Z"/>
    <path class="st27" d="M555.9,733.8c-3.4-3.4-10.1-8-14.9-8.6,0-3.7.1-7.3,0-11-.6-22.3-1.6-44.4-.9-66.8.3-9.1,4-21.8-6.7-26.6-14.4-6.4-45.3-5.5-61.9-6.8-45.4-3.7-90.5-10.5-135.9-15.1-16.9-1.7-35.7-4.1-52.6-4.8-4.2-.2-11.9-.6-15.4,1.7s-4.1,9.4-4.6,14.2-.4.1-.4.4,0,.6,0,.9l-1.3,20,.5,43.3c0,.9,0,1.7,0,2.6s0,.6,0,.9c0,1.8.4,3.4.5,4.9.2,9.1-.2,18.3,0,27.4-2.3-2-8.7-3.5-11.8-3.4v-105.4c2-26.8,31.3-21.3,50.6-19.6,26.6,2.4,53.2,5.4,79.8,8.2,38.8,4.1,78.3,10.2,117,13.4,17.9,1.5,49-1.5,56,19.5s.5,20.1.3,29c-.4,22.1.6,44,1.4,66s0,10.5.4,15.8Z"/>
    <path class="st27" d="M262.7,759.3c0,4.7-.1,9.4,0,14,.2,8.9,0,19.7.9,28.4s3.1,7.5,7.7,8.4c9.6,1.7,20.6,1.9,30.4,3.1s10.3,1.1,14.6,1.8,3.6,2.3,5.1.3c47.9,5.6,96.6,8.9,144.4,15.5,1,.1,2.4-.2,3.3,0s1.8,1.9,3.5.9v1.3h15.1c1.8,0,5.1.7,7.2.9,11.3,1,23.7,3.5,34.8,3.9,5.1.2,8-1.1,9.8-5.9,4.1-11,1.3-28.2,3.2-39.8.2-1.2,1.5-2.6,2-3.9.8-2.5,1.2-10.6-.2-12.6s-1-.5-1.4-.9-.3-1-.4-1.1c0-3.7.3-7.5-.4-11.2,3.2.9,8.6,1.5,11.7,0s2.6-1.7,2.8-1.8c0,5-.1,9.9,0,14.9.4,17.7.6,36.2-1.3,53.9-3.1,28.5-16.8,26.1-41.4,23.4-19-2-37.7-6-56.7-8.5-58.7-7.8-119-9.2-177.4-19.1s-28.3-5.1-29.7-20.8c-.9-10.3.1-22.7,0-33.2s.3-1.9-.4-2.4c4.4-3,8.1-6.4,12.7-9.5Z"/>
    <path class="st5" d="M408.2,537.6c-.7,3.4,3.4,2.5,3.9,5.8,1.1,6.8-4.9,8.6,1.1,15.7,8.2,9.7,26,14.1,38.2,15.9,22.4,3.3,61.6,1.4,79.2-14.2,5.4-4.7,4.5-9.7,4.6-16.4l78,9.1c.9,4.3-2.3,3.7-5.1,5.1-23,11.1-44.8,25-69.2,33.3-60.7-9-122.2-10.7-183.2-17.3-9.6-1-19.5-1.7-28.7-4.7,22.5-8.7,44.1-21,66.6-29.5,1.9-.7,5.5-2.4,7.3-2.7s5.4.3,7.1-.1Z"/>
    <path class="st32" d="M558.9,940.8c.2-26.7.3-53.5.9-80.1l82.3-38.4v62.1c-11.8-2.4-23.9-.6-33.1,7.3-11.3,9.7-15.4,24.4-16,38.8l-34.2,10.3Z"/>
    <path class="st14" d="M299.5,975.2l40,3.6c6.6,3.9,10.9,14.8,18.1,17.6,13.5,5.3,44.6,5.9,60.1,6.9,12.7.8,42.2,4.3,52.9.3s14.8-12.5,23.8-16.3l49.7,3.4c-2.4,31.6-17.2,32.6-45.8,31.9-54.2-1.4-107.7-11.6-161.7-15.5-10.2-.7-17.5,1.1-26.5-5s-9.8-16.7-10.6-26.9Z"/>
    <path class="st2" d="M355.6,974.4c3.3,3.6,3.5,8.2,8.8,11s17.3,2,23.4,2.4c16.5,1.1,33,2.1,49.5,3,7.7.4,15.6,1.6,23.3,1.7,8.1.2,11.3-6.6,16.4-10.8,1.5-1.2,9.4-6.8,10.7-6.9,10.1.9,22.2-1.2,32,0,1.7.2,2.4,1.2,3.7,1.5,6.2,1.8,14.1-.6,20.6.2,0,4.8.4,9.3,0,14.2l-49.7-3.4c-9,3.8-14.7,12.8-23.8,16.3s-40.2.5-52.9-.3c-15.5-1-46.6-1.6-60.1-6.9-7.1-2.8-11.4-13.6-18.1-17.6l-40-3.6c-.4-4.8,0-8.3,0-12.9l42.6,2.3c1.4.5,2.7,1.3,4,2.1,2.2,1.4,7.8,5.9,9.5,7.7Z"/>
    <path class="st18" d="M568.1,615.7c-3.1.3-5.1-3.3-6.4-5.6s-4.1-8.4-2.2-10.4c19-9.3,37.6-19.5,56.5-28.9,8.6-4.3,17.6-8.2,26.2-12.6,3.4-1.7,7.6-4.7,10.8-6.2,5-2.2,11.3,3.8,14.1,7.5s4,5.9,4,6.5v88.6c-1,0-2.1.2-3.1-.2-2.2-1-6.9-6.7-9.6-8.4v-74.6s-90.3,44.4-90.3,44.4Z"/>
    <path class="st21" d="M618.5,654.9c4.5,1.6,9.1,3.5,13.4,5.5s2.2.8,2.8,1.8c-12.7,14.4-16.2,42.7-13,60.9,2,11.6,7.5,23.1,15.2,32-23.3,12.5-34.5-9.3-37.5-28.6-3.4-20.9-.9-59,19.1-71.7Z"/>
    <path class="st14" d="M667.2,939c-20,.7-37.2,11.6-55.7,17.7-1.3-5.9-3.5-11.8-4-17.9-1.2-18,8.6-45.3,31.6-40.6s20.9,19.1,24.3,28.3,2.2,8.9,3.7,12.5Z"/>
    <path class="st16" d="M667.2,939c.6,1.5,2.5,3.8,3.1,5.3,3.8,8.5,4.9,16.3,6.5,25.3-20.3,2.2-38.4,12.1-57.8,17.2-3.7-9.2-5.2-20.4-7.5-30.2,18.5-6.1,35.7-17,55.7-17.7Z"/>
    <path class="st14" d="M426.2,532c3.5,1.3,6.6,3.2,10.1,4.5,21.5,8.5,46.7,9.2,68.5,1,4.2-1.6,8-4,12.3-5.5,2.4.7,2.3,11.2,2.5,13.5.3,3.5,2.2,5-.9,7.8-4.2,3.6-14.1,5.9-19.6,7-24.7,5-53.6,3.9-75.7-8.9l2.9-19.4Z"/>
    <path class="st32" d="M649.4,670.2c8.6-7.4,13.7,1.2,15.9,8.8,4.7,15.7,4,46.3-6.7,59.6-1.7,2.1-4,4.2-6.6,5.1-6-3-11.4-8.9-13.9-15-7-17.1-3.3-45.9,11.3-58.5Z"/>
    <path class="st41" d="M658,763.6c.6-3.7,5.7-8.8,8.6-11.2s3-2.5,4.6-3v33.8c0,3.2-13,12.9-16,14.9-26,17.1-59,24.6-84.4,43.3-4.6,1.4-2.9-5.6-2.5-8.1s1.4-4.5,1.6-6.4c21.7-11.3,43.7-22,65.3-33.4,5.4-2.9,15.7-7.4,20.1-10.8s1.8-13.3,2.7-19.2Z"/>
    <path class="st2" d="M228.5,980.4c-.6-18.3-6.4-36.1-15.8-51.7-.8-3.8,5.1-7.1,7.9-8.8,7.6-4.5,11-6.1,16.1,2.2,5.3,8.5,10.3,22.3,13,32s3.5,12.3,2.6,18.5c-7.4,3.1-15.7,7.2-23.9,7.8Z"/>
    <path class="st20" d="M243,907.1c7.3-.2,13.9-10.1,21.2-5.5s15.7,31,17.8,39.4,3.1,12.6.5,15.9-6.6,4.7-8,5.5-8.5,4.1-10.1,2.1-1.9-5.9-2.3-7.2c-2.1-7.4-3.2-15.5-5.9-22.6s-14.1-26.3-13.1-27.5Z"/>
    <path class="st14" d="M593.1,930.4c-.5,12.4,2,23.7,3.9,35.8l-38.1,12.1c.1-12.5,0-25,0-37.5l34.2-10.3Z"/>
    <path class="st5" d="M678.6,978.7c1.3,22.4-9.8,37.5-34,35.3-7-.6-17.1-5.9-17.8-13.6,0-1.1,0-5,.5-5.8s5.1-3.6,5.8-4c11.7-6,29.5-10.8,42.6-12,.9,0,1.9,0,2.8,0Z"/>
    <path class="st41" d="M327.1,570c-8,1.3-16.1-.3-24.1-.4-1.2-1.1,5.6-4.8,6.3-5.2,11.5-6.5,26.9-12.3,39.3-17.4s32.8-12.9,49.5-18.1c4.4-1.3,12.9-5.2,17.2-3.6s-.7,5.9-1.7,7.2-4.7,5-5.4,5.2c-1.7.4-5-.3-7.1.1s-5.4,2-7.3,2.7c-22.5,8.5-44.1,20.8-66.6,29.5Z"/>
    <path class="st5" d="M212.7,928.7c9.4,15.7,15.2,33.4,15.8,51.7-11.1.7-19.6-.1-26.7-9.3-5.9-7.6-7.1-19.5-5.1-28.7s6.9-14.8,16-13.8Z"/>
    <path class="st36" d="M256.1,836.4l26.2,3.8c1,.5,1.1,1.2,1.4,2.1,1.9,5.4,2.5,23-1.3,27.5s-19.4,10.3-26.3,14.1c.3-12.7,3.1-25.4,1.7-38.1-1.5-2.9-1.1-6.7-1.7-9.3Z"/>
    <path class="st1" d="M541,725.2c4.8.6,11.5,5.2,14.9,8.6,5.6,5.7,6.6,20.7.9,26.7s-2.5,1.7-2.8,1.8c-3.1,1.4-8.5.9-11.7,0-5.3-1.5-12.9-6.8-18.3-9.4s-7.5-3.3-11.2-4.8c-1.1-2.4.5-4.9,1.7-7,4.5-8.1,16.8-17.2,26.5-15.9ZM536,732.6c-3.1.5-8.5,2.9-6.7,6.8.8,1.8,5.9,3.1,8,4.2s6.2,5.2,8.7,5.3c3.9.2,6.2-8.3,4.5-11.4s-10.3-5.6-14.5-4.9Z"/>
    <path class="st14" d="M353.8,1040.8c-.7-2.6-2.1-5.1-2.8-7.8-2.4-8.7-1.3-9,7.4-8.6s6.2.6,9.2.9c15.9,1.7,32,5.8,48,4.3-.2,3.6.2,7.2,0,10.8-20.6,1.6-41.4,4.7-61.8.4Z"/>
    <path class="st36" d="M489.7,1049.4h-59.6c.3-3.6-.7-11.5.2-14.3s3.8-3.6,5.3-3.5l52.1,5.7c2.2,1.1,1.7,9.4,2.1,12Z"/>
    <path class="st14" d="M411.7,1055c-.7,5,.2,5.6-2.6,10.6-13.2,24-42.7,8.9-51.3-10.6,17.8,3.2,36,1,53.9,0Z"/>
    <path class="st37" d="M455.5,510.5c-1.4,15.5,17.1,18.8,28,11.8s6.4-6.6,7.8-11.8c3.7-.9,14.6,3,17.7,5.4s3.7,4.5,0,7.3c-12.4,9.2-52.7,8.7-66.8,3.3-7.7-3-12.9-8.5-2.5-12.8s10.6-2.4,15.9-3.1Z"/>
    <path class="st37" d="M535.3,544.5c-2.1,0-4.5-1.6-4.7-3.8s.9-5.6,2.7-5.3l81,8.7c4.3,1.1,8.7,1.9,13,3.2s2.1.4,2.2,1.1l-16.2,5.2-78-9.1Z"/>
    <path class="st41" d="M415.6,1040.3c-.4,6.5-3.2,9.9-3.9,14.7-17.9,1-36.1,3.2-53.9,0-2.6-5.9-2.4-8.4-3.9-14.2,20.4,4.3,41.2,1.2,61.8-.4Z"/>
    <path class="st14" d="M556.8,1053.3c-.5,2.1.1,3.9-1.1,6.5s-3.5,4.9-4.6,6.2c-16.2,18.3-37.8,14.3-44.7-9.3h18.6c10.6-.8,21.3-1.7,31.8-3.4Z"/>
    <path class="st14" d="M598.4,978.7c.1.6,1.7,2.2,2.1,2.9,1.3,2.2,6.1,10.3,3.5,12.5s-5.7,1.3-6.9,1.6c-11.4,3.4-21.6,9.4-32.6,13.2s-4.8,1.9-7.2,1.7c.5-6.1,1.7-11.9,1.8-18.1l39.4-13.8Z"/>
    <path class="st41" d="M562.4,1040.8c-.6,2.3-.9,4.2-2,6.5s-3.5,5-3.7,6c-10.5,1.8-21.2,2.7-31.8,3.5h-18.6c-1.5-5-1.6-7.3-1.8-12.5l57.8-3.4Z"/>
    <path class="st5" d="M562.4,1040.8l-57.8,3.4c0-2-.8-3.6,0-5.6h19.1c6.9,0,22.7-10.5,30.7-12.9,2.3-.7,8.1-2.4,9.6-.4s-.6,12.2-1.5,15.5Z"/>
    <path class="st41" d="M597.1,966.2c.6,3.7.5,9.2,1.3,12.5l-39.4,13.8c0-4.8,0-9.5,0-14.2l38.1-12.1Z"/>
    <path class="st2" d="M676.8,969.6c.6,3.2,1.6,5.6,1.8,9.1-.9,0-1.9,0-2.8,0-13.1,1.2-30.9,6-42.6,12-.7.4-5.7,3.6-5.8,4-1-.2-2-.4-3.1-.4s-1.2,0-1.8,0c-1.9-2.9-2.3-4.4-3.5-7.3,19.5-5.1,37.5-15,57.8-17.2Z"/>
    <path class="st0" d="M514.2,442.4c6.2-3.1,16.1,1.6,16.7,8.8.8,11.1-15.2,14.7-22.4,7.7-3.9-3.8-4.2-10.5.5-13.8s1.4-.5,1.7-.7c-3.3,7.1,10.6,11.9,12.2,4.4s-4.1-7.1-8.7-6.6Z"/>
    <path class="st37" d="M307,858.8c1.1,1.3,1.9,2.6,2.5,4.2,2.5,6.6,1.8,19.7,1,26.8-4.7,1.8-7.6-1.7-8.9-5.7s-2-17.9,0-22.3,3.1-2.6,5.5-3Z"/>
    <path class="st37" d="M527.8,873.1c.4,2.9,0,4.2,0,6.7,0,4,.7,11.6,0,15.1s-3,4.2-5.7,3-2.8-5.5-3.1-7.3c-1.1-7.5.5-15.1,0-22.6,5.5.7,7.7-1.7,8.8,5.2Z"/>
    <path class="st37" d="M285,886v26.3c-3.8-3.8-6.8-8.7-9.5-13.3s-1.1-.8-1.3-1.1-2-5.3-1.9-5.6l12.7-6.3Z"/>
    <path class="st3" d="M618.5,654.9c6.2-3.9,12.4-5.1,19.6-2.3s4.6,2.2,4,3.7-6,4.3-7.4,5.9c-.5-1-1.8-1.4-2.8-1.8-4.4-2-8.9-3.9-13.4-5.5Z"/>
    <path class="st31" d="M501.1,466.1c-8.6,11.7-17.5,18.7-22.8,33.2-1.1,1.2-1.7,1.9-3.5,1.7,3-9.6,13.9-31.3,23.7-35.4s2.2-.2,3.1-.9c.1.5-.1.9-.4,1.3Z"/>
    <path class="st2" d="M310.9,843.3c2.8,4.9-1,7.5-2.6,11.2-6.3,1.1-9.6-7-6.1-11.4s5.7-.2,8.8.2Z"/>
    <path class="st20" d="M510.7,444.5c1.1-.7,2.3-1.6,3.5-2.2,4.6-.6,9.8,1.2,8.7,6.6s-15.4,2.6-12.2-4.4Z"/>
    <path class="st2" d="M308.7,899.8c.4,5,5.6,9.1-2.2,12.9-7.5-1.7-5.5-7.2-5.3-12.9h7.5Z"/>
    <path class="st28" d="M478.3,499.3c-.8,2.3-3.5,15.1-4.2,15.6s-1.9.4-2.8.4c.4-4.9,2-9.6,3.5-14.2,1.8.2,2.4-.5,3.5-1.7Z"/>
    <path class="st28" d="M501.1,466.1c.3-.4.5-.8.4-1.3-.8.7-2.3.6-3.1.9l4.6-4.3,1.5,2.3c-.8,1.3-2,2-3.4,2.4Z"/>
    <path class="st5" d="M624.2,994.2c-1,2.5-.9,1.2-1.8,0,.6,0,1.2,0,1.8,0Z"/>
    <path class="st34" d="M226,855.7l3.8,1,2.1,14.3c-5.7,8.1-11.5,16.2-17.3,24.4s-2,3.1-3.1,4.7c-3.4,4.8-6.7,9.6-10,14.4l-57-.9c-3-8.1-8.8-14.8-13.4-22s-14.1-20.7-14.3-26.5,3-6.4,4.6-8.8c6.9-11,14.7-23.4,22.9-33.6s4.2-6,8.7-6.5c8-.8,20.7-.3,28.9,0,5.2.2,16,.6,20.3,2.9,10.5,5.7,16.8,27.2,23.9,36.6ZM195.6,830.5l-30.2-1.4c2.9,11.5,9.9,22.6,18.3,30.9l29.5.9-17.6-30.5ZM150.8,836.5c-.4.1-5.2,5.8-6,6.7-3.5,4.1-13.9,17.2-14,22s5.6,11,7.2,13.5c2.4,3.7,5.1,7.8,7.9,11.2s3.6,3.4,7.9-.4c17.1-15.2,16.1-31.5,1.9-48.5s-3.7-4.8-4.9-4.5ZM214,873.5l-31.5-.8-21.6,30.9,31.5,1.1c6.3-9.1,13.3-17.8,19.4-27.1.4-.6,2.7-3.6,2.1-4.2Z"/>
    <path class="st24" d="M541,725.2c-9.7-1.2-22.1,7.8-26.5,15.9-1.2,2.1-2.7,4.6-1.7,7,3.8,1.5,7.6,3.1,11.2,4.8,5.4,2.6,13,7.8,18.3,9.4.7,3.7.4,7.5.4,11.2-6.4-6.4-15.1-11.1-24.4-12.4-14.1-2-8.3,2.2-4.3,9.4,4.2,7.7,7.3,19.7,17,22.1s7.7.3,11.7-.6c-1.9,11.6.9,28.8-3.2,39.8-1.8,4.9-4.7,6.1-9.8,5.9-11.1-.4-23.6-2.9-34.8-3.9,2.7-14.7-5.7-27.6-3.4-42.3,1-6.3,3.2-11,2.5-17.8s-3-7.4-1.8-13.8c.5-2.7-.8-2.9-2.2-4.5,24.3-13,28.2-47.9,15.4-70.1-13.9-24.1-44.9-25.2-58,.4-11.7,22.9-8.9,52.9,13.2,68.4-.8.3-1.2,2.7-1.6,3.4s-1.6,0-1,2.7,5.6,5.6,9.1,5.5c-.5,6.3-1.7,12.1-.1,18.4,1.8,7.2,5.4,10.4,3.9,18.6-1.5,8.5-4.5,13.2-3.7,22.6s.3,4.1,1.7,5.4c-.8-.2-2.3.1-3.3,0-47.8-6.6-96.5-9.9-144.4-15.5,0-1.5,0-3,0-4.5-.7-10.3-2.8-17.7-1.2-28.4s2-8,2.1-11.7-.8-4.4-.3-6.4,5.9-1.9,6.5-6.2-1.1-5.9-2.6-6.6c23-11,27-44.7,18.2-66s-42.4-32.6-58.2-6.9c-14.4,23.4-10.9,57,14.2,71.5-.1,0-1.4,2.4-1.5,2.7-.3,1-.6,3,0,3.8s1.3.7,1.7,1.3c1.9,2.4-.4,1.9-1,3.3-3.6,8.6,3,17.9,2.5,26.6s-3.4,9-3.9,13.4.2,6.9,0,10.2l4,1.6c-9.8-1.2-20.8-1.4-30.4-3.1s-7.2-3.8-7.7-8.4c-1-8.7-.7-19.5-.9-28.4s.1-9.4,0-14c1.2-.8,4.1-2.4,4.8-3.2,3-3.2-2.4-4.6-4.8-5.4v-10.3c2.4,0,7.4,1,9.4.4,3.1-1,.5-14-.5-16.6s-7.2-11.7-9.3-13.5c-.2-9.1.2-18.3,0-27.4s-.4-3.2-.5-4.9l.4-.6-.4-.2c0-.9,0-1.7,0-2.6l.9-63.4c0-.3,0-.6,0-.9l.4-.4c.5-4.8-.1-11,4.6-14.2s11.2-1.9,15.4-1.7c16.8.7,35.7,3.1,52.6,4.8,45.3,4.5,90.5,11.4,135.9,15.1,16.5,1.3,47.5.4,61.9,6.8,10.7,4.8,7,17.5,6.7,26.6-.7,22.4.3,44.5.9,66.8s-.1,7.4,0,11ZM408,775.4c3.8,3.8,9.3,13,15.9,8.7,8.4-5.5-1-15-5.9-19.1-12.3-10.6-24-13.9-39.8-7.7-7,2.7-19,11.3-18.8,19.5s4.8,7.1,9.4,6.2,4.5-5.2,6.7-7.2c10.6-9.6,22-10.7,32.5-.3Z"/>
    <path class="st36" d="M246.4,713.7c5.7-.7,16.1,3.6,15,10.4s-5.1,2-7.6,1.9-8,.8-11,.5c-4.7-.5-3.4-6.2-1.9-9.2s2.9-3.3,5.5-3.6Z"/>
    <path class="st27" d="M262.7,740.3v10.3c-3.7-1.3-8.4-2.3-12.3-2.6v-7.8c4.1,0,8.2,0,12.3,0Z"/>
    <path class="st36" d="M237.6,754.2c12.4-.9,2.1,11-3.6,11.1s-5.4-2.6-5.1-5.8,5.7-5.1,8.7-5.3Z"/>
    <path class="st2" d="M527.7,907.2c1.7,1.4,2,9.7.3,11.5-4.8,5.1-16.8-5.3-8.5-10.9s6.4-2,8.2-.6Z"/>
    <path class="st5" d="M477,981.7c-5.1,4.2-8.3,10.9-16.4,10.8-7.7-.1-15.6-1.3-23.3-1.7-16.5-.9-33-1.9-49.5-3s-18.6.2-23.4-2.4-5.5-7.4-8.8-11l1.8-77c.9-7.4,5.5-13.5,11.9-17.2s10.7-2.7,19-2.4c15.6.5,31.3.4,46.9,1.3,14.6.9,31.7.8,39,15.5s3.2,40,2.8,54.9.4,8.1-.4,12.1l.5,20.1ZM397.6,895.2c-5.3.5-14.8,3.7-18.3,7.9-6.7,7.9-7,36-5.7,46.1s8.4,18.5,17.9,20.4,12.1,1.5,17.4,1.8c20.5,1.3,39.7,3.2,43.1-21.8,1.4-10.3,1.7-35.5-3.4-44.4-1.1-1.9-2.4-3.3-4.3-4.4-8.7-4.7-36.5-6.4-46.7-5.6Z"/>
    <polygon class="st30" points="261.8 674.7 261.4 631.4 262.7 611.4 261.8 674.7"/>
    <path class="st30" d="M261.8,678.2c0-.3,0-.6,0-.9l.4.2-.4.6Z"/>
    <path class="st30" d="M262.7,610.5c0-.3.4-.4.4-.4l-.4.4Z"/>
    <path class="st4" d="M460.8,754.1c.4-.1,1.3.1,1.8,0v-1.7s11.1.8,11.1.8l.5,1.3c.8-.1,1.8.1,2.6,0s.8-1,1.7-1.4c2.8-1.1,6.9.3,9.9.3,1.6.5,1.3,1.5,1.7,2,1.4,1.6,2.7,1.8,2.2,4.5-1.2,6.4,1.2,8.1,1.8,13.8s-1.5,11.5-2.5,17.8c-2.3,14.7,6.1,27.7,3.4,42.3-2.1-.2-5.4-.9-7.2-.9h-15.1v-1.3c-1.7,1.1-2.7-.7-3.5-.9-1.4-1.3-1.6-3.5-1.7-5.4-.8-9.4,2.2-14.1,3.7-22.6,1.5-8.2-2.1-11.4-3.9-18.6-1.6-6.3-.4-12.1.1-18.4-3.5,0-8.2-1.9-9.1-5.5s.6-2.1,1-2.7.8-3.2,1.6-3.4Z"/>
    <path class="st1" d="M325.8,751.5c1.5.8,2.8,4.9,2.6,6.6-.6,4.3-5.8,3.5-6.5,6.2s.4,4.2.3,6.4c-.1,3.7-1.6,8-2.1,11.7-1.5,10.7.6,18.1,1.2,28.4s0,3,0,4.5c-1.6,1.9-3.3,0-5.1-.3-4.3-.8-10.1-1.3-14.6-1.8l-4-1.6c.3-3.3-.3-7,0-10.2s3.7-8.6,3.9-13.4c.5-8.7-6.1-18-2.5-26.6s2.9-.9,1-3.3-1.5-.9-1.7-1.3c-.5-.8-.2-2.8,0-3.8s1.3-2.6,1.5-2.7,3.1-1.1,3.4-1.2c4.9-1,5.9,2.3,9.2,2.5s3.4-1.9,4.8-2,7.2,1.4,8.5,2Z"/>
    <path class="st1" d="M542.7,773.5c0,0,0,.7.4,1.1s1,.5,1.4.9c1.4,2,1,10.2.2,12.6s-1.8,2.7-2,3.9c-4,.9-7.7,1.6-11.7.6-9.6-2.4-12.7-14.4-17-22.1-3.9-7.2-9.8-11.5,4.3-9.4,9.2,1.3,18,6.1,24.4,12.4ZM531.2,773.5c-4.2,4.6,3.2,16.2,9.3,12.2s-3.7-13.4-9.3-12.2Z"/>
    <path class="st36" d="M536,732.6c4.3-.7,12.4.8,14.5,4.9s-.6,11.6-4.5,11.4-6.4-4-8.7-5.3-7.1-2.5-8-4.2c-1.8-3.9,3.6-6.3,6.7-6.8Z"/>
    <path class="st30" d="M150.8,836.5c1.2-.3,4.1,3.5,4.9,4.5,14.2,17,15.1,33.3-1.9,48.5-4.2,3.8-4,5.1-7.9.4s-5.5-7.5-7.9-11.2-7.3-11-7.2-13.5c.1-4.8,10.5-18,14-22s5.5-6.5,6-6.7ZM149.6,883c1.2-1.9,1.7-4.3,2.7-6.2s6.2-10.7,6.1-12.1-2.1-4.1-2.4-4.1l-6.6,12.5c-.5,0-4.2-7.5-4.2-8.4s2.2-4.9,2.9-6.3,3.5-5.5,3.6-6.3-1.7-4.4-2.8-4.5l-9.3,17.8c3.4,5.2,5.5,12,9,17s0,.8,1,.6Z"/>
    <path class="st19" d="M214,873.5c.6.6-1.7,3.5-2.1,4.2-6.1,9.3-13.1,18-19.4,27.1l-31.5-1.1,21.6-30.9,31.5.8ZM201.8,880.4h-19.1l-9,17.7h19.3l1.8-4.3h-13.1c-.2-1.1.4-1.9,1.5-2.1,2.3-.4,12.3.5,13.3,0l1.8-4.7h-13.1l.7-1.7h13.4c1-.3,2.9-4.3,2.5-4.7Z"/>
    <path class="st19" d="M195.6,830.5l17.6,30.5-29.5-.9c-8.4-8.3-15.4-19.4-18.3-30.9l30.2,1.4ZM194.3,848.5h-9l-7-12.9-5-.4,9.9,18.5h18.6l-9.2-18.3h-4.8s6.6,13.2,6.6,13.2Z"/>
    <path class="st38" d="M490.1,755.4c-.4-.5-.1-1.5-1.7-2-3,0-7.1-1.4-9.9-.3s-.7,1.2-1.7,1.4-1.8,0-2.6,0l-.5-1.3-11.1-.8v1.7c-.5.1-1.4-.1-1.8,0-22.2-15.5-25-45.5-13.2-68.4,13.1-25.6,44.1-24.5,58-.4,12.8,22.2,8.9,57.1-15.4,70.1ZM459.4,685.2c-16.3,2.1-13.7,28.5,3.8,26.6,17.7-1.9,11.9-28.6-3.8-26.6ZM486.5,720.6c-8.9,1.5-9.8,16.2.3,16.3s10.6-18.1-.3-16.3Z"/>
    <path class="st38" d="M325.8,751.5c-1.3-.7-7.2-2.2-8.5-2s-2.5,2.2-4.8,2-4.2-3.5-9.2-2.5-3.2,1.1-3.4,1.2c-25.1-14.5-28.6-48.2-14.2-71.5,15.9-25.8,47.4-19.4,58.2,6.9s4.8,54.9-18.2,66ZM298.6,680c-16.9.9-18.2,27.9-1,28.4,19.6.5,16.6-29.2,1-28.4ZM322.6,715.4c-2.2.4-4,2.9-4.7,4.8-2.3,6.2.5,11.9,7.6,11.7,13-.3,9-18.9-2.9-16.5Z"/>
    <path class="st11" d="M408,775.4c-10.5-10.4-21.9-9.3-32.5.3-2.2,2-3.2,6.5-6.7,7.2s-9.2-1.1-9.4-6.2c-.2-8.2,11.8-16.8,18.8-19.5,15.7-6.2,27.4-2.9,39.8,7.7s14.3,13.7,5.9,19.1c-6.6,4.3-12.1-4.9-15.9-8.7Z"/>
    <path class="st13" d="M397.6,895.2c10.2-.9,38,.8,46.7,5.6s3.3,2.5,4.3,4.4c5,9,4.8,34.1,3.4,44.4-3.4,25-22.6,23.1-43.1,21.8-5.3-.3-12.3-.8-17.4-1.8-9.5-1.9-16.7-11.2-17.9-20.4s-1-38.3,5.7-46.1,13-7.4,18.3-7.9ZM395.8,905.1c-6.2.8-10.6,7.8-11.2,13.5-1,8.7-.8,22.7,1,31.2s3.2,6.9,9.4,8.4c8.5,2,30.9,4.3,38.9,1.6s5.1-3,6.1-6.1c2.5-7.3,2-31,0-38.6s-1-4.4-3.4-5.7c-7.5-4.1-32.3-5.4-40.9-4.4Z"/>
    <path class="st36" d="M531.2,773.5c5.6-1.2,16,7.8,9.3,12.2s-13.5-7.6-9.3-12.2Z"/>
    <path class="st12" d="M149.6,883c-1,.2-.7-.2-1-.6-3.5-5-5.6-11.8-9-17l9.3-17.8c1,0,2.8,4,2.8,4.5-.1.8-3,5.1-3.6,6.3s-2.9,5-2.9,6.3,3.7,8.4,4.2,8.4l6.6-12.5c.3,0,2.4,3.4,2.4,4.1,0,1.4-5,10-6.1,12.1s-1.5,4.3-2.7,6.2Z"/>
    <path class="st12" d="M201.8,880.4c.4.4-1.5,4.5-2.5,4.7h-13.4c0,0-.7,1.8-.7,1.8h13.1l-1.8,4.7c-1,.6-11-.3-13.3,0s-1.7,1-1.5,2.1h13.1l-1.8,4.3h-19.3l9-17.7h19.1Z"/>
    <polygon class="st40" points="194.3 848.5 187.8 835.3 192.6 835.3 201.8 853.7 183.1 853.7 173.3 835.1 178.3 835.6 185.3 848.5 194.3 848.5"/>
    <path class="st30" d="M459.4,685.2c15.7-2,21.5,24.7,3.8,26.6-17.5,1.9-20.1-24.5-3.8-26.6Z"/>
    <path class="st30" d="M486.5,720.6c10.9-1.8,13.3,16.4.3,16.3s-9.2-14.8-.3-16.3Z"/>
    <path class="st30" d="M298.6,680c15.5-.8,18.6,28.9-1,28.4-17.2-.5-15.9-27.5,1-28.4Z"/>
    <path class="st30" d="M322.6,715.4c11.8-2.4,15.9,16.2,2.9,16.5-7.2.2-9.9-5.5-7.6-11.7s2.5-4.4,4.7-4.8Z"/>
    <path class="st28" d="M395.8,905.1c8.6-1.1,33.4.3,40.9,4.4s2.8,3.2,3.4,5.7c1.9,7.7,2.4,31.4,0,38.6s-3,5-6.1,6.1c-8,2.6-30.4.4-38.9-1.6-6.2-1.5-8.1-1.9-9.4-8.4s-2.1-22.5-1-31.2,5-12.7,11.2-13.5ZM395.9,947.7c10.6-1.5,22.6,6,32.2-.4l.2-25.7c0-.7-.2-1.1-.7-1.5-2.1-2-14.7-3.7-18-3.9s-10.7-.2-13.8,3.3v28.2Z"/>
    <path class="st27" d="M395.9,947.7v-28.2c3.1-3.5,9.4-3.4,13.8-3.3s15.9,1.9,18,3.9.7.9.7,1.5l-.2,25.7c-9.6,6.4-21.6-1-32.2.4Z"/>
  </g>
  <metadata>
    <sfw xmlns="http://ns.adobe.com/SaveForWeb/1.0/">
      <slices/>
      <sliceSourceBounds x="90.72" y="56.78" width="603.06" height="1106.54" bottomLeftOrigin="true"/>
    </sfw>
  </metadata>
</svg>