<?xml version="1.0" encoding="UTF-8"?>
<svg id="_레이어_1" xmlns="http://www.w3.org/2000/svg" version="1.1" viewBox="0 0 24 24">
  <!-- Generator: Adobe Illustrator 29.2.1, SVG Export Plug-In . SVG Version: 2.1.0 Build 116)  -->
  <defs>
    <style>
      .st0 {
        fill: #fff;
      }
    </style>
  </defs>
  <path d="M4.8,1.3l-1.4,2.6-2.9,1.2,2.9,1.2,1.4,2.6,1.3-2.6,2.9-1.2-2.9-1.2"/>
  <g>
    <path d="M15.6,1.3c0,.1-.5.4-.7.4h-.7c-.1,0-.3.3-.4.4s0,0,0,0v.3c0,.1,0,0,0,0-.1.3-.3.4-.4.7s-.1,0,0,.3.3,0,.4,0c.5,0,1.2.3,1.6.9s0,.3.1.4.5.1.7.1c1,0,2.1.1,3.2.3s1.2.1,1.8.3,1.4,0,1.9.4.8,1,.8,1.4v7.4c0,1.1.1,3.1,0,4.6s-.7,1.4-1.4,1.7c-1.1.7-2.5,1.1-3.7,1.9s-1.4.7-2.1,1-.4.1-.7.1c-.7,0-1.4,0-2.1-.1-3.6-.6-7-1-10.6-1.3s-1.5,0-2.2-.1-.5-.4-.7-.6c-.4-.6-.4-1-.5-1.7C0,18.1,0,16,0,14v-5.7c.3-.6.7-.9,1.1-1.1,1.9-1,4.3-1.6,6.3-2.4,2.1-.9,1-.6,1.2-.6h.4c.8,0,1.4-.7,2.2-.9s1,0,1.1,0,.3-.6.3-.6c.1-.3.5-1,.8-1.3s.4-.3.4-.3v-.3c0-.1.1-.6.3-.6.1-.3.5-.3,1-.3.7,0,1.2.9.7,1.4h-.3ZM14.1,1.3c.3.3,1,.3,1.2,0s0-.6-.1-.7-.1,0-.3,0,0,0,0,0h0c-.1,0-.3,0-.4.1s-.3.6,0,.9l-.4-.3ZM13.5,1.9l.4-.4h-.1c-.1,0-.3.3-.3.3-.3.3-1.1,1.6-1.1,2s0,.1,0,.3v-.3c.3-.6.7-1.3,1.1-1.7h0ZM1.4,8.7c-.1,0-.1.1-.3.3s0,0,0,0v10.7c0,.9,0,.7.3,1s.7.3,1.1.3c4.1.6,8.4,1,12.5,1.4s.5,0,.5,0c0,0,.3-.1.4-.3,0-.4,0-1.3.1-1.7,0-2.9-.3-5.6-.1-8.4s.3-1.3-.1-1.7-.5-.3-.8-.3c-1-.1-1.9-.1-2.9-.3-3.2-.3-6.3-.9-9.5-1.1s-.7,0-1,0h-.3ZM20.9,12.6l.3-.3c-.7-.7-1.5,0-1.8.6-.7,1.1-.7,3.6,0,4.7s.3.1.4.3,0,0,0,0c.3.1.4.1.7,0s.4,0,.4-.1h0c0-.1-.3-.4-.4-.6-.5-1.3-.5-3.6.4-4.6Z"/>
    <path class="st0" d="M1.4,8.7h1c3.2.3,6.3.7,9.5,1.1s1.9,0,2.9.3.7,0,.8.3c.4.4.1,1.3.1,1.7,0,2.9.3,5.6.1,8.4s0,1.3-.1,1.7-.3.3-.4.3h-.5c-4.1-.4-8.4-.9-12.5-1.4s-.8,0-1.1-.3-.3-.6-.3-1v-2.6c0-2.3-.1-4.6,0-6.8s0-.6,0-.9v-.4h0s0-.1.3-.3h.3ZM2.9,17.4c.8.6,1.8.1,2.3-.7s.5-3-.4-3.9-1.5-.6-2.1,0c-1,.9-1.1,2.7-.4,3.9.7,1.1.4.6.7.7h-.1ZM13.8,17.3c1-1.1.8-3.1-.3-4s-1.9-.4-2.5.4-.7,3.1.4,4c1.1.9,1.8.4,2.3-.3h0ZM7.2,17.4c-.1-.1-.1-.4-.4-.3-.3.1-.3.6,0,.7.5.7,1.6.7,2.3.3s.5-.4.5-.7,0-.3-.4-.3-.3.1-.4.3c-.4.4-1.2.4-1.6,0Z"/>
    <path class="st0" d="M20.9,12.6c-1,1-1,3.3-.4,4.6s.3.4.4.6,0,0,0,0c0,0-.3.1-.4.1h-.7c-.3,0,0,0,0,0-.1,0-.3,0-.4-.3-.7-1.1-.5-3.6,0-4.7s1.2-1.3,1.8-.6c0,0-.3.3-.3.3Z"/>
    <path class="st0" d="M13.5,1.9c-.4.4-.8,1.1-1.1,1.7s0,.3,0,.3v-.3c0-.4.8-1.6,1.1-2s.3-.3.3-.3h.1c-.1,0-.3.3-.4.4h0Z"/>
    <path d="M13.8,17.3c-.5.7-1.6,1-2.3.3-1.1-1-1.1-2.9-.4-4s1.6-1,2.5-.4c1.1,1,1.2,2.9.3,4h0ZM11.2,14c-.4.3-.3.9,0,1.3s.7.1,1,0,.3-.6.1-.9-.3-.3-.3-.4c-.1-.3-.5-.1-.8,0s0,0,0,0ZM12.5,16v.4c0,.3.5.4.8.1.3-.3,0-1.1-.5-.9s-.1.1-.1.1h-.1Z"/>
    <path d="M2.9,17.4c-.1,0-.5-.6-.7-.7-.7-1.1-.5-2.9.4-3.9s1.5-.4,2.1,0c1.1.9,1.1,2.7.4,3.9-.7,1.1-1.5,1.3-2.3.7h.1ZM3.4,13.7s-.1-.1-.3-.1c-.3,0-.7.1-.8.4s0,.3,0,.3c0,.3.1.7.4.9s.7,0,.8,0,.3-.7.1-1.1,0,0-.1-.1h-.1ZM4.2,15.4c-.4,0-.4.6-.1.9s.4.1.5,0c.4-.1.1-1-.4-.9Z"/>
    <path d="M7.2,17.4c.4.6,1.2.4,1.6,0s.1-.3.4-.3.4,0,.4.3-.4.6-.5.7c-.7.4-1.8.3-2.3-.3s-.4-.7,0-.7.3.1.4.3Z"/>
    <path class="st0" d="M11.2,14h0c.3,0,.5-.1.8,0s.3.3.3.4c0,.3,0,.7-.1.9s-.7.1-1,0c-.4-.3-.4-.9,0-1.3Z"/>
    <path class="st0" d="M12.5,16h.1c.5-.4.8.3.5.7s-.7.1-.8-.1,0-.4,0-.4h.1Z"/>
    <path class="st0" d="M3.4,13.7s.1,0,.1.1c.1.3,0,.9-.1,1.1s-.5.3-.8,0-.4-.6-.4-.9,0-.3,0-.3c0-.3.7-.6.8-.4s.1.1.3.1h.1Z"/>
    <path class="st0" d="M4.2,15.4c.5,0,.8.7.4.9s-.4,0-.5,0c-.3-.3-.1-.7.1-.9Z"/>
  </g>
  <path d="M20.7,0l-1.4,2.6-2.9,1.2,2.9,1.2,1.4,2.6,1.3-2.6,2.9-1.2-2.9-1.2"/>
  <metadata>
    <sfw xmlns="http://ns.adobe.com/SaveForWeb/1.0/">
      <slices/>
      <sliceSourceBounds x="0" y="0" width="24.85" height="24" bottomLeftOrigin="true"/>
    </sfw>
  </metadata>
</svg>