<?xml version="1.0" encoding="UTF-8"?>
<svg id="_레이어_1" data-name="레이어_1" xmlns="http://www.w3.org/2000/svg" width="300.5mm" height="298.1mm" version="1.1" viewBox="0 0 851.7 845.1">
  <!-- Generator: Adobe Illustrator 29.2.1, SVG Export Plug-In . SVG Version: 2.1.0 Build 116)  -->
  <path d="M839.1,325.8c.3,1.3.7,2.7,1,4,.7,3.2,1.3,7.5,2,11,1.5,7.3,3.2,15.3,2.9,21.4.1.7,2,.6,2.1,1.2,4.6,41.9,5.8,100.7-5,140.1-3.8,13.7-5.2,28.5-9.7,43.1-49.8,161.1-195.1,281.9-363.8,298.2s-47.2,4.6-59.1,3.1c-1.9-.3-1-1.9-2.9-2.2-7-.9-15.6.3-22,0s-.1-2-2-2.1-5.3,1.4-6.9,1.2-.5-1.8-1.3-2c-3.6-.9-9.9.9-13.6,0-8.8-2.1-21.9-6-30.4-8-102.5-23.4-192.2-82.9-253.1-169.7C33.8,603.1,5.3,525.7.1,449.8s.1-8,0-12,0-2.7,0-4c-.2-7.9-.2-16.1,0-24s0-3.3,0-5c.1-4.3-.3-8.8,0-13s.9-1.9,1-3c1.1-12.7,2.8-25.4,5-38s1.8-10.7,3-16C58.9,112.2,282.8-32.9,507.2,12.2c158.5,31.9,294,155,332,313.5ZM407.9,10.1C257.1,16.7,115,108.7,48.4,243.6c-126.7,256.7,45.8,556.5,324.3,593,285.7,37.5,525.3-223.2,460.3-505.3C789.1,140.5,603.8,1.5,407.9,10.1Z" fill="#1d2022"/>
  <path d="M407.9,10.1c195.8-8.6,381.2,130.4,425.1,321.3,65,282.1-174.6,542.8-460.3,505.3C94.2,800.1-78.2,500.3,48.4,243.6,115,108.7,257.1,16.7,407.9,10.1ZM325.1,71.8c-13.2,20.8-18.1,46.4-11.3,70.8,1.5,5.4,3.1,11.2,9.8,11.3,13.3,0,4-19.8,3.5-27.5-1.2-17.1,4.3-39.9,15-53.5,2.6-3.3,11.4-10.8,15.1-13.4,6.8-4.7,22.5-7.8,18.4-17.6-3.3-7.7-12.7-3.8-18.1-1.2-13.6,6.5-24.5,18.8-32.3,31.2ZM472.9,44c-4.6,1.1-7.2,8.2-4.6,12.2s14.8,8.7,18.4,11.6c25.1,20.6,31.4,52,20.8,82.3,5.1,11.4,13.7,9.2,17.8-1.8,12.5-34.2-5.4-80.2-36.1-99-4.5-2.7-10.9-6.6-16.2-5.4ZM378.8,73.1c-8.9-7.2-25.8,12-29.9,19-8.3,14-10.5,33.3-5.5,48.9,2.1,6.5,9.6,21.4,18.2,14.8,6.7-5.2-1.3-12.6-3.2-18.8-4.6-15-1.6-31.8,8.7-43.7,3.1-3.6,12.6-8.6,13.5-10.5,1.2-2.7.6-7.8-1.8-9.7ZM498.1,119.8c-.2-12.1-4.9-23.6-12.6-32.9-4.9-6-21.8-21.1-26-7.1-2.1,6.9,5.8,9,9.6,12.5,10.9,10,13.9,19.8,13,34.5s0,4.5-.9,7.6c-1.8,6.3-11.4,13.4-4,18.9,8,6.1,15-6.1,17.5-12.5,2.5-6.7,3.6-13.8,3.5-21ZM455.8,99c-1.8.2-5.6,3.4-5.6,5.3,0,3.5,8.2,8.4,9,16s-6,15.9-5.8,17.8c.4,4.5,6.2,5.7,9.9,3.2,8.4-5.6,8.3-22.2,4.4-30.5-1.5-3.2-8.2-12.1-11.8-11.8ZM383.9,100.9c-7.8,1.7-15.3,15.8-15.7,23.4-.4,7.4,4.7,26.7,15,21.9,6.2-2.8-.9-9.3-1.7-14.2s-.6-11.5,2.9-16.6,6.6-5.9,6.9-8.2c.4-4.1-3.2-7.2-7.3-6.3ZM489.1,215.8c-5.1-.9-3.5-2.7-5.5-4.9-11.6-13-36-13.9-52.5-14l-2-47.3c28.6-14.4,7.7-54.9-21-41.2s-16.3,32.7,1,41v47.5c-13,2-25.9-1.4-39-2s-4,0-6,0-3.3-.5-4,1c-41.1,17.6-84.1,34.9-124,55-4.5,2.3-9,2.8-13.5,7-10.7,9.9-7.4,34.2-7.5,48-3.7-1.2-12.8-2.4-15.6-3.9-4.5-2.5-7.1-14.4-12.5-19.5s-6.8-3.7-10-6.1-4.7-5.4-6.9-7.1c-.3-3.5,3.8-4.4,4.9-6.1,6.3-9.4,13.4-25.7,13.8-37s-1.8-2.1-1.8-2.3c-.2-.9.1-2,0-3-.6-4.2-.4-8.3-1.9-12.6s-11.7-17.6-14.3-19.2-2.7,0-3.7-.8-5.5-5.8-6.8-6.4c-21.5-9-49.1-.4-61.1,19.5-11.1,18.4-9.8,45.8,8.9,58.4s.7.2,1,1-.4,1.7.2,2.7c1.4,2.2,5,3.5,7.8,2.3.3.3.6.7,1,1,0,5.9,0,12.4,2,18,.6,8.9,1.7,20.4,4,29-2.7,2.6-6,3.7-8.5,7-6.1,8-2.5,16.1-1.5,25-9.4-1.7-16.6-5.3-26.5-5s-4-1-3.5,2c-.7,0-1.3,0-2,0l-1.5-3c-1.6-.4-2.6,1.6-2.5,3-.6,0-1.4-.1-2,0,.4-3.2-1-1.9-2.9-1.4-6.7,1.9-11,2.7-17.6,7.4-26.4,18.9-31.6,52.9-9.9,77.9,5.9,6.8,19.8,14.2,28,18.1-.6,7.8-1.8,17.4,0,25s5.1,12.5,6.3,14.7c1.9,3.5,6.4,5,6.2,9.3,5.1-1.4,9.2-4.1,13.5,1,2,4.1-2.2,9.8-6.5,10v1.3c5,5.5,5.6,12.5,8.6,18.5,4.9,9.9,9.1,12.1,11.7,23.4s5.6,6.5,6.7,8.4.5,4.5,1.5,6.3c1.6,3,11,8.2,14.3,9.6l13.1,9.4c-2.7,15.5,4.9,34,19.1,41.4,25.4,13.4,52.7-1.4,75.9-12.4v36.5c0,2.4,7,11.9,9,14,9.1,9.4,20.4,11.2,33,11.5.7,8.7,1.3,18.6,3,27h-1c-1-1.8-3.6-.9-5.2-.7-16.7,2.1-54,10.7-66.3,21.8-18.8,16.9,11.1,28.4,24.3,32.7,60.4,19.5,140.5,21.9,203.7,20.2,48.6-1.3,105.1-3.9,151.3-19.7,19.7-6.7,47-19.4,16.6-37.1-20.3-11.8-49.4-15.8-72.3-19.2l3.5-30,34-18c9.3,17.5,24.9,26,45,24,9.5-1,20.5-8.5,25.3-16.7,16.5-28-9.8-75.4-22.8-101.3,8.5-.6,15.4-7.6,22.9-11.1l-2-6.7c-3-1.8-19.4,11-23.9,11.9-.9.3-1.9-1-2-1-5.2-11.5-14.2-23.9-23-33,10.6-3.7,21.3-6,31.4-11.1,1.9-1,8.2-4.1,5.6-6.9-1.2-1.3-7.6,3.4-9.3,4.2-10.3,4.7-21.3,8.4-32.7,8.8-2.3-2.1-8.9-5.6-9.6-7.9l-1.5-33.7,1-3c11.2-6.2,21.6-13.1,23-27-1.7-60.4.7-122.3-4-182.5,2.3-.4,10.5,2,11.8,3.2s5.4,14.9,3.2,17.8c2.7,2.4,18.6-13.7,22.3-15.2s6.7-.9,10-2c82.8-27.5,35.8-139.1-41.4-119.4-37.4,9.5-56.4,48.3-39.8,83.7-1.6-.3-3.7.3-5.5,0-11.6-1.8-23.1-2.6-34.5-4s-27.6-6.4-38-5ZM726.1,276.8c-3.5-1-7.3-4.2-9.5-7s-6.3-13.6-8.5-12c-2.4,9.4-9.1,15.5-17,20.5,3.1,2.1,6.8,3.1,9.6,5.9s4.2,8,6.5,11,1,2,2.8,1.7c.9-5.2,4.1-11.9,8.7-14.8,1.6-1,8.9-2.9,7.3-5.1ZM667.8,319.4c11.8-11.5-5.5-27.5-16.3-16.3-10.3,10.7,6.1,26.3,16.3,16.3ZM615.1,329.8l26.8-12.7c4.9-1.1,4-4.8-1-4.1-4,.5-21.6,9.9-24.3,12.8s-1.8,2-1.5,4ZM676.1,312.8c-.3,1.7.8,2.6,2.1,3.4,3.6,2.3,14.7,4.1,20.3,6.7s13.9,9.7,16.6,10.4,3.5-1.5,1-4c-8.7-8.4-27.9-15.8-39.9-16.6ZM736.8,337.1c-9.8-10.5-25.1,6-14.6,15.1,10.9,9.4,22.9-6.2,14.6-15.1ZM739.1,401.8c2.7,0,3.3.9,2.9-2.4-3.9-32.1-39.2-54.7-70.3-51.5-13.4,1.4-39.9,13.9-45.1,26.9-1.4,3.5-.2,5.6,3.2,3.7.7-.4,7.1-9.4,9.7-11.7,34.3-29.7,84.7-11.1,97.5,31l-6,2c-5.9-15.6-12.5-26.6-28-34.5-41.1-21-90.4,19.8-75.5,64.5,1.8,5.5,6.4,10.9,8.5,16s.7,4.6,2,6.5l-1,.5c-6.8-7.4-12.4-15.7-14.1-25.9h-3.9c-2.4,11.7,20.3,40.2,30.6,40.9,1.6.1,2.1-1,2.4-1,1-.2,2.5-1,3-1s.7,0,1,0,.6.8,1,1,1.3-.3,1.8.1l-1.8,12.9c5.3-1.5,8.7-4.9,14-7s.8-.9,1-1c.5-.2,1.4.1,2,0,0,.3,0,.7,0,1,.2.8-.6,2.4.6,3.1,6.1,2.6,14.7,1.7,20.5,3.4s2.1,1.3,1.9,3.5c-2.5.7-5.4.9-8,1v4c14.9-.4,31.5-7.9,42.5-18,9.5-8.8,14.5-19.3,19.4-29.8.7-1.5,1.3-8.7-1.4-8.2s-2.8,6.6-4.1,9.9c-5.9,14.9-14.8,22.9-27.4,31.1-2.7-1.5-.1-2.8.7-3.8,3-3.7,7.9-11.1,10.5-15.5.6-1,3.3-6.6,1.8-7.7.2-.2,1.7-3.5,2-4s1.5.2,2-.7c1-1.6,4-9.1,4-10.7s-1-1.4-1-1.6c0-6.9-.3-14.2,0-21,0-1.1,1.8-3.3,1-6ZM755.1,399.8c.4-7.2-.4-14.3-2.3-21.2-1-3.6-2.2-10.4-6.7-10.8.8,10.8,5.9,21,5,32h4ZM608.5,477.4c-1.1-1.1-3.3-7-5.3-5.7-.9,4-4.2,7.3-8.3,8l-.7,2c3.9.6,7.9,4.3,9,8h1.5c.8-3.3,7.9-6.9,8.5-8.5s-3.4-2.6-4.7-3.8ZM649.1,486.8c-1.9-1.8-8.8,4.6-10.4,6.1-2.9,3-1.2,5.7,1.4,4.4s10.8-8.8,9-10.5ZM692.1,496.8l-3.1.6c.9,4.9-14.8,22.5-12.9,24.4,1.9.4,2.7-.3,4.1-1.4,2.8-2.3,14.6-20.9,11.9-23.6ZM660.9,519c-20.8,3-8.2,35.3,9.2,23.2,11-7.7,4-25.1-9.2-23.2Z" fill="#fbfafb"/>
  <path d="M177.1,550.8c4.9,1.2,6.4,2.7,13,2-2.9,1-.6,2.4-2,4-.5-.5-.5-1.6-1.6-1.9-2.3-.6-9.3,4.7-11.4,6.4s-1.8,3.4-1.9,3.5c-.3.2-2.3-.2-3.5.9-21,19.1-11.4,55.6,20.5,52.1,3.4-.4,12.9-1.3,15-3.5s.9-4.5,1-6.5h1c0,1.7,0,3.3,0,5l7.1-1.6c-.3-3.6.2-7.3,0-10.9s-1.2-12.2-2-15.5h1c2.4,8.8,3.8,16.6,3,26,2.6-1.3,5.6-2,8.3-3.2s1.5-1.6,1.7-1.8c3.4-1.8,6.1-3.9,8-5s8.6-.7,10-3.8,1.3-20.4,1-25.2c3,1.7,6.1,1.4,9,2l.9,31.4,6.1,1.6c-2.3-.2-4.7.1-7,0,0,5,0,10,0,15-.2,16.7-2,31.7,16.7,38.8,14.8,5.6,51.1,4.7,68.8,6.2,50.3,4.4,100.5,10.1,150.9,13.9,6.4-.2,15.4-7.3,18.2-12.8s1.7-15.2,1.4-23.1.1-10,0-15c-.6-.1-1.5.1-2,0,1.9-1,1.9-1.4,2.1-3.4.7-10.4-.5-21.1.9-31.6,4.9.1,8.3-.4,13-1-.5,10,.8,20,1,30s0,13.3,0,20-.7,14,0,19.5-.5,1.7,1.5,1.5l44.6-23.4c1-.9.8-1.5.5-2.5-.8-3.2-5.1-10.1-6.6-14s-5.6-12.8-7-17,.2-2.8-.2-4.2c-1.7-5.2-3.4-10.5-4.8-15.8.7-.2,1.8-.7,3-1,3.6-.9,12.2-5.4,13,1,.6,5.1.7,2.7,2,6,2.4,6.4,4.7,13.5,7,20s5.3,14.9,8,22c.3.9-.2,3.3.4,5,17.2,43.5,68.5,24.5,56.6-19.5-.8-.7-2.7-4.4-3-4.5,3.5.2,1.4-.6.8-2.3-2.4-6.4-5.3-12.8-7.8-18.7-3.2-7.7-5-12.4-9-20s0-1.8-.6-2.9c-1.7-3.1-4.2-5.8-5.5-9.1-1.5,1.1-3.4,1.3-5,2,2-1.1,2.8-2.7,3-5,2-.8,4.2-1.7,6-3s1.8-.7,2-2h1c13,25.9,39.3,73.3,22.8,101.3-4.8,8.2-15.8,15.7-25.3,16.7-20,2-35.6-6.4-45-24l-34,18-3.5,30c0,.3,0,.7,0,1-.4,2.3-1.5,5.3-2,8s.1,1.4,0,2c-6.7,29.1-27.2,44-57.5,40.8-.6,0-.5-1.5-1.2-1.7-23.4-8-30.3-23.6-36.3-46.1-.9-3.5-1.4-15.2-5.5-16l-50.9-4c-1.8.5-1.3,8.4-1.6,10.1s.1,1.4,0,2c-.4,2.3-1.4,6.4-2,9-4.8,21.7-15.1,40.6-39.5,43-25,2.5-45.3-13.6-52.5-37s-1.5-6.7-2-9c-1.7-8.5-2.3-18.3-3-27-12.6-.4-23.9-2.1-33-11.5-2-2.1-9-11.6-9-14v-36.5c-23.2,11-50.5,25.8-75.9,12.4-14.1-7.4-21.7-25.9-19.1-41.4s4-10.2,5-12,4.3-6,6-8,1.8-1.4,3-3,1.1-1.1,1-2c3-.2,8.5-5.3,11-6s1.6,0,2,0ZM302.1,694.8c.7,6.2-.6,12.8,5,15-4.4,2.2-.8,8.6,1,11.5,9.5,16,37.4,19.2,51.1,7s7-9,7.5-10.5c.9-3,0-5.6.5-8,1-5.5,2.5-10.1,3-16s-.7-9.4,1-14l-69.4-5c-.8.1-.8,14.8-.6,16.6s1,3,1.1,3.4ZM526.1,699.8c1.1-8.2,1.3-16.7,1.5-25-7.9,3.2-15.2,8.9-23.1,11.9-14.9,5.5-33.7-.2-49.4,1.1.5,4,1.4,8,2,12s1.8,9.2,3,14c1.8,7.7,1,11,7.5,17,15.6,14.4,42.9,10.9,53.4-7.7s1-5.4,1.1-8.4,3.5-11.2,4-15Z" fill="#081223"/>
  <path d="M567.1,224.8c1.9.3,4.1.6,6,1,13.7,2.6,26.3,8.6,28,24,.2,2.2-.2,4.7,0,7,4.6,60.2,2.2,122,4,182.5-1.4,13.9-11.8,20.8-23,27l-1,3,1.5,33.7c.7,2.3,7.3,5.8,9.6,7.9,1.5,1.4,3.6,3.5,5,5,8.8,9.1,17.8,21.5,23,33-2.3-.3-4.9,1.2-7,2-1.7-2.2-2.7-5.9-6-6,.1-3.7-2.9-6.7-5-9.5-7.9-10.1-32.3-37.7-43.8-17.9-7.7,13.3-1,31,.9,44.4s-.1,2.7,0,4c-5.6-1.8-8.1,3.1-12,4-1-16.2-7-31.8-2.7-48.2,3.4-12.9,15.3-22.2,28.7-20.8l-1-27c-17.3,8-32.6,19.9-49.1,29.4-1.7,2.4-1,23.7-.9,28.6.1,13.4,1,26.6,1,40,2.1.5,2-.6,3-2l2,3c-1.9.3-4.7,2.9-5,3-2.3.6-9,0-12,0-1.7-18.6-.8-37.3-1-56s0-10,0-15h-14c-.1,4.3.2,8.7,0,13s-.7,22.3-1.5,24c-1.2,2.5-7.4,3-9.5,1h5.9c1-3.1,2.2-15.1.2-16.6l-8.1-.4v15c-2.7-5.8-.2-13.4,0-19h9s-.9-17.6-.9-17.6l-8.1-1.4c-.2,6,.3,12,0,18-2.2-3.1-.4-16.8-3.6-17.9l-55.4-4.1c.4-4.2-2.9-6.4-4-10,12.5,1,25,1,37.5,2,15.1,1.2,33.3,5.1,48,5.1,4.2,0,11.4-3.7,13.5-7.1h5l67-41.5c7.5-8.3,2.7-23.3,3-33.5-2.8-.6-3.2,1.2-5,3-3.2.6-4.9-2-8-2l1-4c.1,0,2.5.9,3,1,1.2.3.3,0,1,0s.8,0,1,0c3.1-1.2,3.1-1.3,5-4s3.6-6.2,4.1-7.4c2.7-8.2.9-38.9,0-49-.4-4.4-.9-4.5-3-7.5s.3-1.2-.7-2c-3.8-3.3-7.3-2.5-10.3,1l-1-.5c1.7-1.6,3.5-2.8,3-5.5-1.3,0-2.7-.9-4-1-.6-2.6,3.9-3.8,4-5l9,4c.2-2.6-.9-4.9-1-7.5-.8-21.2.4-44.1-1-65-.7-11-.8-19.7-14-14.5,5.5-2.9,1.2-13-3.5-13s-.2,14-9.5,11c.2-.1,1.1-1.3,2-2,1.7-1.3,4.8-.7,4.1-5.3-.2-.8-3.6-2.3-4.6-2.6-10.6-3.2-27.9-3.6-39.4-5.1l3.1-1.6-2.1-8.4c11.5,1.4,23,2.2,34.5,4s3.8-.2,5.5,0Z" fill="#0a172d"/>
  <path d="M731.1,399.8c1.2,3.2.4,4.8,4,7,1.1,14.7-.8,27.6-7,41-7.2,8-11.7,14.6-21.8,19.7-10.6,5.3-20.5,5.9-32.2,5.3,0-.3,0-.7,0-1-1.5-6.5-13.7-7.9-19-10-6.5-2.6-13.1-11.8-19-16-2.1-5.1-6.6-10.5-8.5-16-15-44.7,34.3-85.5,75.5-64.5,15.5,7.9,22.1,18.9,28,34.5ZM682.3,447.5c.6.3,2.1-.9,3.2-.7,9.8,1.9,32.2,10.3,33.7-5.6s-1.9-5.9-3.1-10c-4.6-15.9-9.7-38.6-16.7-53.2-3.6-7.5-10.8-12.5-18.7-7.3s-10.3,10-12.5,12.5c-7.7,8.7-22.7,27-28.4,36.6-4.4,7.2-2.6,14.1,5.2,17.7s26.5,6.3,36.5,8.3c.8.2.8,1.6.9,1.7Z" fill="#f7d7a1"/>
  <path d="M236.1,250.8l2,7c-3.4.6-5.8,3.8-8,6s-3,1.6-4.1,4.4c-3,7.9-1.9,24.2-2,33.1-.1,30.6-.2,61.7,0,92.5.2,19.9-1.1,43,1,62.5s10,16.6,19.6,18.4c21.7,4.1,53.3,4.2,76.4,6.1.2,4.3-5.3,4.5-4,10l-43-4v36c-1.7,0-3.3,0-5,0,.4-5.2-.3-10.8,0-16l-8-1v-1c2.2.8,3.6-1.8,4-2,1.1-.5,4,.9,4.9-1.6l-.3-14.4-9.6-1.9v10c-.5-2.7-1.8-5.6-1-9-2.6-.3-2.8,1.4-3,3.4-1.5,12.3,1.2,27.4,0,40l3.1.5v1l-4,22-8-2c-.2-.2-.9-1-1-1l1-25c-1.9-1.9-16.6,9.5-20,10l-2-9c0-.3.1-.7,0-1l21.5-12,.5-29c-1,0-2,0-3,0s-.7,0-1,0c-9.4-1.6-21-9-25-18s-2.9-8.5-3-9c-.2-.9.1-2,0-3-.4-3.2.3-6.8,0-10v-31c.5-1.1-1-2.8-1-3,0-14.1,1.4-28.6,1-43s0-4,0-6c-.1-3-.8-5.3-1-8s.2-6,0-9c1.8-6.4,1-14.3,1-21s0-4.7,0-7c0-3.3,0-6.7,0-10,.1-13.8-3.2-38.1,7.5-48s9-4.7,13.5-7ZM267.6,503.8v1c.6-.3.6-.7,0-1Z" fill="#081223"/>
  <path d="M288.1,699.8c-17.3,4.3-59.1,9.5-69.4,25.1s-1.2,12.2,5.5,17.3c17.4,13.1,70,21.5,92.6,24.4,3.7.5,27.3,3.1,28.4,2.1.6-2.8-1.2-4.2-3.7-4.8-7.8-1.8-21.5-2.4-29.9-3.1s-4.6-.7-10.6-2.4c-14.8-4.3-44.7-6.9-54.8-18.2-3.2-3.5-7.8-9.8-2.9-14s1.7-.3,2-.5c-2,6,0,10,4.5,14s7.8,5.8,8.2,6c9.8,4.4,42.2,10.9,54,12.8,42.5,7.1,86.8,7.5,129.7,6.2,40.8-1.3,84.3-3,123.5-14.5,56.6-16.6,14.4-33.9-16.5-40.5-1.8-.4-4,1.2-3.5-2,6.7.8,12.6,1.5,19.2,3.3s29.2,10,31.4,19.6c2.3,10.1-8.5,11-11.7,15.5-1.1,1.6-.7,4.1-1,4.4s-5.1,0-5.9,2.6l1.5,2.4c18.4-3.6,63.5-17.9,28.8-37.8-19.1-10.9-46-14.4-67.3-19.2,0-.3,0-.7,0-1,23,3.4,52.1,7.4,72.3,19.2,30.5,17.7,3.1,30.4-16.6,37.1-46.2,15.8-102.7,18.4-151.3,19.7-63.2,1.7-143.2-.7-203.7-20.2s-43-15.8-24.3-32.7c12.2-11,49.5-19.6,66.3-21.8,1.6-.2,4.2-1.1,5.2.7Z" fill="#edefef"/>
  <path d="M370.1,194.8c13.1.6,26,4,39,2v-47.5c-17.3-8.4-19.1-32.4-1-41,28.7-13.7,49.6,26.8,21,41.2l2,47.3c16.4.1,40.9,1,52.5,14,2,2.3.5,4.1,5.5,4.9-.7,0-2.4,1.6-3.9,1l.9,7.3c.8,1.4,3.6.4,5.1.6v1c-1.6-.2-3.4.1-5,0,0,2.3,0,4.7,0,7-.1,3.7.7,10.2-.2,13.3-1.9,6.6-24.9,11.3-31.4,12.6s-8.2-1.7-7.4,5.1c-5.7.5-12.2-.1-18,0,.1-2.8-2.6-3.4-4.7-3.8-7.8-1.4-18.8-.3-27.6-1.4-6.8-.9-25.3-4.5-30.2-8.8s-2.2-4.1-2.5-7c-.5-6.3.5-13.2,0-19.5s.5-2.6-3-2.5c4.7-2.9,2.4-12.4,11-13-5.5,3.4-.2,4.7,0,5s-.2,1.7,0,2l-2,.7c-.2,1.4,0,2.9,0,4.3-.3,8.2-.2,16.8.5,25,2.6,4.2,32.1,8.7,38,9,15.3.9,58,.1,69.9-9.1s.7-8.7.6-12.4.2-9,0-13.5c-14,10.1-34.3,9.5-51,10l-4-2c5.3,0,10.7-.4,16-1s9.2-1.6,15-3,3.1,0,5-.5c9.9-2.8,25.8-8.2,7.5-14.6-4.6-1.6-33.4-7.1-35.5-5,1.4,11,3.2,16.2-10.4,16-12.1-.2-12.4-5.3-11.5-16-.4-.4-9.8.5-11,1,.4-4.5-8-.8-9.6-.1s-3.6.2-3.4,3.1c-.9.2-4.9,1.6-6,2-1.8-1.6-3.5-2.2-6-2v-1l-4-1.5,5.9-2.6c.4-.5.2-2.6,0-3.3-1.2-3.3-6.6.4-5.9-3.6ZM402.1,129.8c0,2.2.9,2.6,1,3s0,.7,0,1c8.8,25.6,48.9,1.5,27-17s-28.5-2.1-28,13ZM415.1,150.8v63c3.8.6,7.2,1.9,10.9-.1l-3.9-62.8h-7ZM443.1,259.8c-.6-.1-13.5-.7-10,2,.6.1,13.5.7,10-2Z" fill="#081223"/>
  <path d="M370.1,194.8c-.7,4,4.7.3,5.9,3.6s.4,2.8,0,3.3l-5.9,2.6,4,1.5c-6.2-.9-11.1,1.6-16.7,3.8-15.5,6.2-31.3,14.5-46.7,21.3s-33,13.4-48.7,21.3c0,1,1.6.2,2,.5,7.7,4.7,11.8,5,21,6,62.5,6.7,125.8,11.8,188.5,17,4.1.3,23.7,3.5,25.5,2.5s.6-1.1,1-1.5c4.1,1.4,5.4.6,9-1l2.6,5.9,10.4-3.9c-1.2.8-5.1,3.2-5.6,4-.8,1.5.6,2.9.6,4,0,1.5-.5,2.5-2,3-.9-1-8-5.2-9.6-5.9-42.8-6.5-86.6-10-129.9-14.1-5.4-.5-11.9.7-17.1,0s-1-1.9-2.9-2.2c-27.3-3.3-58.6-5.9-86.1-7.9s-24.3-2.4-31.5-1l-2-7c39.9-20.1,82.9-37.4,124-55l3.4,1.1.6-2.1c2,0,4,0,6,0Z" fill="#0a172d"/>
  <path d="M567.1,224.8c-16.6-35.4,2.3-74.2,39.8-83.7,77.2-19.7,124.2,91.9,41.4,119.4-3.3,1.1-7.1.9-10,2s-19.5,17.7-22.3,15.2c2.2-2.9-1.5-16-3.2-17.8s-9.5-3.7-11.8-3.2c-.2-2.3.2-4.8,0-7l15.8,6.2c1.8,3.9,2.3,8.1,3.3,12.2s-.8,1.8,1.5,1.5c3.7-2.3,10.5-10.9,13.6-12.4s11.1-1.4,16.6-3.4c49.5-18,41.7-85.2-3.3-104s-86.6,11.4-81.3,57.3c.8,6.4,4.4,12.4,5.9,18.6-1.9-.4-4.1-.7-6-1Z" fill="#5b85b9"/>
  <path d="M289.1,699.8c.5,2.3,1.4,7.1,2,9-17.4,3.2-31.7,6.3-46,17-.3.2-1.4,0-2,.5-4.9,4.2-.2,10.5,2.9,14,10.1,11.3,40,13.8,54.8,18.2s3.5,1.9,10.6,2.4,22.1,1.4,29.9,3.1,4.3,2,3.7,4.8c-1,1-24.7-1.7-28.4-2.1-22.6-2.9-75.2-11.3-92.6-24.4-6.8-5.1-10.9-9.2-5.5-17.3,10.4-15.5,52.1-20.7,69.4-25.1h1Z" fill="#faf8fb"/>
  <path d="M149.1,581.8l-13.1-9.4c-3.3-1.4-12.8-6.6-14.3-9.6s-.4-4.5-1.5-6.3-5.5-3.1-6.7-8.4c-2.6-11.4-6.8-13.5-11.7-23.4s-3.7-13.1-8.5-18.5v-1.3c4.2-.2,8.4-5.9,6.4-10-4.3-5.1-8.4-2.4-13.5-1,.1-4.3-4.3-5.8-6.2-9.3s-5.8-12.6-6.3-14.7c-1.7-7.7-.5-17.3,0-25-8.2-3.9-22.1-11.3-28-18.1-21.7-25-16.5-59,9.9-77.9,6.6-4.7,10.9-5.5,17.6-7.4s3.3-1.8,2.9,1.4c-18.1,4-33.5,17.4-37.9,35.6s2.3,43.6,23.6,57.2c5.8,3.7,12.6,4.9,17.8,9.2-.6,16.3,2.9,30,11,44h10.5c1.8,1.6,1.5,2.3,2,3,1.7,4.2-2.3,11.4-1.8,14.3s3.9,5.1,5.1,8,.9,6.7,1.8,8.9,6.8,4.1,6,8.8l5.9-2c1.6,1.4,1.1.7,3,3l-1,7c.6.2,1.7-.2,2,0,1.1.6,1.9,1.9,2,2,.6,1.9-.8,4.2-.8,5.7,0,3.2,9.7,8.3,12.8,9.3-6.6,8.2-2.4,9.1,5,11,3.6.9,7.2,2.2,11,2-1,1.8-4.7,10.4-5,12Z" fill="#fcf8ef"/>
  <path d="M472.9,44c5.3-1.2,11.7,2.7,16.2,5.4,30.8,18.7,48.6,64.7,36.1,99-4,11-12.7,13.2-17.8,1.8,10.6-30.3,4.3-61.7-20.8-82.3-3.5-2.9-17.4-10.1-18.4-11.6-2.6-4,0-11.1,4.6-12.2ZM519.1,113.8c0,0-1.7-.4-2,.7-.9,3.3.4,10.7,0,14.8s-4,15.2-3.9,19.1,2.4,2.5,4.5,2.5,1.1-.2,1.5-1.5c3.1-9.6,5.5-22,3.9-32s-1.9-3.3-2-3.5c-.3-2.2.3-4.7-.3-7.2-5.5-24.9-21.4-46.9-45.2-56.8-1.4.9-.5,2.6.5,3.5,2.2,2.1,9.1,5.3,12.3,7.7,12.6,9.6,22.7,24.2,27.7,39.3s3.6,12.6,3,13.5Z" fill="#f0973a"/>
  <path d="M327.1,80.8c-2.6,5.5-5.8,11.6-6.9,17.6s.8,1.9,1.9.9,5.1-13.4,6.6-16.4,4.7-7.5,7.4-11.1l6,1c-10.7,13.7-16.3,36.4-15,53.5.6,7.7,9.8,27.6-3.5,27.5s-8.3-5.9-9.8-11.3c-6.8-24.4-1.9-49.9,11.3-70.8l2,9Z" fill="#f4b43f"/>
  <path d="M378.8,73.1c2.3,1.9,3,6.9,1.8,9.7s-10.3,6.9-13.5,10.5c-10.3,11.9-13.4,28.7-8.7,43.7,1.9,6.2,9.9,13.6,3.2,18.8-8.6,6.6-16.2-8.3-18.2-14.8-4.9-15.6-2.8-34.9,5.5-48.9,4.1-7,21-26.2,29.9-19ZM348.1,114.8c-.9,6-1.5,11-.7,17.2s4.8,18,9.2,18.8-1.4-4.9-1.9-6.1c-2.5-5.9-6.6-24-5.6-29.9,1.7-9.8,10.1-22.4,17.5-29s8.9-3.8,7-8c-15.7,6.5-23.1,20.9-25.5,37Z" fill="#f4b43f"/>
  <path d="M737.1,397.8c-12.7-42-63.2-60.6-97.5-31-2.7,2.3-9.1,11.4-9.7,11.7-3.5,1.9-4.6-.2-3.2-3.7,5.2-13,31.7-25.5,45.1-26.9,31-3.2,66.3,19.3,70.3,51.5s-.2,2.4-2.9,2.4c0-.2-1.2-1.5-2-4Z" fill="#ee8630"/>
  <path d="M498.1,119.8l-6,1c.4-2.6-1.4-4.9-2-7-4.2-14.4-7.4-26-22.5-33-1.2-.4-2.1.4-1.5,1.5s8.9,6.7,11,9c5.3,5.7,10.8,14.5,11,22.5-1.1.3-2.3,1.4-3.9,1.1-.3,2.8,0,5.7,0,8.5s1,4-2,3.5c.9-14.7-2.1-24.5-13-34.5s-11.7-5.6-9.6-12.5c4.2-14,21.1,1.1,26,7.1,7.7,9.3,12.4,20.8,12.6,32.9Z" fill="#f0973a"/>
  <path d="M342.1,72.8l-6-1c9.3-12.5,19.1-19.6,33-26.5.5-2.4-2-1.6-3.3-1.3-16.4,4.4-31.7,22.1-38.7,36.8l-2-9c7.8-12.3,18.7-24.7,32.3-31.2,5.4-2.6,14.9-6.5,18.1,1.2,4.2,9.8-11.6,12.9-18.4,17.6s-12.5,10.1-15.1,13.4Z" fill="#f0973a"/>
  <path d="M78.1,342.8c1.2-.2,2.8,0,4,0s1.3,0,2,0c6,.5,16.7,2.3,22.6,3.9s3.5.2,3.4,3.1c-3.7-1.1-5.4,0-7,0s-2,0-3,0v-1.8c-.1,0-4.5-1.2-4.5-1.2l-.5,2c-.7,0-1.3,0-2,0v-3s-6,0-6,0v2c-1.6,0-3.4-.1-5,0-.5-.8-1.3-.7-2-1-6.1-2.3-13.6,2-19.2,5.1-6.1,3.4-11.4,8.7-15.2,15s-3.3,6.3-2.6,8.9-.1,1.4,0,2h-1.8c0,.1-1.1,6-1.1,6h2c0,.7,0,1.3,0,2-5.1-1.3-4.2,8.7-3.9,11.4s3.3,15.7,5.3,17.7,2.5.8,2.6.9c4.9,6.4,4.2,9.4,13,13s.7.6,1,1-.4,1.3.6,2.1c6.9,4.8,14.9,7.4,21.9,11.9-.3,16,5.8,28.3,10.6,42.9,4.3,0,4.9-.7,7.9,2.1h-10.5c-8.2-14-11.6-27.7-11-44-5.2-4.2-12-5.4-17.8-9.2-21.3-13.6-29.7-32-23.6-57.2s19.8-31.6,37.9-35.6,1.4,0,2,0Z" fill="#f7e8cd"/>
  <path d="M383.9,100.9c4.1-.9,7.7,2.2,7.3,6.3s-5.2,5.8-6.9,8.2c-3.5,5.1-4,10.5-2.9,16.6s7.9,11.4,1.7,14.2c-10.3,4.7-15.4-14.6-15-21.9.4-7.6,7.9-21.7,15.7-23.4Z" fill="#f4b43f"/>
  <path d="M490.1,113.8c.6,2.1,2.4,4.4,2,7l6-1c.1,7.2-1,14.3-3.5,21-2.4,6.4-9.5,18.6-17.5,12.5-7.3-5.6,2.2-12.7,4-18.9s.8-4.6.9-7.6c3,.6,1.9-1.5,2-3.5,0-2.8-.2-5.7,0-8.5,1.6.4,2.8-.8,3.9-1.1s1.4.1,2,0Z" fill="#f4b43f"/>
  <path d="M726.1,276.8c1.6,2.3-5.8,4.1-7.3,5.1-4.6,3-7.7,9.6-8.7,14.8-1.8.4-2-.5-2.8-1.7-2.3-3-3.3-7.8-6.5-11s-6.5-3.7-9.6-5.9c7.9-5,14.6-11.1,17-20.5,2.1-1.6,6.9,10.1,8.5,12,2.2,2.8,6,6,9.5,7Z" fill="#eb7222"/>
  <path d="M108.1,259.8c-18.6-12.6-19.9-40-8.9-58.4,12-19.9,39.6-28.5,61.1-19.5,1.3.5,5.5,5.3,6.8,6.4s2.7.3,3.7.8c2.6,1.5,13.1,15.7,14.3,19.2s1.4,8.3,1.9,12.6h-2c1.4-3.6-1.6-5.1-2-6-6.1-14.2-11.7-22.8-26-30s-.4-1.3-1.7-1.7c-3-1-4.5-.2-6.3-.3s-1.3,0-2,0c.6-3-1.5-1.9-3.5-2s-4.1,0-6.1,0-4-1-3.5,2c-.7,0-1.4,0-2,0-4.4-2.2-14.6,2.3-16,7-.7.3-1.2.5-2,1-6.9,4.3-10.6,8.7-14.4,16.1s-2.8,3.2-.6,3.9c-.3.5-.5,1.2-1,2-5.8,9.1-2.8,24.3,1.5,34s2.1,3.6,5.5,6,1.1,2.5,3,2c-1.2,1.6-.6,3.3,0,5Z" fill="#fcf8ef"/>
  <path d="M455.8,99c3.6-.3,10.4,8.6,11.8,11.8,3.8,8.4,4,24.9-4.4,30.5s-9.5,1.3-9.9-3.2,6.8-8.5,5.8-17.8-9.1-12.5-9-16,3.8-5.1,5.6-5.3Z" fill="#f4b43f"/>
  <path d="M718.1,472.8c-7.8,5.1-11.5,7.5-21,10,.2-2.2.5-2.9-1.9-3.5-5.8-1.6-14.4-.8-20.5-3.4-1.2-.7-.3-2.3-.6-3.1,11.7.6,21.6,0,32.2-5.3,10.1-5.1,14.6-11.7,21.8-19.7.1-.1,1.3,0,3-2,1.5,1.1-1.2,6.7-1.8,7.7-2.6,4.4-7.5,11.7-10.5,15.5s-3.4,2.4-.7,3.8Z" fill="#fcf8ef"/>
  <path d="M187.1,223.8c0,.1,1.9.5,1.8,2.3-.3,11.4-7.5,27.7-13.8,37s-5.2,2.6-4.9,6.1c2.2,1.7,5,5.7,6.9,7.1,3.2,2.4,7,3.2,10,6.1,5.3,5.1,8,17,12.5,19.5s11.8,2.8,15.6,3.9c0,3.3,0,6.7,0,10h-1c-1.7-.7-.7-3-1-4s-.7-1.6-1.6-1.9c-.7-.1-1.3.9-1.4.9-1.2-.2-2.1-.8-3-1,0-4-6.6-3.4-9-4.5-5.9-2.8-8.8-13.3-12.1-17.9s-7.7-6.9-10.4-8.5c-5.3-3.1-11.3-2.3-11.6-11,2.4-3.2,2.4-3.9,6-7,9.7-8.3,13.3-18.1,15.8-30.7s1.2-3.8-1.8-3.3c0-1,0-2,0-3h3Z" fill="#fcf8ef"/>
  <path d="M152.1,257.8v1c-1.8,2.5-.3,6.6,0,10-.6-1-1.3-2-2-3s.4-1.7-.6-2.1l-23.4-1.9c0,.7,0,1.3,0,2,0,1.7,0,3.3,0,5s0,1.3,0,2c-.2,11.1,1.2,29.3,4,40l-1,1c-1.9-7.9-4.4-17.4-5-25.5s.9-16,0-23-.8-3.1-2-1.5c-.9,19.2,1,37.5,6,56-.3-.1-.8.1-1,0-.7-.5-1.9-.9-2-1s-.9-2.6-1-3c-2.3-8.6-3.4-20.1-4-29s-.5-12.1-1-18,0-1.4,0-2,0-1.4,0-2c-.7-4.3-.6-3.3-3-7s-.3-1.5-1-2.5c-1.8-2.6-8.2-5.2-2-6.5,8,11,26.5,14.7,39,11Z" fill="#ee8630"/>
  <path d="M153.1,270.8l-1,1c-.1-1,0-2,0-3,.4.7.7,1.4,1,2Z" fill="#ee8630"/>
  <path d="M718.1,472.8c12.6-8.2,21.5-16.2,27.4-31.1s.3-9.1,4.1-9.9,2.1,6.7,1.4,8.2c-4.9,10.5-9.9,21.1-19.4,29.8-11,10.1-27.6,17.5-42.5,18v-4c2.7,0,5.5-.4,8-1,9.5-2.5,13.2-4.9,21-10Z" fill="#ee8630"/>
  <path d="M527.1,220.8l2.1,8.4-3.1,1.6c-.3,0-.7,0-1,0s-.3-.9-1-1-.7,0-1,0c-3.8-2.4-8.8-1.7-13-2s-.7,0-1,0c-5.8-1.5-12-2.1-18-3s-4.3.8-5.1-.6l-.9-7.3c1.5.6,3.2-.9,3.9-1,10.4-1.4,27.2,3.7,38,5Z" fill="#0a1d3a"/>
  <path d="M125.1,316.8c.3,2.9-3.4,3.1-4.5,5s-.2,2.2-.5,3c-1.1.4-4-.8-5,1.6-3.5,9.5,2.9,13.4,7.1,20.7s5.7,9.9,4.8,10.7c-5.6,1.3-7-5-12-5-1.8-1.7-2.5-2.3-5-3,0-2.9-1.4-2.5-3.4-3.1-5.8-1.6-16.6-3.4-22.6-3.9-.6-3,1.5-1.9,3.5-2,10-.3,17.1,3.3,26.5,5-1.1-8.9-4.6-17,1.5-25s5.8-4.3,8.5-7c.1.4.9,2.9,1,3Z" fill="#fcf8ef"/>
  <path d="M660.9,519c13.1-1.9,20.1,15.5,9.2,23.2-17.3,12.1-30-20.2-9.2-23.2ZM659.8,524c-8.3,1.9-5.5,17.3,4.3,15.4s7.5-18.1-4.3-15.4Z" fill="#eb7222"/>
  <path d="M667.8,319.4c-10.2,10-26.7-5.7-16.3-16.3,10.9-11.2,28.1,4.8,16.3,16.3ZM657.9,303.9c-8.4,1.7-4.6,16.3,4.5,13.6,6.9-2,5.4-15.7-4.5-13.6Z" fill="#ee8630"/>
  <path d="M652.1,466.8c-.3,0-.8,1.1-2.4,1-10.4-.7-33-29.2-30.6-41h3.9c1.7,10.3,7.3,18.6,14.1,26s9.9,8.9,15,14Z" fill="#ee8630"/>
  <path d="M736.8,337.1c8.3,8.9-3.7,24.5-14.6,15.1-10.5-9.1,4.8-25.7,14.6-15.1ZM728.8,338c-8.1.2-7.3,13.2.7,12.7s6.2-12.9-.7-12.7Z" fill="#f0973a"/>
  <path d="M622.1,549.8c4.5-.9,20.9-13.7,23.9-11.9l2,6.7c-7.5,3.5-14.3,10.5-22.9,11.1h-1l-2-4c0-.3,0-.7,0-1v-1Z" fill="#5b85b9"/>
  <path d="M592.1,510.8c11.4-.5,22.4-4.1,32.7-8.8,1.8-.8,8.1-5.5,9.3-4.2,2.6,2.8-3.7,5.9-5.6,6.9-10,5.1-20.8,7.5-31.4,11.1-1.4-1.5-3.5-3.6-5-5Z" fill="#ee8630"/>
  <path d="M676.1,312.8c12,.8,31.2,8.2,39.9,16.6,2.5,2.4,2.8,5.1-1,4s-12.2-8.4-16.6-10.4-16.7-4.4-20.3-6.7-2.4-1.7-2.1-3.4Z" fill="#5babd1"/>
  <path d="M674.1,471.8c-.6.1-1.5-.2-2,0l-1,1c-5.3,2.1-8.7,5.5-14,7l1.8-12.9c-.6-.4-1.5,0-1.8-.1l-1-1c-.3,0-.7,0-1,0v-4c5.3,2.1,17.5,3.5,19,10Z" fill="#eb7222"/>
  <path d="M608.5,477.4c1.3,1.3,5.4,2,4.7,3.8s-7.7,5.2-8.5,8.5h-1.5c-1.1-3.7-5.1-7.4-9-8l.7-2c4.1-.7,7.4-4,8.3-8,2-1.4,4.2,4.5,5.3,5.7Z" fill="#5babd1"/>
  <path d="M755.1,399.8h-4c.9-11-4.2-21.2-5-32,4.5.4,5.7,7.2,6.7,10.8,1.9,6.9,2.7,14.1,2.3,21.2Z" fill="#5babd1"/>
  <path d="M615.1,329.8c-.4-2,.2-2.7,1.5-4,2.7-2.9,20.2-12.2,24.3-12.8,5-.7,5.9,3,1,4.1l-26.8,12.7Z" fill="#5babd1"/>
  <path d="M655.1,461.8v4c-.5,0-2,.8-3,1-5.1-5.1-10-8.5-15-14l1-.5c-1.3-1.8-1.3-4.9-2-6.5,5.9,4.2,12.5,13.4,19,16Z" fill="#fcf8ef"/>
  <path d="M738.1,407.8c-.3,6.8,0,14.1,0,21-3,2.7-3.4,9-5,13-.3.5-1.8,3.8-2,4-1.7,2-2.9,1.9-3,2,6.2-13.4,8.1-26.3,7-41,.6.4,2.2.3,3,1Z" fill="#f7e8cd"/>
  <path d="M692.1,496.8c2.7,2.6-9.1,21.3-11.9,23.6s-2.1,1.8-4.1,1.4c-1.9-1.9,13.8-19.5,12.9-24.4l3.1-.6Z" fill="#5babd1"/>
  <path d="M620.1,548.8c.1,0,1.1,1.3,2,1v1c-7,2-13,5.9-19.3,9.2s-3.4,2.6-3.7.8c2.2-1.4,4.6-1.6,4-5,3.2-1.4,6.8-3.7,10-5s4.7-2.3,7-2Z" fill="#f7d7a1"/>
  <path d="M649.1,486.8c1.8,1.7-7.7,9.8-9,10.5-2.5,1.3-4.3-1.4-1.4-4.4s8.5-7.9,10.4-6.1Z" fill="#f0973a"/>
  <path d="M737.1,397.8c.8,2.5,1.9,3.8,2,4,.8,2.7-1,4.9-1,6-.8-.7-2.4-.6-3-1-3.6-2.2-2.8-3.8-4-7l6-2Z" fill="#fcf8ef"/>
  <path d="M738.1,428.8c0,.2,1,.8,1,1.6,0,1.6-3,9.1-4,10.7s-2,.6-2,.7c1.6-4,2-10.3,5-13Z" fill="#fcf8ef"/>
  <path d="M120.1,284.8c-2.1-5.6-2.1-12.1-2-18h1c.5,5.9.6,11.9,1,18Z" fill="#f4b43f"/>
  <path d="M112.1,260.8c2.3.8,3.5,3.4,5,5-2.7,1.3-6.4,0-7.8-2.3s0-2.2-.2-2.7c.9.2,2.3-.2,3,0Z" fill="#fcf8ef"/>
  <path d="M183.1,214.8c.4.9,3.4,2.4,2,6h2c.1.9-.2,2.1,0,3h-3c0-1.8-2-6.1-1-9Z" fill="#f7e8cd"/>
  <path d="M112.1,257.8v3c-.7-.2-2.1.2-3,0-.3-.8-.5-.7-1-1-.6-1.7-1.2-3.4,0-5h1c.4.5,2.2,2.2,3,3Z" fill="#f7e8cd"/>
  <path d="M82.1,342.8c-1.2,0-2.8-.2-4,0-.1-1.4.9-3.4,2.5-3l1.5,3Z" fill="#fcf8ef"/>
  <path d="M364.1,194.8l-.6,2.1-3.4-1.1c.7-1.5,2.7-1,4-1Z" fill="#081223"/>
  <path d="M119.1,266.8h-1c-.4-.3-.7-.7-1-1,.7-.3,1.3-.7,2-1,0,.6,0,1.3,0,2Z" fill="#f7e8cd"/>
  <path d="M671.1,472.8l1-1c-.2,0-.5.8-1,1Z" fill="#f7d7a1"/>
  <path d="M657.1,466.8c-.4-.2-.8-1-1-1l1,1Z" fill="#fcf8ef"/>
  <path d="M443.1,701.8c6,22.5,12.8,38.1,36.3,46.1.7.3.6,1.7,1.2,1.7,30.3,3.2,50.8-11.7,57.5-40.8l5-1c.6,0,1.3,0,2,0-.6,3.2,1.6,1.6,3.5,2,31,6.6,73.2,23.9,16.5,40.5-39.3,11.5-82.8,13.2-123.5,14.5-42.9,1.3-87.2.8-129.7-6.2-11.8-2-44.2-8.4-54-12.8s-7.5-5.3-8.2-6c-4.6-4-6.5-7.9-4.5-14,14.3-10.7,28.6-13.8,46-17,7.2,23.4,27.4,39.5,52.5,37,24.4-2.4,34.7-21.3,39.5-43l60-1Z" fill="#a8bfc6"/>
  <path d="M510.1,644.8c.2,7.8,2.1,15.9-1.4,23.1s-11.8,12.7-18.2,12.8c-50.4-3.8-100.6-9.5-150.9-13.9-17.7-1.5-53.9-.6-68.8-6.2-18.8-7.1-16.9-22-16.7-38.8l28,2.5c11.1,9.1,16.1,24.4,29.7,30.3,36,1.7,71.9,7.6,107.8,10.2,5,.4,12.2,1.1,17,1.1,13.8,0,24.4-17.3,35.2-23.9l38.3,2.8Z" fill="#203257"/>
  <path d="M261.1,606.8c6.6.5,13.3,1.9,20,2,7.3,1.7,7.4,10,12.5,15,2.9,2.9,6,2.3,8.5,6s-.1.7,0,1,.7.7,1,1c3.1,4.1,6.4,8.5,11.8,9.7l123.8,10.3c9.8-.9,22-19.2,30.1-24.9,5.2-.2,10.6-.5,15.8-.2,5.9.4,18.1,1.6,23.5,3s1.4-.1,2,0c.1,5-.1,10,0,15l-38.3-2.8c-10.8,6.6-21.4,23.9-35.2,23.9-4.7,0-11.9-.7-17-1.1-35.9-2.6-71.8-8.5-107.8-10.2-13.6-5.9-18.7-21.2-29.7-30.3l-28-2.5c0-5,0-10,0-15,2.3.1,4.7-.2,7,0Z" fill="#ee8630"/>
  <path d="M511.1,594.8c-1.5,10.4-.2,21.2-.9,31.6s-.2,2.5-2.1,3.4c-5.4-1.4-17.6-2.6-23.5-3-5.2-.3-10.6,0-15.8.2-8.2,5.7-20.4,24-30.1,24.9l-123.8-10.3c-5.4-1.2-8.7-5.6-11.8-9.7s-.7-.7-1-1c-.1-.3.1-.8,0-1-1-4.6,2.8-2.4,5.7-3.8s4.5-3.9,6.3-6.2,1.8-.7,2-1c5.3,2.6,8.6,7.8,13.1,11.4,15.7,12.4,35.6,15.9,55.4,16.6,10.2.3,16-1.3,24.9-6.2l22.6-19.9c.2,1.5,1.6,2.9,2,4s-.2,2.3.5,3.9c1.8,3.8,9.3,8.1,13.5,8.7,5.2.7,12.4-3.8,13.1-9,1.4-10.7-1.6-16.5-10.1-22.6s-.7-1.7-2-2c0-3.8,3.2-2.9,1-8,21.5-1,39.1-1.5,61-1Z" fill="#203257"/>
  <path d="M135.1,426.8c-1.1-.3-6.7-1.3-7-1l-1,19.5c1.1,5.5,12.3,7.1,6,17.1s-4.7,3.2-6,4.5h-8c-4.2-3.2-6.7-11.4-12-12-2.3-5.8-2.1-12.4-9.5-11-3.3.6-2.5,2.5-2.1,5s4.9,14.2,6.6,18c-3,0-3.1-.8-3,2.5.2,7.7,8.6,14.3,11,21.5s1.3,7.6,2.3,11.2,1.3,6.4,3.7,5.8c.3,3.7.9,11.1,2,14.3s2.5.9,4,2.7c6,6.9,12.6,5.8,21,9.5,5.8,2.5,11.9,7.2,18,10,4.6,2.1,10.4,2,14,6.5-2.5.7-8,5.8-11,6s-.7,0-1,0c-2.7-.2-16.6-4.5-19.7-5.8-5.4-2.2-11.2-6.4-17.3-9.2s-.9-1.4-2-2l1.1-6.4c-.2-1.1-2-.4-2.1-.6-1.9-2.3-1.4-1.6-3-3-5.3-4.7-5.4-4.3-4.4-12-5.5-2.9-6.1-2.4-8.6-8.5-3.1-7.6-.6-11.5-2-16.8s-1.9-.5-2-.7c-.5-.7-.2-1.4-2-3-3-2.8-3.6-2-7.9-2.1-4.8-14.6-10.8-26.9-10.6-42.9-7-4.5-15-7.1-21.9-11.9s-.5-1.9-.6-2.1c1.3.3,2.7.7,4,1s2.7.6,4,1v2c.7,0,1.4,0,2,0,1,.1,2.1-.2,3,0-.6,2.7,1.4,1.9,3,2.5,4.2,1.5,8.3,3.2,12.5,4.4,3.6-2.4,13.8-3.1,16.3-5.1s.7-2.9,1.2-3.7,2.4-3.5,3-4,1.7.2,2,0l1-1c1.2-.8,3.8-1.8,4-2h2s0-2,0-2c.3,0,.7,0,1,0,8.4-2.7,9.4-3.2,16,4ZM120.8,450c-7.6,2.3-3.7,18.9,7.3,14.3,8.6-3.6,2.3-17.1-7.3-14.3Z" fill="#f7d7a1"/>
  <path d="M640.1,616.8c.2.1,2.2,3.8,3,4.5,11.9,44-39.4,63.1-56.6,19.5-.7-1.7,0-4.1-.4-5,10.4-10.4,25.9-17.5,40.6-18.9,2-.2,12.4-.6,13.4-.1Z" fill="#1d2f4f"/>
  <path d="M264.1,575.8c9.7,2,19.4,4.1,28.9,6.6,3.1,1.8,5,11.9,6.3,13.2s4.1.2,4.7,5.8c1.3.7,2.7.5,4.1.4,0,1.7-1.2,2.7-2,4-1.4,2.3-2.7,4.7-4,7s-1.4,4.7-3,5.5-4,.2-4-1v-15.5c-4.5-1.6-6.4,6.4-7.2,6.8s-5.2.2-6.8.2c-6.7,0-13.4-1.5-20-2l-6.1-1.6-.9-31.4c3.3.7,6.7,1.3,10,2Z" fill="#203257"/>
  <path d="M302.1,694.8c0-.4-.9-1.6-1.1-3.4s-.2-16.5.6-16.6l69.4,5c-1.7,4.6-.6,9.3-1,14-21.8,5.9-45.9,5.3-68,1Z" fill="#1d2f4f"/>
  <path d="M633.1,595.8c2.5,6,5.3,12.3,7.8,18.7s2.7,2.5-.8,2.3c-1-.4-11.3,0-13.4.1-14.7,1.4-30.2,8.5-40.6,18.9-2.7-7.1-5.4-14.5-8-22,3.8-.7,7.1-6.1,10-8s6.5-3.3,8-4c11.6-5.4,24.2-6.8,37-6Z" fill="#eb7222"/>
  <path d="M540.1,698.8c21.3,4.8,48.2,8.3,67.3,19.2,34.7,19.8-10.4,34.2-28.8,37.8l-1.5-2.4c.8-2.7,5.4-2.2,5.9-2.6s0-2.9,1-4.4c3.1-4.5,14-5.4,11.7-15.5-2.2-9.7-22.6-17.2-31.4-19.6s-12.5-2.5-19.2-3.3c-.7,0-1.4,0-2,0s-3.1-2-5-1c.5-2.7,1.6-5.7,2-8Z" fill="#faf8fb"/>
  <path d="M173.1,564.8c11.2,15.3,18.2,33.8,17,53-31.9,3.5-41.5-32.9-20.5-52.1,1.2-1.1,3.2-.7,3.5-.9Z" fill="#1d2f4f"/>
  <path d="M367.1,709.8c-.5,2.4.4,5.1-.5,8s-6.2,9.3-7.5,10.5c-13.7,12.2-41.6,9-51.1-7-1.8-3-5.3-9.4-1-11.5,8.4,3.3,27.3,3.6,36.5,3,7.8-.4,15.7-2.4,23.5-3Z" fill="#1d2f4f"/>
  <path d="M457.1,699.8c-.6-4-1.5-8-2-12,15.6-1.4,34.5,4.4,49.4-1.1,7.9-3,15.2-8.7,23.1-11.9-.2,8.3-.4,16.8-1.5,25-23.3,5.2-45.7,5.1-69,0Z" fill="#1d2f4f"/>
  <path d="M522.1,714.8c-.1,2.9,1.6,3.6-1.1,8.4-10.5,18.6-37.8,22.1-53.4,7.7-6.5-6-5.6-9.4-7.5-17l29.5,4c11,0,21.7-1.8,32.5-3Z" fill="#203257"/>
  <path d="M188.1,556.8c11.1,12.2,18.3,34.6,18,51,0,2.1.6,4.9-1,6.5s-11.6,3.1-15,3.5c1.2-19.2-5.8-37.7-17-53,.2-.1.4-2.3,1.9-3.5s9.1-6.9,11.4-6.4,1.2,1.4,1.6,1.9Z" fill="#ee8630"/>
  <path d="M370.1,693.8c-.5,5.9-2,10.5-3,16-7.7.7-15.7,2.6-23.5,3-9.2.5-28.2.3-36.5-3-5.6-2.2-4.3-8.8-5-15,22.1,4.3,46.2,4.9,68-1Z" fill="#ee8630"/>
  <path d="M526.1,699.8c-.5,3.8-3.9,13.6-4,15-10.8,1.2-21.6,3.1-32.5,3l-29.5-4c-1.2-4.8-2.2-8.9-3-14,23.3,5.1,45.7,5.2,69,0Z" fill="#ee8630"/>
  <path d="M443.1,701.8l-60,1c.6-2.6,1.6-6.7,2-9,16.1-.5,32.4.6,48.5,0,1.3,0,4.2.8,3.5-1.5l-52-.5c.3-1.7-.2-9.6,1.6-10.1l50.9,4c4.1.8,4.6,12.5,5.5,16Z" fill="#faf8fb"/>
  <path d="M565.1,624.8c1.5,3.9,5.8,10.8,6.6,14s.5,1.7-.5,2.5l-44.6,23.4c-2,.3-1.3,0-1.5-1.5-.7-5.5,0-13.6,0-19.5l40-19Z" fill="#203257"/>
  <path d="M553.1,587.8c1.4,5.3,3.1,10.5,4.8,15.8s0,3.3.2,4.2l-33,16c-.2-10-1.5-20-1-30,9.7-1.2,19.5-3.7,29-6Z" fill="#203257"/>
  <path d="M565.1,624.8l-40,19c0-6.7.1-13.4,0-20l33-16c1.4,4.2,5,12,7,17Z" fill="#ee8630"/>
  <path d="M624.1,575.8c4,7.6,5.8,12.3,9,20-12.8-.8-25.4.6-37,6l-4-19c.2,0,.9-1.4,2.4-2,9.5-3.8,19.3-5.7,29.6-5Z" fill="#f7e8cd"/>
  <path d="M210.1,543.8c5-.3,5.5,4.8,8,8,.9,4.5-2.9,3.4-5.5,4s-1.8-.8-1.5,1.5c.7,5,9.2,17.7,11.3,24.7s2.5,15.7,3.7,23.8c-.2.1-.6,1.2-1.7,1.8-2.7,1.3-5.6,2-8.3,3.2.8-9.4-.7-17.2-3-26-3.6-13.7-9.6-22-18-33,4-1.4,10-7.7,15-8Z" fill="#fbfafb"/>
  <path d="M622.1,550.8c0,.3,0,.7,0,1,.2,1.9-.1,4,0,6-1.8,1.3-4,2.2-6,3-3.6,1.5-7.7,2.3-11.5,4-13.3,5.8-33.3,16.7-45.7,18.2-1,.1-1.9.6-2.8.8-37.6,6.1-72,5.1-109,9-.6-3.1,1.6-1.7,3.4-2,3.6-.6,6.8-1.3,10.5-1.1.3-.6-.1-1.6,0-1.9.8-1.3.8-.8,2-1,1,1.7,3.8,1,5.5,1,34.4.4,59.7-.1,92.5-11,11.9-3.9,27.5-9.3,38-16,.3,1.8,2.9-.4,3.7-.8,6.4-3.2,12.4-7.2,19.3-9.2Z" fill="#a5583d"/>
  <path d="M187.1,545.8c-2.8.8-7.6,3.1-10,5-.4,0-1.6-.1-2,0-3.6-4.5-9.4-4.4-14-6.5-6.1-2.8-12.2-7.5-18-10-8.4-3.7-15-2.6-21-9.5l23,2c-1.1-2.3,0-4.5,0-6l42,25Z" fill="#f4b43f"/>
  <path d="M218.1,551.8c.8,1,2,2.3,3,3-.3,1.9,1.5,2.9,2,4,1.1,2.1.8,4.9,4,6v1l2,6c2.3,9.7,6.2,18.7,5,29-1.9,1.1-4.6,3.2-8,5-1.2-8.1-1.3-15.8-3.7-23.8s-10.6-19.7-11.3-24.7.3-1.2,1.5-1.5c2.6-.7,6.4.5,5.5-4Z" fill="#f7d7a1"/>
  <path d="M556.1,583.8v3c-1.2.3-2.3.8-3,1-9.5,2.3-19.3,4.8-29,6-4.7.6-8.1,1.1-13,1-21.9-.5-39.5,0-61,1-3.8.2-8.6,0-12-2,3.4-.6,5.6-.6,9-1,37-3.9,71.4-2.9,109-9Z" fill="#7a5754"/>
  <path d="M245.1,570.8c0,.3,0,.7,0,1,.3,4.8.6,21.7-1,25.2s-9.4,3.4-10,3.8c1.2-10.3-2.7-19.3-5-29-.5-2,0-4.4-2-6v-1c1,.4,3.1,0,4.8.7,4.3,1.7,7.6,6.2,13.2,5.3Z" fill="#112548"/>
  <path d="M624.1,575.8c-10.2-.7-20.1,1.2-29.6,5s-2.2,2-2.4,2c-3.8,1.7-4.5,2-8,4s-1.6-.2-2,0l-3-3c8.2-4.3,16.8-10.1,25-14,2-1,4.8-2,7-3s1.4-.8,2-1c1.6-.7,3.5-.9,5-2,1.2,3.3,3.8,6,5.5,9.1s.3,2.5.6,2.9Z" fill="#eb7222"/>
  <path d="M616.1,560.8c-.2,2.3-1,3.9-3,5-.6.2-1.3.7-2,1-1.8-2.8-10.2.5-7,3-8.2,3.9-16.8,9.7-25,14-2.7,1.4-7,2.8-10,4-.8-6.4-9.4-1.9-13-1v-3c.9-.1,1.8-.6,2.8-.8,12.4-1.6,32.4-12.4,45.7-18.2,3.8-1.7,7.9-2.5,11.5-4Z" fill="#1d2022"/>
  <path d="M212.1,584.8c.7,3.3,1.7,11.8,2,15.5s-.2,7.3,0,10.9l-7.1,1.6c0-1.7,0-3.3,0-5-.1-3.8.1-7.4-.3-11.2-1-9.1-5.3-16.9-6.7-25.8,7.2-2.6,10.8,8.5,12,14Z" fill="#112548"/>
  <path d="M163.1,556.8v2c-1.2,1.6-2.3,2.1-3,3-4.8-2.4-10.4-1.9-15-3s-5.6-1.5-7-2c-3-1-12.7-6.1-12.8-9.3s1.3-3.8.8-5.7c6.1,2.8,11.9,7,17.3,9.2s17,5.6,19.7,5.8Z" fill="#f6e6ca"/>
  <path d="M584.1,586.8c-.3,6.3,1.1,13.4,4,19-2.9,1.9-6.2,7.3-10,8-2.3-6.5-4.6-13.6-7-20,4.3-.6,7.4-4.9,11-7s1.6.2,2,0Z" fill="#f7d7a1"/>
  <path d="M195.1,551.8c8.4,11,14.4,19.3,18,33h-1c-1.2-5.5-4.8-16.6-12-14,1.4,8.9,5.7,16.7,6.7,25.8.4,3.8.1,7.4.3,11.2h-1c.3-16.4-6.9-38.8-18-51,1.4-1.6-.9-3,2-4,.4,0,4.8-.9,5-1Z" fill="#0a1d3a"/>
  <path d="M204.1,537.8c1.6,2.6,6.6,1.8,6,5v1c-5,.3-11,6.6-15,8s-4.6,1-5,1c-6.6.7-8.1-.8-13-2,2.4-1.9,7.2-4.2,10-5s1.4.1,2,0l.5,1,1.5-1c.6-.2,1.3-.9,2-1,5.7-1.2,13.6.7,9-6,.7-.3,1.3-.7,2-1Z" fill="#dd471d"/>
  <path d="M160.1,561.8c-1.7,2-4.8,5.8-6,8-3.8.2-7.4-1.1-11-2,1.3-3.1,2.7-5.5,2-9,4.6,1.1,10.2.6,15,3Z" fill="#f7e8cd"/>
  <path d="M385.1,691.8l52,.5c.7,2.3-2.1,1.4-3.5,1.5-16.1.6-32.4-.5-48.5,0,.1-.6-.1-1.4,0-2Z" fill="#edefef"/>
  <path d="M235.1,562.8c4.6,1.9,10.8,3.9,13.6,6.8l14.6,3.2.7,2v1c-3.3-.7-6.7-1.3-10-2s-6-.3-9-2c0-.3,0-.7,0-1,0-.6.2-1.3,0-1.9-3.2-.2-9.2-2.3-9.9-6.1Z" fill="#1d2022"/>
  <path d="M579.1,583.8l3,3c-3.6,2.1-6.7,6.4-11,7-1.3-3.3-1.4-.9-2-6,3-1.2,7.3-2.6,10-4Z" fill="#ee8630"/>
  <path d="M543.1,707.8l-5,1c.1-.6-.1-1.4,0-2,1.9-1,4.6.9,5,1Z" fill="#edefef"/>
  <path d="M624.1,555.8c-.2,1.3-1.2,1.4-2,2-.1-2,.2-4.1,0-6l2,4Z" fill="#1d2022"/>
  <path d="M163.1,558.8v-2c.3,0,.7,0,1,0,0,.9-.5,1.4-1,2Z" fill="#f7e8cd"/>
  <path d="M238.1,257.8c7.2-1.3,23.4.4,31.5,1,27.5,2,58.8,4.6,86.1,7.9,1.9.2,1,1.9,2.9,2.2,5.1.7,11.7-.6,17.1,0,43.3,4.1,87.1,7.6,129.9,14.1,1.6.7,8.8,4.9,9.6,5.9s5,9.9,5,10.5v170c0,.4,1,1.6,1,3,.1,4.4.3,12.8-2,16.5s-9.3,7.1-13.5,7.1c-14.7,0-32.9-3.9-48-5.1-12.5-1-25-1-37.5-2-9-.7-18.7-1.3-28-2s-8-1.7-11.5-2l-25.5-1c-11.2-1.9-22.7-2.1-34-3-23.1-1.9-54.7-1.9-76.4-6.1-9.6-1.8-18.5-8-19.6-18.4-2.1-19.5-.8-42.6-1-62.5,2.4.2,5.8-.6,8,.5s.9,5.4,4,4.5c0,4,0,8,0,12-1.7,1-1,3.8-1,5.5-.1,9.8-1,22.7,0,32.1s.4,1.9,1.1,3.4c3.3,7.2,6.5,6.4,10,10s-.2,1.4,0,2c1.4.8,2.7-.9,3-1,1,0,2,0,3,0-.6,3,1.5,1.9,3.5,2,12.5.6,25,1.5,37.5,2s.7,0,1,0l41.5,4c14.2.8,28.4,1.2,42.5,2,36.5,2.1,75.3,6.1,111.5,7,3.3,0,9.4.5,12.3-.7s2.5-5.5,4.2-6.3,1,1.7,1,.5v-163.1c.7-2.2-1.8-3-2-3.4-2.4-4.5-4.4-7.9-9.3-10.2-44.2-6.2-89.5-10.8-134.2-14.8s-39-2.9-58.5-4c-14.9-3-36.2-5.4-51.5-6s-9.9-.4-12.5,2c-9.6-1-4-5.9-9-10,2.2-2.2,4.6-5.4,8-6Z" fill="#203257"/>
  <path d="M573.1,225.8c-1.5-6.2-5.1-12.2-5.9-18.6-5.4-45.8,40.6-74.3,81.3-57.3s52.8,86,3.3,104c-5.5,2-12.5,1.4-16.6,3.4s-9.9,10.2-13.6,12.4c-2.2.3-1.2-.3-1.5-1.5-1-4.1-1.5-8.4-3.3-12.2l-15.8-6.2c-1.7-15.4-14.3-21.4-28-24ZM606.1,154.8c-5-1.7-25.3,8.5-22.6,14l2.2,1.9c1.1.2,16.9-9.7,18.4-11.3s2.4-2.2,2-4.5ZM616.1,212.8c1,1.5.2,2.8,3.3,4.2,10,4.6,17.1.3,20.7-9.2.5,2.7,5.1,6.4,7,8.5-.2,3.5-6.8-.4-7.9,3.1s11.5,16.3,15.7,17.2c9.7,2.1,10.3-4.4,9-12.1-1.6-10-12.1-21.8-21.8-24.7,2.1-9.6,5.2-20.6,3-30-3.9-16.3-29.6-14.5-31.9,1.6-.7,5.1.2,11.6,0,17-.4,9.9-3.2,15.7,3,24.5ZM600.9,187c-1.5-.9-22.2,3.2-25.7,3.9l1,11.7c4.9,1.9,10.1.9,15.2,1.3s4.9,3.7,10.9-.3c4.8-3.1,5.6-8.4,5.7-13.8-5.5,1.7-5.7-1.9-7.2-2.8ZM615.8,220c-1.9.6-6,5.5-6.5,7.5-4.6,20.1,30.6,25.4,26.7,1.8-1.5-8.9-12.7-11.6-20.2-9.3Z" fill="#b0d4f0"/>
  <path d="M424.1,498.8l55.4,4.1c3.2,1.1,1.5,14.8,3.6,17.9,0,.3,0,.7,0,1-.2,5.6-2.7,13.2,0,19l2,2c2.1,2,8.3,1.5,9.5-1s1.3-20.1,1.5-24c4.9,1.7,8.7,2.6,14,2,.2,18.7-.7,37.4,1,56-2.6,0-10.3.7-11.6-1-.2-6,2.9-19.9-1.9-24.1s-9.2-4.9-11-4.8c-3.3,0-8.8,3.9-11.5,5.9,0-.2-1.2-1.1-1.1-2-4.6,2.6-10-.8-13.9,0,4-6.6,1.1-22.2-5.6-25.9-3.2-1.8-7.5-1-11.4-4.1s-.1-1.7-1-2.5c-2.4-2-6.9-1.7-10-1.5.5-4.7-4.8-5.5-7.5-8s-6.9-5.8-7.5-10c2.4.2,4.6,1.1,7,1Z" fill="#112548"/>
  <path d="M577.1,247.8c13.2-5.2,13.3,3.6,14,14.5,1.4,21,.2,43.8,1,65,0,2.5,1.2,4.9,1,7.5l-9-4c0-.2-1-2.2-1-3.5-.1-9,.1-18,0-27.1,0-1.7.6-4.4-1-5.5,0-7.5,1-18.7,0-25.5s.6-1.6-1.5-1.5l-55.5,31c-.6-3.7-4.7-10.8-8-13,0-1.1-1.3-2.5-.6-4s4.3-3.3,5.6-4c12.7-7.8,28.3-14.7,41.7-21.8,4.5-2.4,8.6-6.3,13.3-8.2Z" fill="#ee8630"/>
  <path d="M522.1,531.8c0-4.9-.8-26.2.9-28.6,16.5-9.5,31.8-21.4,49.1-29.4l1,27c-13.5-1.4-25.4,7.9-28.7,20.8-4.3,16.4,1.7,32,2.7,48.2-2.9.6-7.8.5-11,1-.3-5.9-6.2-27.8-8.5-34s-1.9-5.6-5.5-5Z" fill="#0a1d3a"/>
  <path d="M607.1,544.8c-3.2-.1-11.5,1.7-15,2.5-2.8.6-5.3,1.6-8,2.5-6.5,2.2-8.7,4.1-14,7-3,1.6-7,3.1-10,5h-1c-1.8-13.3-8.6-31-.9-44.4,11.5-19.8,35.9,7.8,43.8,17.9s5.1,5.8,5,9.5Z" fill="#1d2f4f"/>
  <path d="M584.1,330.8c-.1,1.2-4.6,2.4-4,5-1.7,0-3.4.6-5,1,1-1,3.3-2,3-3.5-1.7-2.8-5-1.9-7-2.5s-.4-1.6-2.5-2c-3.4-.7-5.6.1-8.5,1-24.5,7.2-25.8,73.3-9,88.5s15.1,4.9,22,0c-7.1-5.5-8.7-14.6-12-22.5-2.1-19.4-2.2-42.3,12-57,.2,1.6-.2,3.4,0,5-11.5,15.4-12.4,51.7-1.8,67.3,4.4,6.5,4.6,3.7,9.8,3.7s4.8,2.6,8,2c-.7.7-2.9,2.4-3,2.7-.9,3.4.3,11.9,0,16.3l-1-15-13,8c-9.9,1.1-17.4,3.1-25.5-4-12.7-11.1-15.4-42.5-13.4-58.4,2.1-16.9,9.1-34.1,22.9-44.6,10.3-1.1,17.6-1.1,26,6,0-11,0-22,0-33,1.7,1,1,3.8,1,5.5.1,9-.1,18,0,27.1s1,3.2,1,3.5Z" fill="#081223"/>
  <path d="M525.1,298.8c1.8,11.8-.3,31.6,0,44.5.8,42.9,3.8,91.9,1,134.5s-1.1,7.4-2,11h-5c2.3-3.7,2.2-12.1,2-16.5s-1-2.6-1-3v-170c0-.6-4.5-10-5-10.5,1.5-.5,2-1.5,2-3,3.3,2.2,7.4,9.3,8,13Z" fill="#081223"/>
  <path d="M593.1,343.8c2.1,3,2.6,3.1,3,7.5,1,10.1,2.8,40.8,0,49-.4,1.3-3.2,6.3-4.1,7.4h-1c-6.7,2.1-10.9-9.9-12-15-2.2-10.5,1.2-21.9,0-30,3.3-6.8,4-19.4,14-19Z" fill="#1d2f4f"/>
  <path d="M589.1,416.8c1.8-1.8,2.2-3.6,5-3-.3,10.2,4.5,25.2-3,33.5l-67,41.5c.9-3.6,1.8-7.2,2-11,5.6-1.9,10.9-5.5,15.9-8.6,10.9-6.6,32.4-18.2,41-26,3.6-3.2,2.8-2.9,3.1-7.4s-.9-12.9,0-16.3,2.3-2,3-2.7Z" fill="#ee8630"/>
  <path d="M564.1,245.8c9.3,3,4.9-11.1,9.5-11s9,10.1,3.5,13c-4.7,1.9-8.8,5.7-13.3,8.2-13.3,7.2-29,14-41.7,21.8l-10.4,3.9-2.6-5.9c10.6-4.7,22.7-13.2,33-19s1.4-.6,2-1,1.3-.6,2-1c5.8-3.2,12.4-5.5,18-9Z" fill="#0a1d3a"/>
  <path d="M511.1,575.8c3,0,9.7.6,12,0,0,.7,0,1.3,0,2,0,3.7.6,3.6-3,5-3,.4-5.9.7-9,1,.6-1.8-.5-2.7-1-4s.6-1.8-.6-2c-8.6-.3-17.4.6-25.9,0-2.8-.2-12.4-1-14-2s-2.3-2.6-2.4-4.1c2.9.7,4.7,2.1,7.4,2.9,4.9-3.5.9-6.5.6-10.4s.7-9.1,0-12.5c2.7-2,8.2-5.9,11.5-5.9s9.6,3.6,11,4.8c4.8,4.2,1.7,18.1,1.9,24.1,1.2,1.7,9,.9,11.6,1ZM493,568.6c7.7-25-17.8-30.3-10.9-1.6l10.9,1.6Z" fill="#1d2022"/>
  <path d="M578.1,405.8c1.3,2.6,1.5,3.3,4,5l-1,4c-5.2,0-5.4,2.8-9.8-3.7-10.6-15.6-9.7-51.9,1.8-67.3,1.9,13.2-1.9,27.8-1,41.5.4,6.4,1.7,15.5,6,20.5Z" fill="#203257"/>
  <path d="M491.1,225.8c5.8.6,11.9,1.6,18,2s.7,0,1,0c3.7,2.2,9.1,1.5,13,2s.7,0,1,0l1,1c.3,0,.7,0,1,0,11.6,1.5,28.9,1.9,39.4,5.1s4.5,1.8,4.6,2.6c.7,4.6-2.3,4.1-4.1,5.3.6-3.6-6.2-5.2-7.9-3.9s.1,1.6,0,1.9c-2.1-.9-4.3-1.6-6.6-1.9-18.7-2.6-41.8-6.2-60.4-7.1s-3.3,0-5,0c0-2.3,0-4.7,0-7,1.6.1,3.4-.2,5,0Z" fill="#eb7222"/>
  <path d="M536.1,570.8c0,.5-1.1,2.1-1,3-1,0-2,0-3,0,.5-3.7.2-10.8-4.6-7.1s-1,2.5-1.4,3.1c-1,1.4-.9,2.5-3,2,0-13.4-.9-26.6-1-40,3.5-.6,4.5,2.4,5.5,5,2.3,6.2,8.2,28,8.5,34Z" fill="#1d2f4f"/>
  <path d="M607.1,544.8c3.3.1,4.3,3.8,6,6-3.2,1.3-6.8,3.6-10,5s-8,3.3-12,5l-3.2-3.3-3.8-7.7c2.7-.9,5.1-1.9,8-2.5,3.5-.8,11.8-2.6,15-2.5Z" fill="#eb7222"/>
  <path d="M420.1,488.8c1.1,3.6,4.4,5.8,4,10-2.4.1-4.6-.8-7-1-4.3-.4-8.7-.6-13-1-.4-.6-.1-2.4-1.5-3l-10.5-7c9.3.7,19,1.3,28,2Z" fill="#0a1d3a"/>
  <path d="M496.1,517.8c.2-4.3-.1-8.7,0-13h14c0,5,0,10,0,15-5.3.6-9.1-.3-14-2Z" fill="#0a1d3a"/>
  <path d="M580.1,335.8c1.3,0,2.7.9,4,1,.5,2.6-1.3,3.9-3,5.5l1,.5c-2.9,3.3-2.7,5.6-4,9-6,16.2-6.5,31.3-2,48,.6,2.1,1,4,2,6-4.3-5-5.5-14.1-6-20.5-.9-13.7,2.9-28.3,1-41.5-.2-1.6.2-3.4,0-5,.7-.7,1.3-1.3,2-2,1.6-.4,3.3-1.1,5-1Z" fill="#1d2f4f"/>
  <path d="M483.1,520.8c.3-6-.2-12,0-18l8.1,1.4.9,17.6h-9c0-.3,0-.7,0-1Z" fill="#f0973a"/>
  <path d="M560.1,568.8c0,.4,2.5,2.4,2,4-1.2.4-2.8,1.6-4,2-2.6.8-6.3,1.3-9,2-8.7.1-17.4-.6-26,1,0-.7,0-1.3,0-2,.3,0,3.1-2.7,5-3s3.3,1.1,4,1,2,0,3,0c4.6-.4,11.2-.7,15.3-1.2s5.8-4.8,9.7-3.8Z" fill="#7a5754"/>
  <path d="M483.1,540.8v-15s8.1.4,8.1.4c2.1,1.4.8,13.5-.2,16.5h-5.9c0,.1-2-1.9-2-1.9Z" fill="#f0973a"/>
  <path d="M582.1,342.8c3-3.5,6.6-4.3,10.3-1s.5,1.8.7,2c-10-.4-10.7,12.2-14,19-.3-1.8-1.8-3-1.9-4.4s1.5-4.4.9-6.6c1.3-3.4,1.1-5.7,4-9Z" fill="#ee8630"/>
  <path d="M591.1,407.8l-4,4c-.2,0-.6,0-1,0h-1c-.5-.1-2.9-.9-3-1-2.5-1.7-2.7-2.4-4-5s-1.4-3.9-2-6c.6-2.9,3.3-4.2,3-7,1.1,5.1,5.3,17.1,12,15Z" fill="#ee8630"/>
  <path d="M560.1,568.8c-3.9-1-6.7,3.4-9.7,3.8s-10.6.8-15.3,1.2c-.1-.9,1-2.5,1-3,3.2-.5,8.1-.4,11-1s6.4-5.8,12-4c-.1-1.3.2-2.7,0-4h1c.3,2.1-.4,5,0,7Z" fill="#1d2022"/>
  <path d="M532.1,573.8c-.7,0-3.4-1.1-4-1l-2-3c.4-.6.2-2.1,1.4-3.1,4.8-3.7,5.1,3.4,4.6,7.1Z" fill="#f6e6ca"/>
  <path d="M587.1,411.8l4-4h1c-1.9,2.7-1.9,2.8-5,4Z" fill="#081223"/>
  <path d="M585.1,411.8h1c-.7,0,.2.3-1,0Z" fill="#081223"/>
  <path d="M682.3,447.5c-.1,0-.1-1.5-.9-1.7-10-2.1-27.9-4.4-36.5-8.3s-9.6-10.4-5.2-17.7c5.8-9.5,20.8-27.8,28.4-36.6,2.2-2.5,10.2-11,12.5-12.5,7.9-5.2,15.1-.1,18.7,7.3,7,14.6,12.1,37.3,16.7,53.2,1.2,4.1,3.7,4.3,3.1,10-1.4,15.9-23.9,7.5-33.7,5.6s-2.5.9-3.2.7ZM675.1,384.8c-10.9,12.7-21.6,25.4-31.6,38.9-3.1,9.4,7.2,10,13.5,11.6,12.7,3.2,35.4,9.2,47.6,10.4s6.3.7,8.5-2.3c1.6-2.1.9-4.3.5-6.6-2.6-13.4-11.8-33.3-16.5-47-2-5.9-3.7-21.7-14.5-14-3.7,2.6-5.2,6.4-7.5,9Z" fill="#dd471d"/>
  <path d="M239.1,273.8c-1.1,1-2.8,5.7-3,7.5-2.4,19.7,1.1,42.7,1,62.5s-1,36.7-1,55c-3,.8-1.5-3.3-4-4.5s-5.6-.3-8-.5c-.3-30.8-.2-61.9,0-92.5,0-8.9-1.1-25.2,2-33.1s2.6-2.9,4.1-4.4c5,4.1-.6,9,9,10Z" fill="#1d2f4f"/>
  <path d="M218.1,465.8c4,9,15.6,16.4,25,18-1.1,2.9-2.6,6.5-2.9,9.6s-.6,3,1.4,2.4,4.7-10.2,2.5-12c1,0,2,0,3,0l-.5,29-21.5,12c-1.1-3.4-4.2-6.6-6-10,5.5.4,22.5-9.7,21-15.5s-6.6,4.6-8,5.9c-3.2,3-9.5,6.3-13.9,6.6-6.2-11.9-12.7-19.9-15-34s-1.3-5.9-1-9c1.9.8,4.1-.9,5-1s2.2.9,3.4.7c2.4-.4,4.4-3.8,7.6-2.7ZM226.9,492.5c4-4-3.9-8.6-6.3-3.7s3.6,6.4,6.3,3.7Z" fill="#7a5754"/>
  <path d="M214.1,409.8c-3.3,1.8-7.3-3.3-8.5-3s-1.5,3.3-3.2,3.8-5.1,0-7.3.2-2,0-3,0l-11-5c-1.2-5.4-4.6-20.8-1.5-25s3.4-1.5,5.1-2.9c2.4-2.2,2.8-6.2,5.5-7.5,7.4-3.7,18.2,1.1,25-3.5.4,14.4-1,28.9-1,43Z" fill="#ad979d"/>
  <path d="M317.1,490.8c1.3,0,2.7,0,4,0-3,8.6-11.5,13.1-17,20-2-1.2-8.9-2.3-11.3-1.8-9.6,2.2-11.1,23.4-2.7,27.8v1c1.5,4.3-7.1,11.8-10.4,13.3s-2.5-.3-2.6-.3l-1.5-19c-.2-.3-6.5-2.7-7.5-3-.4-2.1.8-4.2,1-6,1.7,0,3.3,0,5,0v-36s43,4,43,4Z" fill="#112548"/>
  <path d="M132.1,314.8c2.8,5.4,3.1,2.8,7,5.5,7.7,5.3,4.5,11.1,7.5,17.5s4.7,4.1,6.6,5.9.1,1.6,1,2.4c1.9,1.7,11,8.9,12.7,9.3,5.9,1.6,7.2-4.3,13.3-2.8.6,1.1,10.8,5.8,12.7,7.8l22.3.2c0,2,0,4,0,6-6.7,4.6-17.6-.1-25,3.5s-3.1,5.3-5.5,7.5-4.3,2-5.1,2.9c-3.1,4.2.3,19.5,1.5,25s.8,2.1,1,3c.5,2,.6,4.5,1,6,1.3,4.5,3.7,8.9,5,14s.6.8,1,1v2c0,0-.3,1-.9,1-.8-2.6-3-4.6-4.1-7s-2.3-6.7-3.5-10,.2-3.6-2.5-3c-.1-1.3.2-2.8,0-4s-1-.9-1-1c0-.3,0-.7,0-1-.2-1.8-.9-3.6-1-5-.5-6.2,1.3-19.2-1-24.2s-7.2-1.8-7-5.8c1,0,2.1-.2,3,0,3.3.6,5.3,3.5,9.3,2.8s5.1-7.9,7.4-8.7c5.4-.4,10.9,0,16.4-.1s4.3,0,6.5,0,4.2.8,3.5-1.5-8.2-.5-10-.5c-6,0-12.1-.4-18,1,.3-5.8-5.3-8.4-10.3-6.8s-3,3.6-5.7,2.8l-12.2-8c-5.8-5.2-10.7-12.1-17.7-15.5,3.8,6.4,10.2,10,15.1,15l14.9,10.6c0,1.2-.1,2.8,0,4-15.6,1.3-30.9,4.9-46,9-.7-.7-.4.2-2-2,.5-1.4,2-.8,3-1,13.3-2.2,27-7.7,41-8,.4-1.7-.5-2-1.5-3-3.7-3.6-10-7.3-14.5-11s-2.8-1.8-3-2c-1.2-1-2.6-2.8-4-4s-1.8-3.4-3.7-3.9c-3-.8-4,1.8-5.8,1.8s-3.1-1.4-4.5-2v-3c7.4,1.9,12.5-2.8,10.8-10.3s-5-6.3-8.8-5.7c0-.7,0-1.3,0-2-.3-2.9-1.3-5.2-2-8l1-1c0,.2,1.7,3.4,2,4Z" fill="#f0973a"/>
  <path d="M184.1,425.8c1.1,2.4,3.3,4.4,4.1,7,.6,0,.8-1,.9-1,6.1,0,13.4,4.6,14.8,10.7s1.4,9.7,1.2,11.3c-.3,3-5.6,7.4-6,11.6s1.1,6.8,1.7,9.3-.5,3.7,2.3,3.2c2.3,14.1,8.8,22.1,15,34s.3,1.6,1,3c1.8,3.4,4.9,6.6,6,10s0,.7,0,1l-1,5c-3.7-1.2-3.9-2.7-8-1-1.8-6.1-6-10.8-9-17s-.5-1.9-1-3c-3.5-7.4-8.7-17.4-11-25s.1-1.4,0-2c-.9-3.9-1.4-1.2-2-2-1.1-1.5.8-4.9,1-6h1.9c0,2.6,1.3,4.1,2.1,6s-.5,2,.5,2c.8,0,.6-1.4.5-2-.8-6-3.7-13.8-5-20,3-.8,6.8-6,7.6-9,2.7-10.6-12.3-19.9-19.6-10l-2.4-5.1-3.6-.9c-.8-3.5,2.5-1.1,3.8-2.2s0-1.7.2-1.8c.3-.2,2.7.3,3.6-.9l.4-5.1ZM222.1,527.8l-23-44c2.1,11,7.9,23.3,13.5,33s4.5,7.8,6.2,9.8,2.1,2.3,3.3,1.2Z" fill="#ee8630"/>
  <path d="M215.1,443.8c.3,3.2-.4,6.8,0,10h-8c3.2-12.1-4.9-24.7-18-25h-1c-1.3-5.1-3.7-9.5-5-14,10.6,3.9,21.3,5.9,30.1,13.4,1.9,2.7.6,9.5.9,13.1s1,2.3,1,2.4Z" fill="#a5583d"/>
  <path d="M195.1,334.8c3.2-.4,9.5-1.9,11.6-2,8.7-.3,5.2,5.8,7.4,11,.2,3-.2,6,0,9-9.7-2.2-22.2-7.9-32-7,.9-2.2,3-5.3,4.9-6.6s4.3-1.2,4.9-1.7,0-1.7.2-1.8c.7-.6,2-.9,3-1Z" fill="#a8bfc6"/>
  <path d="M182.1,345.8c9.8-.9,22.3,4.8,32,7,.2,2.7.9,5,1,8l-22.3-.2c-1.9-2-12.1-6.7-12.7-7.8s-.6-5.5-1-6c.9-.5,1.9-.9,3-1Z" fill="#ad979d"/>
  <path d="M159.1,282.8c-.2-.1-1.1.2-1.7-.2-1.6-1.3-1.4-5.4-4.3-4.8-.1-.9-1-1.8-1-2-.1-1.3.1-2.7,0-4l1-1c1.9,3.4,5,8.3,6,12Z" fill="#f0973a"/>
  <path d="M161.1,283.8c.6,1.8,2,3.8,2,4,.4,2.3-4.2,6-1,11.6s9,2.2,13,1.4,1.4.1,2,0c.7,2.7,4.7,2.7,5,3s.8,5.8,2,0h-2c-.1-.6.2-1.7,0-2,3.6,1,5.7,2.8,9,4s1.8.6,3,1,.7,0,1,0c1.4,4.4,6.7,6.4,11,7,1.1,1.5,2.4,1.6,4,2s3,.8,4,0h1c0,2.3,0,4.7,0,7h-1c-7.2-.8-13.7-3.8-20-7s-8.1-4.7-12-7-5.9-7-10-2.5.4,5.3-3,4.5c.4-5.2-5.8-4-9-7.5s-3.1-5.5-3.1-8c0-5.4,4.4-4,2.1-12.5.6.4,1.3.7,2,1ZM214.1,318.8l-11.7-3.8-17.3-9.2,5.1,4.3c6.4,4,13.1,7.8,20.6,9.4s3.5,1,3.3-.8Z" fill="#f0973a"/>
  <path d="M182.1,301.8c-.8-.2-1.6,0-2-1,.3.1.8-.1,1,0,.7.3.6.5,1,1Z" fill="#f0973a"/>
  <path d="M166.1,253.8c-.3.3-.4,1.9-1.4,3-3.6,4-8.4,4.1-7.4,11.2s1.5,2.7,1.8,3.7.5,1.8,1,3,.8,1.5,1,2c.4,1,1.8,2.1,2,3s-.2,2.1,0,3,0,1.4,0,2c-.7-.3-1.3-.7-2-1-1.5-4.9-3.2-6.7-4.8-10.7s-3.3-9.6-4.2-14.3v-1c1.7-.5,7.5-3.8,9-5,.8,2.7,2.9,1.7,5,1Z" fill="#f0973a"/>
  <path d="M355.1,483.8l-10.4,5.1-2.6,3.9c-1.5-.1-3.2-.9-5-1-5.3-.4-10.7-.6-16-1-1.3,0-2.7,0-4,0-1.3-5.5,4.2-5.7,4-10,11.3.9,22.8,1.1,34,3Z" fill="#0a1d3a"/>
  <path d="M268.1,528.8c1,.3,7.3,2.6,7.5,3l1.5,19c-1.6.5-2.9,2.8-5,3.5s-8.9,1.4-12,1.5-7.6-.3-11.3-2.2-1.4-2.3-1.7-2.8l8,2,4-22,.6,17.1c2.3.9,9.6,1.9,11,0,1.2-10.1,2.4-22.5-11.6-18.1,2.4-3.1,5.7-1.9,9-1Z" fill="#1d2022"/>
  <path d="M227.1,534.8c3.4-.5,18.1-11.9,20-10l-1,25c-5-2.2-16.5-9.3-19-14s.1-.7,0-1Z" fill="#112548"/>
  <path d="M182.1,408.8l8.6,4.1,1.4-2.1c1,0,2,0,3,0-.4,3.4,6,2.8,8.2,3.3s2.1,1.6,3.4,1.7c3,.3,4.6-4.3,8.4-3v31c0-.2-.9-1.1-1-2.4-.3-3.7,1.1-10.5-.9-13.1-8.8-7.6-19.5-9.5-30.1-13.4-.4-1.5-.5-4-1-6Z" fill="#a0725a"/>
  <path d="M259.1,529.8l-3.1-.5c1.2-12.6-1.4-27.7,0-40s.4-3.7,3-3.4c-.8,3.4.5,6.3,1,9s1.1,5.3,1,8h4c-.4.2-1.8,2.8-4,2v1s8,1,8,1l-8,.6v15.4c2.7,0,5.4.1,8,0-.2,1.8-1.4,3.9-1,6-3.3-.9-6.6-2.1-9,1Z" fill="#0a1d3a"/>
  <path d="M259.1,529.8c14-4.4,12.8,8,11.6,18.1-1.3,1.9-8.7.9-11,0l-.6-17.1v-1Z" fill="#f4b43f"/>
  <path d="M227.1,535.8c2.5,4.7,14,11.8,19,14s.8.8,1,1c.4.4-.5,1.6,1.7,2.8,3.7,1.9,7.3,2.3,11.3,2.2-.6,2.6,1.3,2,3,2.5,3.2.8,6.3,1.2,9.5,1.6s4.1-1.3,3.5,2c-21.4-.9-29.2-6.7-47-16-.3-.1-.7.1-1,0-.3-.2-.8-1-1-1-1.4-1.1-3.6-4.5-5-6,1.7-.9,2.7-3,5-3Z" fill="#7a5754"/>
  <path d="M227.1,534.8c.1.3-.1.8,0,1-2.3,0-3.3,2.1-5,3s-3.8,1.9-4,2c-1.9.8-5.8,1.5-8,2,.6-3.2-4.4-2.4-6-5,3.6-1.8,5.5-4.5,8-6s3.8-1.9,4-2c4.1-1.7,4.3-.2,8,1l1-5,2,9ZM224.6,531.8v1c.6-.3.6-.7,0-1Z" fill="#1d2022"/>
  <path d="M265.1,502.8h-4c.1-2.7-.6-5.4-1-8v-10s9.6,1.9,9.6,1.9l.3,14.4c-.9,2.5-3.8,1.2-4.9,1.6Z" fill="#ee8630"/>
  <path d="M214.1,343.8c-2.2-5.2,1.3-11.3-7.4-11s-8.4,1.6-11.6,2v-5c1.3.2,9-3.2,11.6-2.9l7.4-4.1h1c0,6.7.8,14.6-1,21Z" fill="#f6e6ca"/>
  <path d="M269.1,506.8c-.3,5.2.4,10.8,0,16-2.6.1-5.4,0-8,0v-15.4s8-.6,8-.6Z" fill="#f0973a"/>
  <path d="M215.1,456.8c0,.5,2.7,8.2,3,9-3.2-1-5.3,2.3-7.6,2.7s-2.6-.8-3.4-.7c-6.7-7.9-.8-12.3,8-11Z" fill="#ad979d"/>
  <path d="M207.1,453.8h8c.1,1-.2,2.1,0,3-8.8-1.3-14.7,3.1-8,11-.9,0-3.1,1.8-5,1-.3,3.1.5,6,1,9-2.8.6-1.9-1.4-2.3-3.2-.6-2.5-1.9-7-1.7-9.3.4-4.2,5.7-8.6,6-11.6h2Z" fill="#a0725a"/>
  <path d="M214.1,409.8c0,.2,1.5,1.9,1,3-3.8-1.2-5.4,3.4-8.4,3s-2.3-1.5-3.4-1.7c-2.2-.5-8.6,0-8.2-3.3,2.2-.1,5.4.5,7.3-.2s2.2-3.6,3.2-3.8,5.2,4.8,8.5,3Z" fill="#edefef"/>
  <path d="M244.1,483.8c2.2,1.8-1.5,11.7-2.5,12-2,.6-1.5-1.1-1.4-2.4.3-3.1,1.8-6.7,2.9-9.6.3,0,.7,0,1,0Z" fill="#edefef"/>
  <path d="M267.6,503.8c.6.3.6.7,0,1v-1Z" fill="#0a1d3a"/>
  <path d="M361.1,220.8c3.5-.1,2.8-.6,3,2.5.5,6.3-.5,13.2,0,19.5-11.6,5.2-1,11.8,6,14.5,18.4,7.1,39.9,7,59,6.5,5.8-.1,12.3.5,18,0,9.1-.8,42.9-6,45-16.5s-1.9-9.8-1-14.5c18.6.9,41.7,4.5,60.4,7.1s4.5,1,6.6,1.9c-1.9,2.9-13.3,8.9-17,11-9.3,5.2-19.4,9.5-28.7,14.8s-9.5,4.8-12.3,9.2-.4,1.2-1,1.5c-1.8,1-21.5-2.2-25.5-2.5-62.7-5.2-126-10.3-188.5-17v-4l76-34Z" fill="#203257"/>
  <path d="M370.1,219.8c.6.4,1.4.6,2,1,7.3,5.1,19.3,5.9,28,7,0,4,8.1,9.8,11.5,10.1s12.5-3.1,13.5-8.1c.9-.4,2-1,3-1,16.7-.5,37,0,51-10,.2,4.5-.2,9,0,13.5s3,9.6-.6,12.4c-12,9.3-54.6,10.1-69.9,9.1-5.9-.4-35.4-4.8-38-9-.7-8.2-.8-16.8-.5-25Z" fill="#203257"/>
  <path d="M374.1,205.8v1c-1.2.1-1.3.6-2,1-8.6.6-6.3,10.1-11,13l-76,34-21-2c-.4-.3-2,.5-2-.5,15.7-8,32.5-14.2,48.7-21.3s31.2-15.1,46.7-21.3c5.5-2.2,10.4-4.7,16.7-3.8Z" fill="#eb7222"/>
  <path d="M399.1,203.8c1.2-.5,10.6-1.4,11-1-.9,10.7-.5,15.8,11.5,16,13.6.2,11.9-5,10.4-16,2.1-2.1,30.9,3.4,35.5,5,18.3,6.4,2.4,11.7-7.5,14.6s-3.7.1-5,.5c-4.3-2.7-10-.1-14.5,0-7.2.3-14.4-.3-21.5,0-5.9-.5-29.1-2.4-30.9-8.7s5.4-6.6,8.9-8.3,1.5-1.8,2-2Z" fill="#203257"/>
  <path d="M415.1,150.8h7s3.9,62.9,3.9,62.9c-3.7,2.1-7.1.7-10.9.1v-63Z" fill="#ee8630"/>
  <path d="M430.1,116.8c4.1,12.3-4.1,24-17.4,21.9-4.1-.6-5.9-3.9-9.6-4.9,0-.3,0-.7,0-1l-1-3c-.5-15.1,16.2-22.9,28-13ZM410.9,116.9c-4.9,1.3-6,11.6,1.7,10.8,8.7-.8,5.7-12.8-1.7-10.8Z" fill="#f0973a"/>
  <path d="M397.1,205.8c-3.5,1.7-10.1,3.8-8.9,8.3s25,8.2,30.9,8.7.3.9,2.4,1c7,.5,14.5-.5,21.6,0l-3,2c-5.3.6-10.7,1-16,1-11.5,0-42.7-2.1-51-10s-.6-1.4-1-2,.2-1.7,0-2c2.8-.3,5.9-3.2,8-4s5.1-1.8,6-2c3-.7,7.8-.8,11-1Z" fill="#f0973a"/>
  <path d="M364.1,242.8c.2,2.9,0,4.8,2.5,7,4.9,4.4,23.3,8,30.2,8.8,8.9,1.1,19.8,0,27.6,1.4,2.1.4,4.9,1,4.7,3.8-19.1.4-40.5.6-59-6.5s-17.6-9.3-6-14.5Z" fill="#0a1d3a"/>
  <path d="M491.1,232.8c-.9,4.7,1.8,10,1,14.5-2,10.5-35.9,15.8-45,16.5-.8-6.8,3.3-4.3,7.4-5.1,6.5-1.2,29.5-6,31.4-12.6.9-3.1.1-9.6.2-13.3,1.7,0,3.3,0,5,0Z" fill="#0a1d3a"/>
  <path d="M403.1,133.8c3.6,1,5.5,4.3,9.6,4.9,13.4,2,21.5-9.6,17.4-21.9,21.9,18.5-18.2,42.6-27,17Z" fill="#a5583d"/>
  <path d="M424.1,226.8l4,2c-1,0-2.1.6-3,1h-7c-3.6-1.5-7.4-.7-11-1s-4.7-.7-7-1c-8.7-1.1-20.7-1.9-28-7l1-4c8.3,7.9,39.5,10.1,51,10Z" fill="#1d2022"/>
  <path d="M455.1,222.8c-5.8,1.4-8.7,2.3-15,3l3-2c-7-.4-14.6.5-21.6,0s-2.3-1-2.4-1c7.1-.2,14.4.3,21.5,0s10.2-2.7,14.5,0Z" fill="#a0725a"/>
  <path d="M386.1,206.8c-.2-3,1.7-2.4,3.4-3.1s10.1-4.3,9.6.1c-.5.2-1.3,1.7-2,2-3.2.2-8,.3-11,1Z" fill="#0a172d"/>
  <path d="M374.1,206.8c2.5-.2,4.2.4,6,2-2.1.8-5.2,3.7-8,4-.2-.3-5.5-1.6,0-5s.8-.9,2-1Z" fill="#0a172d"/>
  <path d="M443.1,259.8c3.5,2.6-9.4,2.1-10,2-3.5-2.6,9.4-2.1,10-2Z" fill="#0a1d3a"/>
  <path d="M372.1,214.8c.4.6.6,1.6,1,2l-1,4c-.6-.4-1.4-.6-2-1,0-1.4-.2-2.9,0-4.3l2-.7Z" fill="#0a172d"/>
  <path d="M509.1,227.8c-6.1-.4-12.2-1.4-18-2v-1c6,.9,12.2,1.5,18,3Z" fill="#0a172d"/>
  <path d="M403.1,132.8c0-.4-.9-.8-1-3l1,3Z" fill="#a5583d"/>
  <path d="M541.1,252.8l1,4c-10.3,5.8-22.4,14.3-33,19s-4.9,2.4-9,1c2.9-4.3,7.5-6.4,12.3-9.2,9.3-5.4,19.4-9.6,28.7-14.8Z" fill="#f0973a"/>
  <path d="M285.1,254.8v4c-9.2-1-13.3-1.3-21-6l21,2Z" fill="#1d2f4f"/>
  <path d="M103.1,491.8c0,.1,1.7-.5,2,.7,1.4,5.3-1.1,9.3,2,16.8,2.5,6.1,3,5.6,8.6,8.5-1,7.7-.9,7.2,4.4,12l-5.9,2c.8-4.6-5.4-7.2-6-8.8-.9-2.2-.7-6.1-1.8-8.9s-4.7-5.7-5.1-8,3.5-10.1,1.8-14.3Z" fill="#f7e8cd"/>
  <path d="M145.1,558.8c.7,3.5-.7,5.9-2,9-7.4-1.9-11.6-2.8-5-11,1.4.5,5.6,1.6,7,2Z" fill="#fcfbfd"/>
  <path d="M123.1,532.8c.1.1,1.9-.5,2.1.6l-1.1,6.4c-.3-.2-1.4.2-2,0l1-7Z" fill="#f6e6ca"/>
  <path d="M521.1,113.8h-2c.7-.9-2.3-11.5-3-13.5-5-15.1-15.1-29.7-27.7-39.3-3.2-2.4-10.1-5.6-12.3-7.7s-1.9-2.6-.5-3.5c23.9,9.8,39.8,31.9,45.2,56.8s0,5,.3,7.2Z" fill="#fcf8ef"/>
  <path d="M519.1,113.8h2c0,.2,1.6,1.4,2,3.5,1.6,10-.8,22.4-3.9,32s.7,1.4-1.5,1.5-4.4,0-4.5-2.5c0-3.9,3.4-13.8,3.9-19.1s-.9-11.6,0-14.8,2-.6,2-.7Z" fill="#f4b43f"/>
  <path d="M327.1,80.8c7-14.7,22.4-32.3,38.7-36.8s3.7-1.1,3.3,1.3c-13.9,6.9-23.7,14-33,26.5s-5.3,7.1-7.4,11.1-5.7,15.5-6.6,16.4-2.2,1-1.9-.9c1.1-6.1,4.3-12.1,6.9-17.6Z" fill="#fcf8ef"/>
  <path d="M348.1,114.8c2.4-16.1,9.8-30.5,25.5-37,1.9,4.2-4.3,5.5-7,8-7.4,6.7-15.7,19.2-17.5,29h-1Z" fill="#f7e8cd"/>
  <path d="M349.1,114.8c-1,5.9,3.1,24,5.6,29.9s5.8,6.8,1.9,6.1-8.7-14.6-9.2-18.8c-.8-6.3-.2-11.3.7-17.2h1Z" fill="#f3dd5e"/>
  <path d="M490.1,113.8c-.6.1-1.5-.2-2,0-.1-8-5.6-16.8-11-22.5s-10.6-8.2-11-9c-.6-1.1.3-1.9,1.5-1.5,15.1,7.1,18.3,18.6,22.5,33Z" fill="#f7e8cd"/>
  <path d="M87.1,347.8c2,0,3.9.8,6,1s1.3,0,2,0,2.8.9,5,1,2,0,3,0c5.1,3.6,9.9,7.5,15,11l7,12c-1,.2-2.5-.4-3,1-16.8-22.6-48.1-31.9-66.8-6.3-26.7,36.4,16,78.9,53.8,56.3-.3.9.2,2.9,0,4-.6.5-2.4,3.1-3,4-12.4,4.8-20.4,4.2-33,2-.9-.2-2,.1-3,0,.5-3-.8-1.6-2-2s-2.7-.7-4-1c.7-2.9-3.5-2.9-5-4-3.8-2.8-7.5-7.8-10.2-11.8-.6-.4-1.2-.2-1.8-.2,0-.6.1-1.4,0-2-.5-2.2-2.1-5.8-4-7,0-.7,0-1.3,0-2s0-1.3,0-2c0-1,0-2,0-3-.1-3.1-.9-6.3-1-10s0-2,0-3,0-1.3,0-2,1.2-1.1,1-3c.5-.1.9-.5,1-1s-.2-1.5,0-2,.8-1.4,1-2c.3-1.1.7-2,1-3,2-1.2,2.1-3.3,3-5s1.4-1.9,2-3l13-12c3.1-1.3,6.7-2.2,10-3s1.7-.9,2-1c1.1-.2,2.7.2,4,0s1.8-1,2-1c1.6-.1,3.4,0,5,0Z" fill="#f4b43f"/>
  <path d="M119.1,329.8h1c-.2.9-.1,3.1,0,4-1.6,1.1-.6,2.4,1,3,.2.4.7.7,1,1,.8,4.4,6.4,6.6,8.4,10.1s0,3.2,3.6,5.9,1.4,2.1,2,3c-3.3-.4-1.7,1-1.3,2.8,1.2,5.7,2.4,11.9-6.4,8.4-2.3-.9-7.7-5.4-10.3-7.2-5.1-3.5-9.9-7.4-15-11,1.6,0,3.3-1.1,7,0s3.2,1.3,5,3-.2,1.3.3,1.7c2.3,2.1,13.4,11,15.7,9.9s1.7-1.5,1.9-2.3c2-8.5-16.7-21-16-30.8s2-1.3,2.1-1.5Z" fill="#f6e6ca"/>
  <path d="M42.1,385.8c0,1,0,2,0,3h-2s0,10,0,10h3c0,1,0,2,0,3h-2s0,1.5,0,1.5l2,.5c0,.7,0,1.3,0,2s-1,.7-.8,2.2c.3,2.8,1.7,5.5,4.8,4.8.1.6,0,1.4,0,2-.8,0-1.1.2-1,1,0-.1-1.7,0-2.6-.9-2-2-5-14.4-5.3-17.7s-1.2-12.7,3.9-11.4Z" fill="#f6e6ca"/>
  <path d="M47.1,414.8c.6,0,1.3-.2,1.8.2,2.7,4,6.3,9,10.2,11.8v2c-8.8-3.6-8.1-6.6-13-13,0-.8.2-1,1-1Z" fill="#f7d7a1"/>
  <path d="M80.1,346.8v2c-1.3.2-2.9-.2-4,0l-.5-1h-1.5s0,2,0,2c-3.3.8-6.9,1.7-10,3s-10.2,5-12.5,9.1-.3,2.6-.5,2.9c-.6,1.1-1.6,2.3-2,3-4.1,0-2.4,3.1-3,5s-.7,1.9-1,3h-2c-.7-2.6,1.1-6.4,2.6-8.9,3.9-6.3,9.1-11.6,15.2-15,5.6-3.1,13.1-7.4,19.2-5.1Z" fill="#f6e6ca"/>
  <path d="M43.1,377.8h1c-.2.5.1,1.4,0,2h-2s1,1,1,1c.2,1.9-1,2.8-1,3h-2s1.1-5.9,1.1-5.9h1.8Z" fill="#f6e6ca"/>
  <path d="M87.1,347.8v-2s6,0,6,0v3c-2.1-.2-4-1-6-1Z" fill="#f6e6ca"/>
  <path d="M95.1,348.8l.5-2,4.3,1.2v1.8c-2.1-.1-4-.9-4.9-1Z" fill="#f6e6ca"/>
  <path d="M59.1,426.8c1.5,1.1,5.7,1.1,5,4-1.3-.3-2.7-.7-4-1-.3-.4-.3-.7-1-1v-2Z" fill="#f3dd5e"/>
  <path d="M82.1,347.8c-.2,0-1.1.9-2,1v-2c.7.3,1.5.2,2,1Z" fill="#f7d7a1"/>
  <path d="M45.1,375.8c-.2.6-.8,1.3-1,2h-1c-.1-.6.1-1.5,0-2h2Z" fill="#f7d7a1"/>
  <path d="M134.1,182.8c4-.4,8.9,0,13,0s1.3,0,2,0c1.8,2.6,5.3,2,8,2,14.3,7.2,19.9,15.8,26,30-1,2.9.9,7.2,1,9s0,2,0,3c0,4.7-4,17-5.9,21.6s-6.4,7.7-8.1,12.4c-3.6,3.1-3.6,3.8-6,7s-1.4-.3-1.8.2c-1,1.2,1.1,6.1-2.2,6.8-.5-1.2-.6-1.9-1-3,1.7-7.7,8.1-11.9,12.4-18.1,10.9-15.8,14.1-33.2,3.4-50.3-11.3-18-29.6-20.1-48.8-16.7-1.2-1.9,4.7-3.8,6-4s1.3,0,2,0Z" fill="#f6e6ca"/>
  <path d="M124.1,186.8c-11.7,9-24.1,20.9-25,36.5s3.9,23.8,10,31.5h-1c-1.9.5-2.2-1.4-3-2-7.8-12.4-9-25.7-7-40,.5-.8.7-1.5,1-2,1.1-1.7,3-5.2,4-6.5,3.3-4.5,8.7-8.4,11-13.5.8-.5,1.3-.7,2-1,3.6-1.8,4-2.3,8-3Z" fill="#f6e6ca"/>
  <path d="M105.1,252.8c-3.4-2.4-3.3-1.1-5.5-6-4.3-9.7-7.3-24.8-1.5-34-2,14.3-.8,27.6,7,40Z" fill="#f7e8cd"/>
  <path d="M114.1,190.8c-2.3,5.1-7.7,9-11,13.5s-2.9,4.8-4,6.5c-2.2-.7,0-2.9.6-3.9,3.8-7.4,7.5-11.8,14.4-16.1Z" fill="#f7e8cd"/>
  <path d="M132.1,182.8c-1.3.2-7.2,2.1-6,4-.6.1-1.4-.1-2,0-4,.7-4.4,1.2-8,3,1.4-4.7,11.6-9.2,16-7Z" fill="#f7e8cd"/>
  <path d="M134.1,182.8c-.6-3,1.5-1.9,3.5-2s4.1,0,6.1,0,4-1,3.5,2c-4.1,0-9-.4-13,0Z" fill="#f7e8cd"/>
  <path d="M157.1,184.8c-2.7,0-6.2.6-8-2,1.8,0,3.3-.8,6.3.3s1.5,1.6,1.7,1.7Z" fill="#f7e8cd"/>
  <path d="M164.1,267.8c.3,8.7,6.3,7.8,11.6,11s8.8,6.2,10.4,8.5c3.2,4.6,6.1,15.1,12.1,17.9s9,.5,9,4.5c-3.8-.8-8.4-1.9-12-3s-.7,0-1,0c.5-2.4-.9-3.1-2-4.5-3.1-4.3-11.1-17.7-14.1-19.9s-9.3-3.4-12.9-5.1-2.8-3.2-4-.5c-.2-.5-.7-1.2-1-2,3.3-.7,1.2-5.6,2.2-6.8s1.7,0,1.8-.2Z" fill="#f7e8cd"/>
  <path d="M207.1,309.8c.9.2,1.8.8,3,1l3,1c.3,1-.7,3.3,1,4-1,.8-2.8.3-4,0,.4-4.1-3.7-2-4-2-4.3-.6-9.6-2.6-11-7,3.6,1.1,8.2,2.2,12,3Z" fill="#f6e6ca"/>
  <path d="M184.1,226.8c3-.5,2.1,1.3,1.8,3.3-2.5,12.6-6.1,22.5-15.8,30.7,1.6-4.8,6-7.6,8.1-12.4s5.9-16.9,5.9-21.6Z" fill="#f7e8cd"/>
  <path d="M213.1,311.8l-3-1c0,0,.7-1,1.4-.9.9.3,1.3,1,1.6,1.9Z" fill="#f7e8cd"/>
  <path d="M174.1,220.8c.3,3.2.4,10,0,13-.8,5.5-8.6,15.7-13,19s-7.3,4.5-9,5c-12.5,3.7-31,0-39-11s-9.5-27.9-3.2-38.7c15.6-26.4,61.2-18.7,64.2,12.7ZM134.9,199c-7.9,1.3-16.6,9.4-19,17-9.5,29,28.6,49.5,46.7,24.7,15.1-20.6-3.9-45.7-27.7-41.7Z" fill="#fcf8ef"/>
  <path d="M132.1,314.8c-.3-.6-1.9-3.8-2-4-2.8-10.7-4.2-28.9-4-40,6.2,2.5,15.5,1.1,20,6.5s3.8,6.4,4,8.1c.3,3.1-1.5,4.2-1.7,6s.9,9.8,1.7,11.9c3.1,9.1,20.2,14.5,16.8,25.7s-11.3,8.4-14.1,7.6-2.4-6.3-3.4-8.6c-3.3-7.6-8.2-13.6-17.2-13.3Z" fill="#fcf8ef"/>
  <path d="M152.1,275.8c0,.2.9,1.1,1,2,1.1,8.1-.2,7-1,13.5s-.3,8.6.5,10.5c1.6,3.6,12.4,11,15.5,14.5s6.6,17.7,12,18.5c.2,4.1.7,7-4,8s-5.8,0-7,1c1.6-9.1-9.5-11-10-2l-6,2c-1.9-1.8-4.4-1.5-6.6-5.9-3-6.4.2-12.2-7.5-17.5s-4.2-.2-7-5.5c9.1-.3,13.9,5.7,17.2,13.3s.8,7.9,3.4,8.6,13.1-4.2,14.1-7.6c3.3-11.2-13.7-16.7-16.8-25.7s-1.9-10-1.7-11.9,2-3,1.7-6-2.8-6.7-4-8.1c-4.5-5.4-13.8-4-20-6.5,0-.7,0-1.3,0-2,9.3,1.3,17.6,2.4,26,7Z" fill="#f7e8cd"/>
  <path d="M159.1,271.8c-.3-1-1.6-2-1.8-3.7-1-7.2,3.8-7.2,7.4-11.2s1.2-2.7,1.4-3c4.7-5.4,7.8-13.7,9-15s1.1,1.9,2-2-.1-1.4,0-2c1.2-4.7,2.3-6,2-11.6s-1-2.1-1-2.4c0-.6.1-1.4,0-2-.6-3-1-3.5-2-6-13.7-35.6-64.5-31-73.5,5-3.2,12.9,1.6,31.1,13.5,38,2.4,3.7,2.3,2.7,3,7-2.3-.5-5.3-3.2-7-5s-2.6-2.5-3-3c-6.1-7.7-10.6-21.7-10-31.5.9-15.6,13.3-27.6,25-36.5.6-.1,1.4.1,2,0,19.3-3.5,37.6-1.3,48.8,16.7,10.7,17,7.5,34.5-3.4,50.3-4.3,6.2-10.7,10.4-12.4,18.1Z" fill="#f7d7a1"/>
  <path d="M176.1,212.8l-.8.6.9,5.3h1.9c.1.7,0,1.4,0,2.1h-4c-3-31.4-48.6-39.1-64.2-12.7-6.3,10.7-4,28.8,3.2,38.7-6.2,1.3.2,3.9,2,6.5s.7,2.1,1,2.5c-11.9-7-16.7-25.1-13.5-38,9-36,59.8-40.6,73.5-5Z" fill="#f4b43f"/>
  <path d="M153.1,277.8c2.9-.7,2.7,3.4,4.3,4.8s1.5.1,1.7.2c2.3,8.5-2.1,7.1-2.1,12.5s1.3,6.2,3.1,8c3.2,3.4,9.4,2.2,9,7.5,3.4.7,1.1-2.5,3-4.5,4.1-4.5,7.6,1,10,2.5-1.4,1.5-3.6.8-5.6,1.9-5,3-.6,11.9,3.6,13.6s15.8-3.6,13.9-8.5c6.3,3.2,12.8,6.2,20,7l-7.4,4.1c-2.6-.3-10.2,3.1-11.6,2.9s-1.7-1.5-2.7-1.8c-4.6-1.1-6.7,1.3-6.3,5.8-1.3-.5-4.2,1.3-6,1-5.4-.8-7.8-13.7-12-18.5s-13.8-10.9-15.5-14.5-.8-8.2-.5-10.5c.8-6.5,2.1-5.4,1-13.5Z" fill="#f7d7a1"/>
  <path d="M163.1,284.8c0,.8,1.1,2,1,3h-1c0-.2-1.4-2.2-2-4,.7.3,1.3.7,2,1Z" fill="#f7d7a1"/>
  <path d="M150.1,265.8c.7,1,1.4,2,2,3,0,1-.1,2,0,3s-.1,2.7,0,4c-8.4-4.6-16.7-5.7-26-7,0-1.7,0-3.3,0-5l24,2Z" fill="#f7d7a1"/>
  <path d="M161.1,283.8c-.7-.3-1.4-.6-2-1-1-3.7-4.1-8.6-6-12s-.6-1.3-1-2c-.3-3.4-1.8-7.5,0-10,.9,4.7,2.5,9.9,4.2,14.3s3.3,5.9,4.8,10.7Z" fill="#f7d7a1"/>
  <path d="M128.1,317.8c-5-18.5-6.9-36.8-6-56,1.2-1.6,1.8,0,2,1.5.9,7-.5,15.7,0,23s3.1,17.6,5,25.5,1.7,5.1,2,8c-1-.6-1.9-1.5-3-2Z" fill="#f6e6ca"/>
  <path d="M131.1,319.8c0,.7,0,1.3,0,2-6.7,1-9.8,14-2,16v3c-2.4-.9-4.5-1.5-7-3-.3-.3-.8-.6-1-1s-1-2.8-1-3c-.1-.9-.2-3.1,0-4,.3-1.6,2.6-3.7,2-6,2.7-1.2,4.9-2.8,5-6,.2.1.7-.1,1,0,1.1.5,2,1.4,3,2Z" fill="#f4b43f"/>
  <path d="M126.1,263.8c0-.7,0-1.3,0-2l23.4,1.9c1,.4.4,1.8.6,2.1l-24-2Z" fill="#f0973a"/>
  <path d="M127.1,317.8c0,3.2-2.3,4.8-5,6s-1.3.7-2,1c.2-.7-.2-1.8.5-3,1.1-1.9,4.8-2.1,4.5-5,0,0,1.3.5,2,1Z" fill="#f6e6ca"/>
  <path d="M119.1,262.8c0,.6,0,1.4,0,2-.7.3-1.3.7-2,1-1.5-1.6-2.7-4.2-5-5v-3c1.7,1.8,4.7,4.5,7,5Z" fill="#f6e6ca"/>
  <path d="M523.1,229.8c-3.9-.5-9.3.2-13-2,4.2.3,9.2-.4,13,2Z" fill="#0a172d"/>
  <path d="M525.1,230.8l-1-1c.7,0,.9,1,1,1Z" fill="#0a172d"/>
  <path d="M120.1,324.8c-.4,1.2-.8,4.8-1,5s-1.9-.8-2.1,1.5c-.8,9.8,18,22.4,16,30.8s-1.2,1.9-1.9,2.3c-2.3,1.2-13.5-7.8-15.7-9.9s-.1-1.6-.3-1.7c5,0,6.4,6.3,12,5,.8-.7-4-9.3-4.8-10.7-4.2-7.3-10.6-11.3-7.1-20.7.9-2.4,3.9-1.2,5-1.6Z" fill="#f7e8cd"/>
  <path d="M659.8,524c11.8-2.7,13.9,13.6,4.3,15.4s-12.6-13.5-4.3-15.4Z" fill="#fcf8ef"/>
  <path d="M657.9,303.9c10-2.1,11.4,11.6,4.5,13.6-9.2,2.7-13-11.9-4.5-13.6Z" fill="#fcf8ef"/>
  <path d="M728.8,338c7-.2,9,12.2.7,12.7s-8.8-12.5-.7-12.7Z" fill="#fcf8ef"/>
  <path d="M603.1,555.8c.6,3.4-1.8,3.6-4,5-10.5,6.7-26.1,12.1-38,16h-4s1-2,1-2c1.2-.4,2.8-1.6,4-2,3-1,6-1.9,9-3,6.9-2.6,13.4-6.1,20-9s8-3.2,12-5Z" fill="#f6e6ca"/>
  <path d="M281.1,608.8c1.6,0,6,.4,6.8-.2s2.6-8.5,7.2-6.8v15.5c0,1.2,2.5,1.9,4,1s2-3.9,3-5.5v4s1.5,0,1.5,0l6.5-5c1.1,3.2,2.4,5.2,4,8-1.8,2.4-2.9,4.8-6.3,6.2s-6.7-.8-5.7,3.8c-2.5-3.6-5.6-3.1-8.5-6-5.1-5-5.2-13.3-12.5-15Z" fill="#1d2022"/>
  <path d="M303.1,631.8c-.3-.3-.8-.6-1-1,.3.3.7.6,1,1Z" fill="#1d2022"/>
  <path d="M312.1,577.8c.6-.1,1.5.1,2,0,.7.8.6,2.3,1,3l-1,15.5c.2,2.6,1.9,7.4,3.6,9.4,3.9,4.7,26.8,21.8,32.7,25.3,19.6,11.4,29.6,8.2,48.6-1.8,8.6-4.6,24.7-15.2,29.1-23.9,3.2-6.3-.3-9.2,8-11.5.5-.1,1.4.1,2,0,3.4,1.9,8.2,2.2,12,2,2.2,5.1-1,4.2-1,8-8.8-2-18.2,8.2-17,17l-22.6,19.9c-8.9,4.9-14.7,6.5-24.9,6.2-19.8-.7-39.7-4.2-55.4-16.6-4.5-3.6-7.8-8.8-13.1-11.4,2.2-3.9,0-15.4-4-17.6s-2.8.5-4,.6-2.8.2-4.1-.4c-.6-5.6-3.2-4.4-4.7-5.8s-3.3-11.4-6.3-13.2c-9.6-2.4-19.3-4.6-28.9-6.6v-1c15.2,1.1,30.3,5.9,45.6,4,1.3-.2,2.1-1,2.4-1Z" fill="#3b5f7e"/>
  <path d="M434.1,624.8c2.9-1.1,3.4-3.9,5-6-1.5,3.8,9.8,16.2,13.5,8,2.2-4.9-2.6-12.6-7.5-11.6s-5.9,3.3-6,3.6c1.7-2.1,4-5.4,5.4-7s4.3-4.3,6.6-6c8.4,6.1,11.5,11.9,10.1,22.6s-7.9,9.7-13.1,9c-4.1-.5-11.7-4.9-13.5-8.7s-.2-3.1-.5-3.9Z" fill="#1d2022"/>
  <path d="M449.1,603.8c1.3.3,1.5,1.7,2,2-2.2,1.6-4.8,3.9-6.6,6s-3.8,4.9-5.4,7-2.1,4.9-5,6c-.4-1.1-1.8-2.5-2-4-1.2-8.8,8.2-19,17-17Z" fill="#1d2f4f"/>
  <path d="M316.1,618.8c-.2.3-1.7.6-2,1-1.6-2.8-2.9-4.8-4-8s-.5-5.3-1.1-5.9h-2.9c.8-1.4,1.9-2.5,2-4.1,1.2,0,2.5-1.3,4-.6,4.1,2.1,6.2,13.6,4,17.6Z" fill="#1d2f4f"/>
  <path d="M135.1,426.8c1.1.3,2.4,2.1,4,2-.6,8.6,5.5,29.8,9,38h-3c0,1.3-.1,2.7,0,4-5.4-1.9-8.9.9-5,6-1.6,0-3.2-.9-5-.6-3,.5-5.8,3.2-9,3.6-.4-.6-1.9-2.9-2-3,.2-2-.5-4.5.2-6.4s2.7-3.5,2.8-3.6c1.3-1.3,4.4-1.9,6-4.5,6.2-9.9-5-11.6-6-17.1l1-19.5c.3-.3,5.9.7,7,1Z" fill="#ad979d"/>
  <path d="M107.1,454.8c3.7,9.5,6.1,12.7,11,21s4.5,9.5,7.9,13.5c-4.9,4.1-6.6,6.6-10.9.5s-.8-.7-1-1c-4.1-6.1-9-15.3-12-22s-5.9-14.4-6.6-18-1.3-4.4,2.1-5c7.4-1.4,7.2,5.2,9.5,11Z" fill="#fcf8ef"/>
  <path d="M124.1,476.8c.1.1,1.6,2.4,2,3,1.6,2.3,1.3,2.5,2,5s0,5.4,2,8c-16.1,1.7-14.7,29.2,5.4,25.9,3.1-.5,7.9-5.2,8.6-7.9l2,2c-2.2,4.8-1,4.4-1,8s-1.1,3.7,0,6l-23-2c-1.6-1.8-3.8-2-4-2.7-1.1-3.2-1.7-10.6-2-14.3-.5-5.9.3-12.1-1-18,4.4,6.1,6,3.6,10.9-.5-3.4-4-5.4-9.2-7.9-13.5-.4-1,1-1.9,1-2,.9,1.4,4.5,2.5,5,3Z" fill="#f0973a"/>
  <path d="M120.8,450c9.5-2.8,15.8,10.7,7.3,14.3-10.9,4.6-14.9-12-7.3-14.3Z" fill="#f6e6ca"/>
  <path d="M131.1,413.8c3.2,3.1,6.5,6.3,10,9,0,1,0,2,0,3h-2c0,1,0,2,0,3-1.6.1-2.9-1.7-4-2-6.6-7.2-7.6-6.7-16-4l7-11c1.5.8,3.5,1.3,5,2Z" fill="#f4b43f"/>
  <path d="M126.1,377.8c.5.6,1.2.9,2,1,3.4,11.9-4.6,28.2,11,33,.2,1.5.4,2.5,2,3,0,1.3,1.2,3.4,1,5-4.3-2.8-6.6-3.9-11-6-.1,0,0-1.5-1-2.4-1.5-1.6-5.2-2.9-7-4.6,3.9-11.4,2.5-15.6,1.1-26.7s.9-2.1.9-2.3h1Z" fill="#f4b43f"/>
  <path d="M102.1,466.8c3,6.7,7.9,15.9,12,22l-4,2c-2.4-7.2-10.8-13.8-11-21.5s0-2.6,3-2.5Z" fill="#f3dd5e"/>
  <path d="M106.1,431.8c-.5.8-.2,2.9-1.2,3.7-2.4,2.1-12.7,2.7-16.3,5.1-4.3-1.2-8.4-2.9-12.5-4.4s-3.5.2-3-2.5c12.6,2.2,20.6,2.8,33-2Z" fill="#f3dd5e"/>
  <path d="M126.1,411.8l-7,11c-.3,0-.7,0-1,0-3.8.9-1.2,1.3-2,2s-2.8,1.2-4,2-.7.8-1,1-1.7-.2-2,0c.2-1.1-.3-3.1,0-4,1-2.9,10.2-8.2,13-14,2-.3,2.9,1.4,4,2Z" fill="#ee8630"/>
  <path d="M119.1,466.8c-2.1,2,0,4.5,0,7s-1.4,1-1,2c-4.9-8.3-7.3-11.5-11-21,5.3.6,7.8,8.8,12,12Z" fill="#f3dd5e"/>
  <path d="M114.1,488.8c.2.3.7.6,1,1,1.3,5.9.5,12.1,1,18-2.4.6-3.3-4.3-3.7-5.8-1-3.6-1.2-8.1-2.3-11.2l4-2Z" fill="#f4b43f"/>
  <path d="M127.1,466.8c-.2.2-2.8,3.4-2.8,3.6-.6,1.8,0,4.4-.2,6.4-.5-.5-4.1-1.6-5-3,0-2.5-2.1-5,0-7h8Z" fill="#f4b43f"/>
  <path d="M118.1,422.8v2s-2,0-2,0c.8-.7-1.8-1.1,2-2Z" fill="#f4b43f"/>
  <path d="M68.1,431.8c1.2.4,2.5-1,2,2-.6,0-1.3,0-2,0v-2Z" fill="#f3dd5e"/>
  <path d="M111.1,427.8c.3-.2.6-.7,1-1l-1,1Z" fill="#f3dd5e"/>
  <path d="M306.1,605.8h2.9c.6.7.7,4.8,1.1,6l-6.5,5h-1.5s0-4,0-4c1.3-2.3,2.6-4.7,4-7Z" fill="#f0973a"/>
  <path d="M592.1,582.8l4,19c-1.5.7-7.1,3.4-8,4-2.9-5.6-4.3-12.7-4-19,3.5-2,4.2-2.3,8-4Z" fill="#f6e6ca"/>
  <path d="M218.1,540.8c.4,2.7,4.4,3.4,5,4,13.8,14.1,20.5,20.1,41,24s24.9,2.9,37.2,5.3c3.6.7,8.1,1,10.8,3.7-.3,0-1.1.9-2.4,1-15.3,1.9-30.4-2.9-45.6-4l-.7-2-14.6-3.2c-2.9-3-9.1-5-13.6-6.8s-2.1-.2-4-1c.3-3-1.8-2.3-3-3s-2.9-.9-3-1c-2.6-2.4-2-1.6-4-3s-2.2-2-3-3c-2.5-3.2-3-8.3-8-8v-1c2.2-.5,6.1-1.2,8-2Z" fill="#a5583d"/>
  <path d="M432.1,576.8c4.1,0,25.9,2.7,27,2,3.9-.9,1.2,5.2,2,6,3.7,0,7.3,0,11,0v2c-2.8.3-6.3-.4-9,0s-1.2-.3-2,1c-9.7,2.1-20.9-1.2-31-1,0-2.6-1-6.2-1-10,1,0,2,0,3,0Z" fill="#fcf8ef"/>
  <path d="M558.1,574.8l-1,2h4c-32.9,10.9-58.1,11.5-92.5,11-1.7,0-4.4.6-5.5-1,2.7-.4,6.2.3,9,0v-2c13.1.2,26,0,39-1s6-.6,9-1c11.4-1.4,18.2-3,29-6s6.4-1.2,9-2Z" fill="#f7d7a1"/>
  <path d="M461.1,587.8c-.2.3.3,1.3,0,1.9-3.7-.2-7,.5-10.5,1.1s-4-1.1-3.4,2c-3.4.4-5.6.4-9,1s-1.5-.1-2,0c-.1-3.3-3.4-3.4-6-4,0-1,0-2,0-3,10.1-.2,21.3,3.1,31,1Z" fill="#f0973a"/>
  <path d="M156.1,516.8c9.2,7,15.7,11.3,26.3,16.2,4.2,1.9,13.8,4.4,16.7,6.3s-5.9,3.3-6,5.5c-.7.1-1.4.8-2,1s-1.4-.1-2,0-1.5-.2-2,0l-42-25c0-3.6-1.2-3.2,1-8s1.2-3.1,1.5-3c2.3,3.1,5.6,4.8,8.5,7Z" fill="#fcf8ef"/>
  <path d="M228.1,558.8c-.2,2.8,1.4,2.3,3,3s3.3.7,4,1c.7,3.8,6.7,5.9,9.9,6.1.3.6,0,1.3,0,1.9-5.6.9-8.9-3.7-13.2-5.3s-3.8-.3-4.8-.7c-3.2-1.1-2.9-3.9-4-6l2-1c.1.1,2.1.5,3,1Z" fill="#1d2f4f"/>
  <path d="M225.1,557.8l-2,1c-.5-1.1-2.3-2.1-2-4,2,1.4,1.4.6,4,3Z" fill="#1d2022"/>
  <path d="M229.1,571.8l-2-6c1.9,1.6,1.5,4,2,6Z" fill="#1d2f4f"/>
  <path d="M611.1,566.8c-2.2,1-5,2-7,3-3.2-2.5,5.2-5.8,7-3Z" fill="#081223"/>
  <path d="M171.1,521.8c7.9,3.4,17.5,9.2,26,10,.5,3,3.2,4.4,5,7,4.6,6.7-3.3,4.8-9,6,.1-2.2,9.3-3.3,6-5.5s-12.5-4.4-16.7-6.3c-10.6-4.8-17.2-9.2-26.3-16.2,4-2.3,7.5,2.6,10.6,3.9s3.5.7,4.4,1.1Z" fill="#f0973a"/>
  <path d="M212.1,531.8c-2.5,1.5-4.4,4.2-8,6-.7.3-1.3.7-2,1-1.8-2.6-4.5-4-5-7,.3,0,.7,0,1,0,4.6.3,9.4-.2,14,0Z" fill="#eb7222"/>
  <path d="M191.1,545.8l-1.5,1-.5-1c.6-.1,1.4.1,2,0Z" fill="#f4b43f"/>
  <path d="M505.1,306.8l1,166c-1.7.8-1.7,5.3-4.2,6.3s-9,.8-12.3.7c-36.1-1-74.9-5-111.5-7-1.5-1.2-4.7-1.7-6.6-1.9-25.7-2.4-51.9-3.1-77.4-4.1-.3,0-.7,0-1,0-2.1-1.2-6.1-1.8-8.5-2-10.3-.8-22.4-2-32.5-2s-2,0-3,0l-3-1c-3.5-3.6-6.7-2.8-10-10v-16c5.9,1.6,8.1-4.7,8.1-9.5s-1.2-13-1.6-13.5c-2.2-3.5-3.2,3.7-6.5,2v-4c0-4,0-8,0-12,0-18.3.9-37.1,1-55,4,.1.8,5.3,5.2,7.3s9,0,12.8,2.7c-.2.5.2,1.4,0,2h-2c-.1,1.6.1,3.4,0,5s0,2.7,0,4,0,1.4,0,3-.3,4.2,0,6c.6,4.5,1.7,7.6,3.2,11.9h1.8c.3,1.1.6,2.1,1,3.1.7,1.9.2,4.6,3,4,1,1.5,2.1,3.9,3,5,0,4.2-9.4,2.6-5.6,8.1s9.8.4,8.6-4.1c.6.5,5.6,3,8,5,3.8,3.1,5,1.1,3,7l18.2-.8c7.4,4.1,22.1,5.2,25.2,13.8,2.1,5.9,3,8.4,7.5,13.5,5.7,6.5,12.3,7.3,19.7,11.3s6.8,6,11,7c9,2.2,16.9,1,24.6-3.9s15.4-11.5,16.6-13.4c1.8-2.9,2.6-10.3-2.9-9.4,5-7.9,11.4-38.8-1.6-40.9-7.2-1.2-10.3,2.1-16,2.8s-11.8.4-15.9,0c-8.6-.8-23.9-10.9-28.5,0-4.3-1.7-8.3-6.1-13-6,2.1-5.4,4.1-15.3,4-21,6.4-.9,2,8.1,8,8,1.4-5.1,1.8-10.9-.2-15.8l-8.8-2.2c-.3-1.2-.7-2-1-3,9.5,1.6,2.8-13.6-3-7-6.3-10.6-22.1-22.7-35-22,0-4.6,6.7-2.8,7.1-6.5s-6.9-5.8-7.9-9.2-1.3-11.2-1.3-12.8c0-6.8,17.2-5.6,22.5-6.5s3.2-1.5,5.2-1.8c5.7-1,17.7.8,16.4-7.1-3-1.1-8.2,1.3-10.4,1s-.5-1.9-1.3-2.1c-2.4-.6-4.8,1-6.7.7s-6.4-2.2-8.7-2.7c19.5,1.1,39,2.3,58.5,4,44.7,4,89.9,8.7,134.2,14.8,5,2.2,6.9,5.6,9.3,10.2ZM440.9,332c-47,6.4-35.3,88.8,12.6,83.6,46.3-5,38.8-90.6-12.6-83.6Z" fill="#f7e8cd"/>
  <path d="M303.1,277.8c2.2.5,7.1,2.5,8.7,2.7s4.3-1.3,6.7-.7.6,2,1.3,2.1c2.1.3,7.3-2.2,10.4-1,1.3,7.9-10.7,6.1-16.4,7.1s-3.3,1.5-5.2,1.8c-5.3.9-22.5-.3-22.5,6.5s1,11.8,1.3,12.8c1,3.4,8.3,4.6,7.9,9.2s-7.2,1.9-7.1,6.5c-1.3,0-9.9,3-11.7,3.8-10.9,4.7-17.9,14.1-21.3,25.2-3.7-2.8-9.2-1.1-12.8-2.7s-1.3-7.2-5.2-7.3c0-19.9-3.4-42.8-1-62.5s1.9-6.5,3-7.5c2.6-2.4,9-2.1,12.5-2,15.3.6,36.6,2.9,51.5,6Z" fill="#f6e6ca"/>
  <path d="M392.1,486.8l10.5,7c1.3.6,1.1,2.4,1.5,3,4.3.4,8.7.6,13,1,.6,4.1,4.6,7.3,7.5,10s8,3.3,7.5,8c-1.9.1-4.2-1-4,1.5s3,6.3,4,8.5c3.5,7.4,3.8,15.2,7.2,22.3,2,4.1,6.8,3.9,8.8,7.7-1.5.7-4.6,3.5-6,4s-5.3,1.9-6.6,0c.4-4.8-2.8-9.6-3.4-13.6s.4-7.2,0-10.4-5.5-10-7.5-12c-3.4-3.4-16.8-8.8-17.5-10.5s1.3-1.5,2.5-1.5c3.2,0,6.3,1.5,9.2,1.8s2.6,1,2.3-1.3c-.6-1.5-13.2-9.7-15.6-12.5s-1-2.4-1.4-3.1c-20.7-1.7-41.3-2.5-62-4l2.6-3.9,10.4-5.1,25.5,1c3.5.3,8.2,1.7,11.5,2Z" fill="#1d2f4f"/>
  <path d="M505.1,306.8c.2.4,2.7,1.2,2.1,3.4v163.1c0,1.2-1-.5-1.1-.5l-1-166Z" fill="#1d2f4f"/>
  <path d="M378.1,472.8c-14.1-.8-28.3-1.2-42.5-2l-41.5-4c25.5,1.1,51.7,1.8,77.4,4.1,1.9.2,5.1.7,6.6,1.9Z" fill="#1d2f4f"/>
  <path d="M293.1,466.8c-12.5-.5-25-1.4-37.5-2s-4,1-3.5-2c10.1,0,22.2,1.3,32.5,2,2.4.2,6.4.8,8.5,2Z" fill="#1d2f4f"/>
  <path d="M236.1,414.8c0,7,0,14,0,21v16c-.7-1.5-.9-1.4-1.1-3.4-.9-9.4,0-22.3,0-32.1s-.6-4.4,1-5.5v4Z" fill="#1d2f4f"/>
  <path d="M249.1,462.8c-.3,0-1.6,1.7-3,1-.2-.6.1-1.8,0-2l3,1Z" fill="#1d2f4f"/>
  <path d="M642.1,199.8c9.6,3,20.2,14.8,21.8,24.7,1.2,7.7.7,14.2-9,12.1s-17-13.1-15.7-17.2,7.8.4,7.9-3.1c-1.9-2.1-6.5-5.8-7-8.5-.8-4.1,1.5-5.7,2-8Z" fill="#edefef"/>
  <path d="M600.9,187c1.5.9,1.7,4.5,7.2,2.8,0,5.4-.9,10.7-5.7,13.8-6,3.9-6,.6-10.9.3s-10.3.6-15.2-1.3l-1-11.7c3.5-.7,24.2-4.8,25.7-3.9Z" fill="#edefef"/>
  <path d="M645.1,169.8h-4c-.2-1-5.2-4.6-6.4-5.1-8.8-3.2-14.3.7-16.6,9.1s-2.3,2.1,0,4c0,9.3,0,18.6,0,28-1.2,1-1.2,2,0,3,0,.3,0,.7,0,1-.2,1.8-.2,2-2,3-6.1-8.7-3.3-14.6-3-24.5s-.7-11.8,0-17c2.3-16.1,28-17.9,31.9-1.6Z" fill="#dd471d"/>
  <path d="M645.1,169.8c2.2,9.4-.9,20.4-3,30s-2.8,3.9-2,8c-3.6,9.5-10.8,13.8-20.7,9.2s-2.3-2.8-3.3-4.2c1.8-1,1.8-1.2,2-3,3.1,4.4,10.4,6.1,13.8,1.3s8.3-27.8,8.9-32.1.7-7.2.3-9.2h4ZM643.1,176.8v-5h-1v5h1Z" fill="#eb7222"/>
  <path d="M615.8,220c7.6-2.2,18.8.5,20.2,9.3,3.9,23.5-31.4,18.2-26.7-1.8.5-2,4.6-7,6.5-7.5ZM620.9,222.9c-11.1,1.8-7.9,18.7,3.5,17.6s8.7-19.6-3.5-17.6Z" fill="#eb7222"/>
  <path d="M606.1,154.8c.4,2.3-.6,3.1-2,4.5s-17.3,11.5-18.4,11.3l-2.2-1.9c-2.7-5.5,17.6-15.6,22.6-14Z" fill="#edefef"/>
  <path d="M460.1,549.8c3.9-.8,9.3,2.6,13.9,0-.2.9,1,1.7,1.1,2,.7,3.5-.4,8.7,0,12.5s4.3,6.9-.6,10.4c-2.7-.8-4.5-2.2-7.4-2.9-4.6-1.1-8.4-.8-13-1-1.5-5.1-9.1-6.4-12-11,1.4-.5,4.5-3.3,6-4s11.3-5.9,12-6Z" fill="#203257"/>
  <path d="M460.1,549.8c-.7.1-9.9,5-12,6-2-3.8-6.8-3.6-8.8-7.7-3.4-7.1-3.7-14.9-7.2-22.3,7.9,3.6,9.4,2.4,11-6,3.9,3.1,8.2,2.3,11.4,4.1,6.7,3.7,9.6,19.3,5.6,25.9ZM448.8,530.9c-8.7.7-13.6,20.9-.4,17.7s5.7-18.1.4-17.7Z" fill="#1d2022"/>
  <path d="M432.1,515.8c3.1-.2,7.6-.5,10,1.5s.9,2.3,1,2.5c-1.6,8.4-3.1,9.6-11,6-1-2.2-4-6.9-4-8.5-.1-2.6,2.1-1.4,4-1.5Z" fill="#0a1d3a"/>
  <path d="M525.1,298.8l55.5-31c2.1-.1,1.3,0,1.5,1.5,1,6.9,0,18.1,0,25.5,0,11,0,22,0,33-8.4-7.1-15.7-7.1-26-6s-.7-.8-1.3-.7c-27.6,4.9-29.6,55.7-26.5,77,3.3,23.2,18.2,50.9,43.9,30.6l13-8,1,15c-.3,4.6.5,4.2-3.1,7.4-8.6,7.8-30.1,19.4-41,26s-10.3,6.7-15.9,8.6c2.8-42.6-.2-91.5-1-134.5-.3-13,1.9-32.7,0-44.5Z" fill="#1d2f4f"/>
  <path d="M584.1,549.8l3.8,7.7,3.2,3.3c-6.6,2.9-13.1,6.4-20,9l-1-13c5.3-2.9,7.5-4.8,14-7Z" fill="#ee8630"/>
  <path d="M570.1,556.8l1,13c-3,1.1-6,2-9,3,.5-1.6-1.9-3.6-2-4-.4-2,.3-4.9,0-7,3-1.9,7-3.4,10-5Z" fill="#eb7222"/>
  <path d="M560.1,329.8l1,5c-9.3,5.7-14.3,26.3-14,36.5,0,2.6,3.6,9.8,5.2,11.9,4.7,6.1,5.1,3.6,8.9,12.6s4.9,17,12,22.5c-6.9,4.9-15.4,6.1-22,0-16.7-15.2-15.5-81.3,9-88.5Z" fill="#f7d7a1"/>
  <path d="M556.1,321.8c-13.8,10.5-20.8,27.7-22.9,44.6-2,15.9.7,47.2,13.4,58.4,8.1,7.1,15.6,5.1,25.5,4-25.6,20.2-40.5-7.4-43.9-30.6-3.1-21.4-1-72.1,26.5-77s1.2.7,1.3.7Z" fill="#0a1d3a"/>
  <path d="M575.1,336.8c-.7.7-1.3,1.3-2,2-14.2,14.7-14.1,37.6-12,57-3.7-9.1-4.2-6.6-8.9-12.6s-5.1-9.3-5.2-11.9c-.3-10.2,4.8-30.8,14-36.5s7.4-2.2,10-4c2,.6,5.3-.3,7,2.5.3,1.5-2,2.5-3,3.5Z" fill="#fbfafb"/>
  <path d="M571.1,330.8c-2.6,1.8-7.5,2.5-10,4l-1-5c2.9-.9,5.1-1.6,8.5-1s2.3,1.9,2.5,2Z" fill="#f3dd5e"/>
  <path d="M579.1,362.8c1.2,8.1-2.2,19.5,0,30,.3,2.8-2.4,4.1-3,7-4.5-16.7-4-31.8,2-48,.6,2.2-1,4.8-.9,6.6s1.6,2.6,1.9,4.4Z" fill="#f0973a"/>
  <path d="M566.1,243.8c-.9.7-1.8,1.9-2,2-5.6,3.5-12.2,5.8-18,9l-2,1c-.6.4-1.3.6-2,1l-1-4c3.7-2.1,15.1-8.1,17-11s-.3-1.6,0-1.9c1.7-1.3,8.5.3,7.9,3.9Z" fill="#ee8630"/>
  <path d="M546.1,254.8c-.7.4-1.4.6-2,1l2-1Z" fill="#f0973a"/>
  <path d="M463.1,576.8c5,.1,11.1,2.6,16.5,3,9.9.8,20.5-.5,30.5,0,.5,1.3,1.6,2.2,1,4-13,1.1-25.9,1.2-39,1s-7.3,0-11,0c-.8-.8,1.9-6.9-2-6,.5-.3-1.8-2.1,4-2Z" fill="#a5583d"/>
  <path d="M493,568.6l-10.9-1.6c-6.9-28.7,18.6-23.4,10.9,1.6Z" fill="#f7d7a1"/>
  <path d="M454.1,570.8c4.6.2,8.4-.1,13,1,0,1.5,1.2,3.3,2.4,4.1s11.2,1.8,14,2c8.5.5,17.3-.4,25.9,0,1.2.2.4,1.6.6,2-9.9-.6-20.6.8-30.5,0-5.4-.4-11.5-2.9-16.5-3,.5-3.1-5.6-3.4-7.7-3.9s-3.9,1-3.3-2.1c.7,0,1.3,0,2,0Z" fill="#7a5754"/>
  <path d="M549.1,576.8c-10.8,3-17.6,4.6-29,6,3.6-1.4,3.1-1.3,3-5,8.6-1.6,17.3-.9,26-1Z" fill="#a5583d"/>
  <path d="M678.1,386.8c.4,5.4-4.5,30-1,32.5s5.8,1.7,7,1c2.7-1.4,8.1-25.9,9-30.6.8.3,2.9-.2,4,0,4.7,13.6,13.9,33.5,16.5,47,.5,2.3,1.2,4.5-.5,6.6-2.2,3-5.1,2.7-8.5,2.3-12.2-1.2-34.9-7.2-47.6-10.4-6.4-1.6-16.6-2.2-13.5-11.6,9.9-13.5,20.6-26.3,31.6-38.9.8.4,2.3,2,3,2ZM675.8,421.9c-6.1,2.1-.4,13.7,6.3,10.3s2.2-13.3-6.3-10.3Z" fill="#ee8630"/>
  <path d="M697.1,389.8c-1.1-.2-3.2.3-4,0s-2.8-3.4-6.6-3.9-6.6,1-8.4.9-2.2-1.6-3-2c2.3-2.6,3.8-6.4,7.5-9,10.8-7.7,12.5,8.1,14.5,14Z" fill="#f0973a"/>
  <path d="M219.1,514.8c-.7-1.4-.8-2.5-1-3,4.4-.3,10.8-3.6,13.9-6.6s6.6-11.5,8-5.9-15.5,15.8-21,15.5Z" fill="#edefef"/>
  <path d="M226.9,492.5c-2.7,2.7-7.9-.4-6.3-3.7,2.3-4.8,10.3-.3,6.3,3.7Z" fill="#f7d7a1"/>
  <path d="M192.1,410.8l-1.4,2.1-8.6-4.1c-.2-.9-.7-1.8-1-3l11,5Z" fill="#edefef"/>
  <path d="M314.1,537.8c-.2,3.5-.5,6.8-4.7,7.9s-3.9-1.2-5.3-.4-4.2,6.2-4.9,7.4-1.9,1.7-1.1,4.2c-.7,0-1.3,0-2,0l-2,1c-1,0-2,0-3,0-3.5.2-6.4,2.1-9.9,2.1v1.9c-1.7,0-3.4,0-5.1,0,.6-3.2-1.6-1.7-3.5-2-3.3-.4-6.3-.7-9.5-1.6s-3.5.1-3-2.5c3.2,0,9.2-.4,12-1.5s3.3-3,5-3.5.7,1.2,2.6.3c3.2-1.5,11.8-9,10.4-13.3l13.7,5.8,10.3-5.8Z" fill="#203257"/>
  <path d="M304.1,510.8c.3.2,3.6,4.1,4.5,5s2.4.9,2.5,1,0,.6,0,1c1.2,6.6-1.3,4.1-3.5,5.9s-3.3,2.9-5.2,4.4-.3,2.3-1.3,2.7c0-2.4.2-4.7-.5-7s-2.4-6.2-4.1-6c-2.7.4-3.8,4.2-3.5,6.5s4.7,6.4,5,6.6c-3.6,1.4-3.7,6.7-8,6-8.4-4.4-6.9-25.6,2.7-27.8,2.4-.5,9.3.6,11.3,1.8Z" fill="#1d2022"/>
  <path d="M311.1,517.8c4.7,2.9,6.1-6.2,11-5-1.7,5.7-5.4,6.7-7,13s-.7,7.2-1,12l-10.3,5.8-13.7-5.8v-1c4.3.7,4.4-4.6,8-6,.2.1,2.7.1,3,0,1-.4.8-2.2,1.3-2.7,1.9-1.5,3.4-2.9,5.2-4.4s4.7.7,3.5-5.9Z" fill="#1d2f4f"/>
  <path d="M337.1,491.8c.6,3.2-.3,2.4-1.9,3.5-3.3,2.3-7.1,4.2-10.1,7-4.6,4.3-8.3,11-14,14.5,0-.1-1.7-.2-2.5-1s-4.2-4.9-4.5-5c5.5-6.9,14-11.4,17-20,5.3.4,10.7.6,16,1Z" fill="#1d2f4f"/>
  <path d="M168.1,371.8c-.3,4,6,3.7,7,5.8,2.3,5,.5,18,1,24.2l-5,.5c.7,2.6,3.1,4.8,6,4.5,0,.3,0,.7,0,1l1,1c.2,1.2-.1,2.7,0,4s1.2,2.6.8,4.3-4.4,7.9-4.8,8.2c-3.9,2.6-9,.9-13-.5-5.9-1.9-10.6-6.1-14.9-10.5s-2.2-2.4-4.1-2.5c.5-3.4,3-11,3-12.6,0-2.4-2.2-2.6-4-2.4,0-.1-1.1-1.1-1-2.4.2-7,.8-12.2,4-18.6,7.8-1.8,15.9-4.3,24-4Z" fill="#ad979d"/>
  <path d="M170.1,360.8c2.7.8,3.9-2.2,5.7-2.8,5-1.6,10.6,1,10.3,6.8,5.9-1.4,12-1.1,18-1v2c-5.4.1-10.9-.2-16.4.1-2.2.8-1.8,7.7-7.4,8.7s-6-2.2-9.3-2.8c0-.6.1-1.4,0-2-.2-.9-.9-1.8-1-3s0-2.8,0-4,0-1.3,0-2Z" fill="#fcf8ef"/>
  <path d="M131.1,321.8c3.8-.6,7.9,1.9,8.8,5.7,1.7,7.5-3.4,12.2-10.8,10.3s-4.7-15,2-16Z" fill="#fcf8ef"/>
  <path d="M159.1,341.8c-.2,4.6,3.4,9,8,5.5s1.8-3.3,2-3.5c1.2-1,5.5-.7,7-1-1.1,3.7,2.7,3.6,3,4s.5,5.2,1,6c-6.1-1.6-7.4,4.3-13.3,2.8s-10.8-7.6-12.7-9.3-.9-2.3-1-2.4l6-2Z" fill="#f7d7a1"/>
  <path d="M178.1,412.8c2.7-.6,1.9,1.4,2.5,3,1.2,3.4,2,6.8,3.5,10l-.4,5.1c-.9,1.2-3.2.7-3.6.9-5.7.3-11.3-1.8-16.4-4.2s-3.1-.5-2.6-2.8c4,1.3,9.1,3.1,13,.5s4.7-7.7,4.8-8.2c.4-1.6-.7-2.9-.8-4.3Z" fill="#a0725a"/>
  <path d="M143.1,344.8c1.4,1.2,2.8,3,4,4-1.8,3.3,0,7.2-3,10-3.7,0-5.9,1.1-8-2s.2-1.3-2-3c-1.2-6.7,2.7-9.6,9-9Z" fill="#fbfafb"/>
  <path d="M171.1,369.8c.1.6,0,1.4,0,2-.9-.2-2,0-3,0-8.1-.3-16.2,2.2-24,4s-6.8,1.2-10,2-.8.6-1,1c-.6.1-1.3,0-2,0h-1c-.7,0-1.4,0-2,0s-1.5-.4-2-1c11.8-4.1,24.1-6.5,36.5-7.9s6.1-1.1,8.5,0Z" fill="#ee8630"/>
  <path d="M129.1,340.8c1.4.5,3,2,4.5,2s2.8-2.6,5.8-1.8,2.6,2.9,3.7,3.9c-6.3-.6-10.2,2.3-9,9-3.6-2.7-1.5-2.3-3.6-5.9s-7.6-5.7-8.4-10.1c2.5,1.5,4.6,2.1,7,3Z" fill="#f7d7a1"/>
  <path d="M207.1,453.8h-2c.2-1.5-.8-9.5-1.2-11.3-1.3-6.2-8.6-10.8-14.8-10.7v-3c13.1.3,21.2,12.9,18,25Z" fill="#eb7222"/>
  <path d="M147.1,348.8c.2.2,1.4.7,3,2,.8,2.4-2.7,8.4-4.7,8.9-.7.2-1.2-.9-1.3-.9,3-2.8,1.2-6.7,3-10Z" fill="#f7e8cd"/>
  <path d="M170.1,362.8l-14.9-10.6c-4.9-4.9-11.2-8.6-15.1-15,7,3.4,11.9,10.4,17.7,15.5l12.2,8c0,.7,0,1.3,0,2Z" fill="#f7d7a1"/>
  <path d="M176.1,401.8c.1,1.4.8,3.2,1,5-2.9.3-5.3-1.9-6-4.5l5-.5Z" fill="#edefef"/>
  <path d="M204.1,363.8c1.8,0,9.7-.4,10,.5.7,2.3-2.2,1.4-3.5,1.5-2.2,0-4.3,0-6.5,0v-2Z" fill="#f7d7a1"/>
  <path d="M189.1,429.8c-.4-.2-.9-.6-1-1h1v1Z" fill="#ee8630"/>
  <path d="M178.1,408.8l-1-1c0,0,.9.2,1,1Z" fill="#a0725a"/>
  <path d="M170.1,486.8c0-.9-.3-2.1.2-2.8,5.8-3,14.6-7.1,20.4-2.2s1.1,3.7,3.4,3c-.4,8.7,7.8,15.3,8,24-2.4-.8-19.2-5-13,.5s12.9,3.9,18,3.5c3,6.2,7.2,10.9,9,17-.2,0-3.8,1.9-4,2-4.6-.2-9.4.3-14,0,.6-2.7-1.5-1.8-2.9-2.5-10.1-4.6-13.3-7.1-19.5-16.6s-6.6-10.5-7.6-15.9c.3,0,.7,0,1,0,3.5.8,13.6,12.9,16,7.5l-15-10.5c.3-2.1-.1-4.8,0-7Z" fill="#7a5754"/>
  <path d="M144.1,432.8l23.5,15c5.2,3.9,7.4,10.5,12.5,14.5s7,3.3,9.5,5.5,1.6,5.2,4.5,5c0,.6.1,1.4,0,2-.2,1.1-2.1,4.5-1,6v2s2,0,2,0c.1.6-.2,1.5,0,2h-1c-2.4.7-2.1-1.9-3.4-3-5.8-4.9-14.6-.8-20.4,2.2-.5.7-.1,1.9-.2,2.8-1.8-1.2-2.6-2.6-5-3,6.7-11.6-7.1-20.7-7-31.5s1.3-3.7,1.1-4.9-12.6-8.9-15.1-14.6Z" fill="#a0725a"/>
  <path d="M142.1,411.8c1.9,0,2.9,1.3,4.1,2.5,4.3,4.5,9,8.6,14.9,10.5-.5,2.3,1.1,2.2,2.6,2.8,5.1,2.4,10.6,4.5,16.4,4.2-.1,0,.3,1.4-.2,1.8-1.3,1.1-4.6-1.3-3.8,2.2l3.6.9,2.4,5.1c-6.3,8.6-.3,19.9,11,19,0,1.7,0,3.3,0,5-5.3-2.6-11.4-4.5-15-9.5-1.2-1.7-1.3-3.8-2.5-5.5-4.9-6.7-24.3-17.8-32.5-20h-1c-.2-1.6-.8-3.2-1-5s0-2,0-3c10.1,7.7,22.6,14.7,33.9,20.6,5.3,2.8,5.8-.4,2.9-1.9-6.2-3.3-13-6.2-19-9.9s-11.1-8.1-16.7-11.8c.2-1.6-1-3.7-1-5s.8-1.9,1-3Z" fill="#f0973a"/>
  <path d="M194.1,460.8c-.3,0-.7,0-1,0-11.3.9-17.3-10.4-11-19s22.3-.5,19.6,10-4.5,8.2-7.6,9Z" fill="#fbfafb"/>
  <path d="M222.1,527.8c-1.2,1.1-2.4-.2-3.3-1.2-1.8-1.9-4.7-7.2-6.2-9.8-5.6-9.7-11.4-22-13.5-33l23,44Z" fill="#f3dd5e"/>
  <path d="M202.1,508.8c1.1.4,2.2,1.7,4,1,.5,1.1.6,2.2,1,3-5.1.3-14,0-18-3.5-6.2-5.4,10.6-1.3,13-.5Z" fill="#edefef"/>
  <path d="M206.1,509.8c-1.8.7-2.9-.6-4-1-.2-8.7-8.4-15.3-8-24h1c2.3,7.6,7.5,17.6,11,25Z" fill="#a5583d"/>
  <path d="M199.1,480.8h-1c-.9-1.9-2.1-3.4-2.1-5.9h-1.9c.1-.7,0-1.5,0-2.1s1-1.5,1-2c0-1-1.2-3.2-2-4,0-.3,0-.7,0-1,0-1.7,0-3.3,0-5,.3,0,.7,0,1,0,1.3,6.2,4.2,14,5,20Z" fill="#f4b43f"/>
  <path d="M193.1,480.8c.6.8,1.1-1.9,2,2h-2s0-2,0-2Z" fill="#a5583d"/>
  <path d="M199.1,480.8c0,.6.3,2-.5,2-1,0-.2-1.4-.5-2h1Z" fill="#f3dd5e"/>
  <path d="M186.1,333.8c.6.2,2.7,3.5,6,2-.1.1.3,1.4-.2,1.8s-2.8.3-4.9,1.7-4,4.4-4.9,6.6c-1.1,0-2.1.5-3,1-.3-.4-4.1-.3-3-4,4.7-1,4.2-3.9,4-8,1.8.3,4.7-1.5,6-1Z" fill="#f6e6ca"/>
  <path d="M195.1,329.8v5c-1,.1-2.3.4-3,1-3.3,1.5-5.4-1.8-6-2-.5-4.5,1.7-6.8,6.3-5.8s2.1,1.7,2.7,1.8Z" fill="#f7e8cd"/>
  <path d="M194.1,315.8c1.8,4.9-12.6,9-13.9,8.5-4.2-1.6-8.6-10.6-3.6-13.6s4.1-.4,5.6-1.9c3.9,2.3,8,5,12,7Z" fill="#f7e8cd"/>
  <path d="M175.1,300.8c-4,.8-9.3,5.2-13-1.4s1.5-9.2,1-11.6h1c8.9-1.6,14,4.7,11,13Z" fill="#fcf8ef"/>
  <path d="M194.1,306.8c-1.2-.4-1.8-.6-3-1-.8-4.1-5.2-4.7-7.5-8s-2.8-8.7-6-12-9.9-4.1-14.5-6c-.2-.9-1.6-2-2-3,1.2-2.7,3.1,0,4,.5,3.6,1.7,10.4,3.2,12.9,5.1s11,15.6,14.1,19.9,2.5,2.1,2,4.5Z" fill="#f6e6ca"/>
  <path d="M180.1,300.8c.4,1,1.2.8,2,1,.2.3-.1,1.4,0,2h2c-1.2,5.8-1.8.2-2,0s-4.3-.3-5-3c1.3-.2,1.2-.6,3,0Z" fill="#f7d7a1"/>
  <path d="M191.1,305.8c-3.3-1.2-5.4-3-9-4-.4-.5-.3-.7-1-1-1.2-3.9-1.9-9.8-4.6-12.9s-8.9-2.3-13.4-5.1c-.2-.9.2-2.2,0-3,4.6,1.9,10.9,2.4,14.5,6s3.7,8.5,6,12,6.7,4,7.5,8Z" fill="#f7d7a1"/>
  <path d="M181.1,300.8c-.2-.1-.7.1-1,0-1.8-.6-1.7-.2-3,0s-1.4-.1-2,0c3-8.3-2.1-14.6-11-13,0-1-.9-2.2-1-3s.1-1.4,0-2c4.5,2.8,9.8.9,13.4,5.1s3.4,9,4.6,12.9Z" fill="#f4b43f"/>
  <path d="M214.1,318.8c.3,1.8-2.3,1-3.3.8-7.5-1.6-14.2-5.5-20.6-9.4l-5.1-4.3,17.3,9.2,11.7,3.8Z" fill="#f7d7a1"/>
  <path d="M206.1,313.8c.3,0,4.4-2.1,4,2-1.6-.4-2.9-.5-4-2Z" fill="#f7d7a1"/>
  <path d="M342.1,492.8c20.7,1.5,41.3,2.3,62,4,.4.6.3,1.7,1.4,3.1,2.4,2.8,15,11,15.6,12.5.4,2.3-.8,1.4-2.3,1.3-2.9-.3-6-1.8-9.2-1.8s-3.3-.5-2.5,1.5,14.1,7.1,17.5,10.5c2,2,7.2,9.4,7.5,12-4.7.8-4.9-7.2-8.5-9-6.6-4.3-20.6-9-26-14-4-3.6,1.1-1.9.5-5-4.9-2.3-10.2-5.4-15.4-7.1-16.3-5.1-25.2-1.2-40,5.1-2.2.9-6.5,1.1-7.8,1.9s-.9,2.8-2.1,4.1c-4.7,5.1-10.9,12.1-17.6,13.9,1.6-6.3,5.3-7.3,7-13-4.9-1.2-6.3,7.9-11,5,0-.4.1-.9,0-1,5.7-3.5,9.4-10.2,14-14.5s6.8-4.7,10.1-7,2.6-.4,1.9-3.5c1.8.1,3.5.9,5,1Z" fill="#203257"/>
  <path d="M276.1,561.8c1.7,0,3.3,0,5,0,2.7,0,5.3,0,8,0s2.7,0,4,0v1c-1.1,0-2.4,0-3,1-7.7.4-14.9,3.2-23,2-1,0-2,0-3,0l-1.2-.7-.8.7h-2c-.2-.2.4-1.5-.1-1.8s-3.3-.3-4.7-.8c-9.8-3.6-19.1-9.6-26.2-17.3,17.8,9.3,25.6,15.1,47,16Z" fill="#a5583d"/>
  <path d="M227.1,544.8c.4.3.7.9,1,1s.7-.1,1,0c7.1,7.7,16.4,13.7,26.2,17.3,1.4.5,4.2.4,4.7.8s0,1.6.1,1.8c1.3,1.8,2.4,1.8,4,3-20.5-3.9-27.2-9.9-41-24,1.3.1,2.7-.2,4,0Z" fill="#f7d7a1"/>
  <path d="M222.1,538.8c1.4,1.5,3.6,4.9,5,6-1.3-.2-2.7.1-4,0-.6-.6-4.6-1.3-5-4,.2,0,3.3-1.6,4-2Z" fill="#f4b43f"/>
  <path d="M228.1,545.8c-.3-.1-.6-.7-1-1,.2,0,.7.8,1,1Z" fill="#a5583d"/>
  <path d="M224.6,531.8c.6.3.6.7,0,1v-1Z" fill="#ee8630"/>
  <path d="M407.1,228.8c-1,8.5,11.9,10.3,11,1h7c-1,4.9-9.2,8.4-13.5,8.1s-11.5-6-11.5-10.1c2.3.3,4.7.8,7,1Z" fill="#3b5f7e"/>
  <path d="M410.9,116.9c7.4-2,10.4,10,1.7,10.8-7.6.7-6.6-9.5-1.7-10.8Z" fill="#fcf8ef"/>
  <path d="M418.1,229.8c.9,9.3-12,7.5-11-1,3.6.3,7.4-.5,11,1Z" fill="#edefef"/>
  <path d="M122.1,373.8c1.6,2.2,1.3,1.3,2,2s1,1.8,1,2-1.1,1-.9,2.3c1.4,11,2.9,15.3-1.1,26.7s-.7,2.3-1,3c-2.8,5.8-12,11.1-13,14-37.8,22.5-80.5-19.9-53.8-56.3,18.8-25.6,50-16.3,66.8,6.3ZM64.1,411.8c13.5,15.2,35.1,12.5,47-3,10.7-13.9,10.2-29.7-4-41.5-30.3-25.2-70,14.1-43,44.5Z" fill="#fcf8ef"/>
  <path d="M150.1,350.8c4.5,3.7,10.8,7.4,14.5,11s1.9,1.3,1.5,3c-14,.3-27.7,5.8-41,8l-7-12c2.6,1.8,8,6.3,10.3,7.2,8.8,3.4,7.6-2.8,6.4-8.4s-2-3.2,1.3-2.8c2.1,3.1,4.3,2.1,8,2s.7,1,1.3.9c2-.4,5.5-6.5,4.7-8.9Z" fill="#f7d7a1"/>
  <path d="M64.1,352.8l-13,12c.2-.4-.1-1.8.5-2.9,2.3-4,8.3-7.3,12.5-9.1Z" fill="#f7d7a1"/>
  <path d="M42.1,388.8c0,3.7.9,6.9,1,10h-3s0-10,0-10h2Z" fill="#f7d7a1"/>
  <path d="M47.1,412.8c-3.2.6-4.6-2.1-4.8-4.8s.8-2.1.8-2.2c1.9,1.2,3.5,4.8,4,7Z" fill="#f7d7a1"/>
  <path d="M49.1,367.8c-.9,1.7-1,3.8-3,5,.6-1.9-1.1-5.1,3-5Z" fill="#f7d7a1"/>
  <path d="M76.1,348.8c-.3,0-1.1.8-2,1v-2s1.5,0,1.5,0l.5,1Z" fill="#f7d7a1"/>
  <path d="M43.1,401.8c0,.7,0,1.3,0,2l-2-.5v-1.5s2,0,2,0Z" fill="#f7d7a1"/>
  <path d="M44.1,379.8c0,.5-.5.9-1,1l-1-1h2Z" fill="#f7d7a1"/>
  <path d="M120.1,329.8h-1c.2-.2.6-3.8,1-5,.7-.3,1.3-.7,2-1,.6,2.3-1.7,4.4-2,6Z" fill="#f3dd5e"/>
  <path d="M121.1,336.8c-1.6-.6-2.6-1.9-1-3,0,.2.9,2.9,1,3Z" fill="#f3dd5e"/>
  <path d="M134.9,199c23.8-4,42.8,21,27.7,41.7-18.1,24.7-56.3,4.3-46.7-24.7s11.2-15.6,19-17ZM135.1,209.8c-3.2,7.5,1.2,12.7,1,19s-5.7,7.3-2,11c1.5,7.5,14.3,10.3,14-4s-.9-4.5-1-7c-.1-4.9.8-12.1,0-16.5s-1.6-1.9-2-2.5c-3.3-4.6-7.6-5.6-10,0Z" fill="#eb7222"/>
  <path d="M177.1,234.8c-.1.6.1,1.4,0,2h-2s0,2,0,2c-1.2,1.3-4.3,9.6-9,15-2.1.7-4.2,1.7-5-1,4.4-3.3,12.2-13.5,13-19l3,1Z" fill="#f4b43f"/>
  <path d="M178.1,220.8c0,.3,1,1.1,1,2.4.2,5.6-.8,6.9-2,11.6l-3-1c.4-3,.3-9.8,0-13h4Z" fill="#f0973a"/>
  <path d="M169.1,343.8c-.2.1-.3,2.2-2,3.5-4.6,3.5-8.2-.8-8-5.5.5-9,11.6-7.1,10,2Z" fill="#fcfbfd"/>
  <path d="M178.1,218.8h-1.9c0,0-.9-5.4-.9-5.4l.8-.6c1,2.5,1.4,3,2,6Z" fill="#f0973a"/>
  <path d="M177.1,236.8c-.9,3.9-1.3,1.2-2,2v-2s2,0,2,0Z" fill="#f0973a"/>
  <path d="M371.1,512.8l-45.9,26.1c-1.9,20.8-1.4,42.1-.6,62.8,14.4,11.2,30.5,20.6,46.3,29.9l51.7-26.8c.6-16,.8-32.1.5-48,4.9-.4,6.5,5,7,9s0,2.7,0,4c0,2.7-1,5.1-1,7,0,3.8.9,7.4,1,10s0,2,0,3c0,6.9-3.7,14.2-8,19.5-5.7,7.1-36.8,25.3-45.6,26.4s-6.5.4-8.9.1c-9.7-1.2-38.3-23.1-45-31-6.1-7.2-2.7-15.3-7.4-24.1s-.3-2.2-1-3c1.4-.4,2.9-1.7,5-1-.4-2.9,1.5-9.9-2-11,8.4-14.3,1.6-25.2,15.5-37s21.8-13.6,28.2-15.8c4.9-1.7,5.6-1.4,10.3-.2Z" fill="#5babd1"/>
  <path d="M430.1,589.8c2.6.6,5.9.7,6,4-8.3,2.3-4.8,5.2-8,11.5-4.4,8.7-20.5,19.3-29.1,23.9-19,10.1-29,13.3-48.6,1.8-5.9-3.5-28.8-20.5-32.7-25.3s-3.4-6.8-3.6-9.4l1-15.5c4.8,8.7,1.3,16.9,7.4,24.1,6.7,7.8,35.3,29.8,45,31,2.4.3,6.4.2,8.9-.1,8.8-1.1,39.9-19.3,45.6-26.4,4.3-5.3,8-12.6,8-19.5Z" fill="#5b85b9"/>
  <path d="M315.1,565.8c.6.1,1.5-.2,2,0,3.5,1,1.6,8.1,2,11-2.1-.7-3.5.6-5,1s-1.4-.1-2,0c-2.7-2.7-7.2-3-10.8-3.7-12.3-2.4-24.9-3-37.2-5.3-1.6-1.2-2.7-1.2-4-3h2c.7,0,1.3,0,2,0,1,0,2,0,3,0s1.1.9,2.4,1c6.2.6,12.8.2,19,2,1.5-.2,1.2-4.2,1.6-5.1,7.1-.4,17.9.7,25,2Z" fill="#f6e6ca"/>
  <path d="M439.1,618.8c.1-.3,5.2-3.4,6-3.6,4.9-1,9.7,6.7,7.5,11.6-3.7,8.2-14.9-4.2-13.5-8Z" fill="#f4b43f"/>
  <path d="M148.1,466.8c1.8,4.3,2,3.7,3.8,6.6s4.7,8.2,8.2,11.4c-3.6,3.4-2,10.3,2.7,11.8,1.8.6,3.8-.1,5.3.2,1,5.5,4.5,11.3,7.6,15.9,6.2,9.4,9.4,11.9,19.5,16.6s3.5-.2,2.9,2.5c-.3,0-.7,0-1,0-8.5-.8-18.1-6.6-26-10l-15-14.5c-2.4-3.2-5.4-10.9-8.3-13.2s-6-1.8-8.4-3.1c-3.6-2-6.6-6.4-11.3-6.2-.7-2.5-.4-2.7-2-5,3.1-.4,5.9-3.1,9-3.6s3.4.6,5,.6c6.8-.1,5.4-1.4,5-6s0-2.7,0-4h3Z" fill="#a0725a"/>
  <path d="M141.1,425.8c.2,1.8.8,3.4,1,5,2.5,16.9,4.2,28,12.9,42.6s4.9,6.8,7.1,10.4c-.1,0-1.9.9-2,1-3.5-3.2-5.7-7.4-8.2-11.4s-2-2.3-3.8-6.6c-3.5-8.2-9.6-29.4-9-38s0-2,0-3h2Z" fill="#edefef"/>
  <path d="M145.1,470.8c.4,4.6,1.8,5.9-5,6-3.9-5.1-.4-7.9,5-6Z" fill="#f7e8cd"/>
  <path d="M144.1,510.8c-.6,2.7-5.4,7.4-8.6,7.9-20.1,3.2-21.5-24.2-5.4-25.9,10-1.1,16.2,8.8,14,18Z" fill="#fbfafb"/>
  <path d="M128.1,484.8c4.7-.2,7.7,4.2,11.3,6.2s6.4,1.5,8.4,3.1c2.9,2.3,5.8,10,8.3,13.2l15,14.5c-.9-.4-2.7-.4-4.4-1.1-3.1-1.4-6.6-6.2-10.6-3.9-2.9-2.2-6.2-3.9-8.5-7-.3-.1-1.2,2.3-1.5,3l-2-2c2.2-9.2-4-19.1-14-18-2-2.6-1.4-5.8-2-8Z" fill="#ee8630"/>
  <path d="M131.1,413.8c-1.5-.7-3.5-1.2-5-2s-2-2.3-4-2c.3-.7.7-2.1,1-3,1.8,1.7,5.5,3,7,4.6s.9,2.3,1,2.4Z" fill="#f6e6ca"/>
  <path d="M142.1,419.8c5.6,3.7,10.8,8.2,16.7,11.8s12.8,6.6,19,9.9,2.4,4.7-2.9,1.9c-11.3-5.9-23.8-12.9-33.9-20.6s-6.8-5.9-10-9c4.4,2.1,6.7,3.2,11,6Z" fill="#f6e6ca"/>
  <path d="M231.1,561.8c-1.6-.7-3.2-.2-3-3,1.2.7,3.3,0,3,3Z" fill="#1d2022"/>
  <path d="M452.1,570.8c-.6,3.1,1.5,1.7,3.3,2.1s8.2.7,7.7,3.9c-5.8-.1-3.5,1.7-4,2-1.1.7-22.9-2-27-2l.7-.8,6.4-.6.9-4.6c4,.2,8-.2,12,0Z" fill="#a0725a"/>
  <path d="M440.1,570.8l-.9,4.6-6.4.6-.7.8c-1,0-2,0-3,0,0-1.9,1-4.3,1-7,3.4,0,6.6.8,10,1Z" fill="#ad979d"/>
  <path d="M323.1,346.8c.4.6,2.8,6.2,3,7s.7,1.8,1,3c.4,1.9,1,7.8,1,10,0,5.7-1.9,15.6-4,21-3.6,9.4-11.4,16.9-20.6,20.4s-.4,1.4-1.1,1.6c-2.4.6-16,.5-18.8.1s-4.2-4.1-7.4-3.1c-2.4-2-7.4-4.5-8-5s-2.2-3-3-4-2-3.5-3-5-1.7-2.9-3-4c-.4-1-.7-2-1-3-1.4-3.9-3.4-7.7-3-12h-2c-.3-1.8,0-4.1,0-6v-3c0-1.3-.1-2.7,0-4,1.6-1.3,1.5-3.3,2-5s-.2-1.5,0-2c3.5-11.1,10.4-20.5,21.3-25.2s10.3-3.7,11.7-3.8c12.9-.7,28.7,11.4,35,22ZM276.9,339c-19.5,2.8-10.9,35.4,8.1,26.2,13-6.3,6.6-28.3-8.1-26.2ZM310.9,387.5c6.6-6.6-2.5-20.6-12.3-14.8-10.4,6.1,2.7,24.4,12.3,14.8Z" fill="#0a172d"/>
  <path d="M440.9,332c51.5-7,58.9,78.6,12.6,83.6-47.9,5.2-59.6-77.3-12.6-83.6ZM429.8,346c-10.5,2.4-13.4,19.2-2.4,25,24.3,12.9,26.2-30.5,2.4-25ZM458.9,377c-9,2-9.5,16.6,1,18.6,13.6,2.6,13.7-21.9-1-18.6Z" fill="#0a172d"/>
  <path d="M399.1,431.8c-4.8,7.6-14.4,10.3-22.2,13.1-.9.3-.8,1.7-1.5,1.9-1.2.3-9.2-.6-10.6-1s-.8-1.6-1.5-1.9c-8.4-2.9-10.6-3.9-16.7-11.2-7.3-8.7-14.2-28-9.6-38.9s20-.8,28.5,0c4.1.4,11.9.5,15.9,0,5.8-.8,8.8-4,16-2.8,12.9,2.1,6.5,33.1,1.6,40.9ZM394.9,415c-.7-.8-6.2-2.8-7.5-3-5.1-.9-8.1.2-11.3,4.3s-2,5.2-4,6.5c-.3-3.7-.2-6.9,2-10-9.1-.5-17.5,8-19.8,16.3,6.4,11.3,22.3,11.9,32.3,4.7s13.1-13.7,8.2-18.7Z" fill="#081223"/>
  <path d="M337.1,393.8c-4.6,10.9,2.3,30.2,9.6,38.9,6.1,7.3,8.3,8.2,16.7,11.2s.6,1.6,1.5,1.9c1.4.4,9.3,1.3,10.6,1s.6-1.6,1.5-1.9c7.8-2.8,17.4-5.5,22.2-13.1,5.5-.9,4.7,6.5,2.9,9.4s-14,11.8-16.6,13.4c-7.7,5-15.6,6.1-24.6,3.9s-7.5-5.1-11-7c-7.4-4-14-4.8-19.7-11.3-4.5-5.1-5.4-7.6-7.5-13.5-3.1-8.6-17.8-9.7-25.2-13.8l-18.2.8c2-5.9.8-3.9-3-7,3.2-1.1,6.2,2.9,7.4,3.1,2.9.4,16.5.5,18.8-.1s.7-1.5,1.1-1.6c9.2-3.5,17-10.9,20.6-20.4,4.7,0,8.7,4.3,13,6Z" fill="#f6e6ca"/>
  <path d="M236.1,414.8c3.3,1.6,4.3-5.5,6.5-2s1.6,11.8,1.6,13.5c0,4.8-2.1,11.1-8.1,9.5,0-7,0-14,0-21Z" fill="#f6e6ca"/>
  <path d="M327.1,356.8l8.8,2.2c2,4.9,1.5,10.8.2,15.8-6,0-1.6-8.9-8-8,0-2.2-.6-8.1-1-10Z" fill="#f6e6ca"/>
  <path d="M268.1,401.8c1.2,4.5-6.8,6.6-8.6,4.1-3.9-5.5,5.6-3.8,5.6-8.1.8,1,2.8,3.8,3,4Z" fill="#f6e6ca"/>
  <path d="M326.1,353.8c-.2-.8-2.6-6.4-3-7,5.8-6.6,12.5,8.6,3,7Z" fill="#f6e6ca"/>
  <path d="M253.1,373.8h2c-.4,4.3,1.7,8.1,3,12h-1.8c-1.4-4.4-2.5-7.5-3.2-12Z" fill="#f6e6ca"/>
  <path d="M255.1,355.8c-.5,1.7-.4,3.7-2,5,.1-1.6-.1-3.4,0-5h2Z" fill="#f6e6ca"/>
  <path d="M262.1,392.8c-2.8.6-2.3-2.1-3-4,1.3,1.1,2.1,2.6,3,4Z" fill="#f6e6ca"/>
  <path d="M253.1,367.8c0-1.6,0-1.6,0-3v3Z" fill="#f6e6ca"/>
  <path d="M618.1,173.8c2.3-8.4,7.8-12.3,16.6-9.1s6.2,4,6.4,5.1c.5,2.1,0,6.9-.3,9.2-.6,4.3-7.1,29.6-8.9,32.1-3.4,4.8-10.7,3.1-13.8-1.3,0-.3,0-.7,0-1,0-1,0-2,0-3,0-9.4,0-18.7,0-28s0-2.7,0-4Z" fill="#fcfbfd"/>
  <path d="M618.1,177.8c-2.3-1.9-.3-3,0-4,0,1.3,0,2.7,0,4Z" fill="#eb7222"/>
  <path d="M618.1,208.8c-1.2-1-1.2-2,0-3,0,1,0,2,0,3Z" fill="#eb7222"/>
  <rect x="642.1" y="171.8" width="1" height="5" fill="#dd471d"/>
  <path d="M620.9,222.9c12.2-2,15.1,16.5,3.5,17.6s-14.6-15.8-3.5-17.6Z" fill="#fcf8ef"/>
  <path d="M315.1,525.8c6.7-1.9,12.9-8.9,17.6-13.9s1.1-3.5,2.1-4.1,5.7-1,7.8-1.9c14.8-6.3,23.7-10.2,40-5.1,5.2,1.6,10.5,4.8,15.4,7.1.6,3.1-4.5,1.4-.5,5,5.5,5,19.4,9.7,26,14,3.6,1.9,3.8,9.8,8.5,9,.4,3.2-.4,7.1,0,10.4s3.8,8.8,3.4,13.6c1.2,1.8,4.9.6,6.6,0,2.9,4.6,10.5,5.9,12,11-.7,0-1.3,0-2,0-4-.2-8,.2-12,0s-6.6-1-10-1c0-1.3.2-2.8,0-4v-13.5c-1.8-18.9-19.3-25.8-33.9-33.1s-9.9-6.7-19.1-8.4c-.6-.1-1.4,0-2,0-8.3-1.2-10.9-1.8-19.3,1.2-13.7,4.9-34.4,19-40.2,32.8-2,4.8-2,12.7-2.6,17.9-.6-.5-8.5-5.4-9-5.6-1.8-.6-4.2-.6-6-.4-.8-2.5.4-2.8,1.1-4.2s4.4-7.1,4.9-7.4c1.3-.8,3.3.9,5.3.4,4.2-1.1,4.5-4.4,4.7-7.9s-.3-7.2,1-12Z" fill="#3b5f7e"/>
  <path d="M448.8,530.9c5.3-.5,10.6,14.9-.4,17.7s-8.3-16.9.4-17.7Z" fill="#ee8630"/>
  <path d="M693.1,389.8c-.9,4.7-6.3,29.2-9,30.6s-6-.3-7-1c-3.4-2.6,1.5-27.2,1-32.5,1.8,0,4.8-1.5,8.4-.9s5.4,3.5,6.6,3.9Z" fill="#fcf8ef"/>
  <path d="M675.8,421.9c8.5-2.9,11.8,7.6,6.3,10.3s-12.4-8.2-6.3-10.3Z" fill="#fcf8ef"/>
  <path d="M298.1,556.8c1.9-.2,4.2-.1,6,.4s8.3,5.1,9,5.6.3,2.7,2,3c-7.1-1.3-17.9-2.4-25-2,.6-1.1,1.9-1,3-1v-1c-1.3,0-2.7,0-4,0l2-4c1,0,2,0,3,0s.8,1.6,1.9.9v-1.9c.8,0,1.5,0,2.1,0Z" fill="#a0725a"/>
  <path d="M291.1,557.8l-2,4c-2.7,0-5.3,0-8,0v-1.9c3.6,0,6.5-1.9,10-2.1Z" fill="#7a5754"/>
  <path d="M296.1,556.8v1.9c-1.2.7-1.9-.9-2-.9l2-1Z" fill="#7a5754"/>
  <path d="M298.1,530.8c-.4-.2-4.9-5.5-5-6.6-.3-2.3.8-6.1,3.5-6.5s3.8,4.9,4.1,6c.6,2.4.6,4.6.5,7-.3.1-2.8.1-3,0Z" fill="#ee8630"/>
  <path d="M144.1,375.8c-3.2,6.4-3.9,11.6-4,18.6s1,2.3,1,2.4c-.2,4.8-2.6,10.1-2,15-15.6-4.8-7.6-21.1-11-33,.6,0,1.3,0,2,0s.7,0,1,0c.7,0,1.4.1,2,0s.9-.5,1-1c3.2-.8,6.7-1.3,10-2Z" fill="#f7d7a1"/>
  <path d="M142.1,411.8c-.2,1.1-1,2.5-1,3-1.6-.5-1.8-1.5-2-3-.6-4.9,1.8-10.2,2-15,1.8-.2,3.9,0,4,2.4s-2.5,9.2-3,12.6Z" fill="#edefef"/>
  <path d="M170.1,366.8c.1,1.2.8,2.1,1,3-2.4-1.1-5.9-.2-8.5,0-12.4,1.4-24.7,3.9-36.5,7.9h-1c0-.2-.8-1.8-1-2,15.1-4.1,30.4-7.7,46-9Z" fill="#f7d7a1"/>
  <path d="M133.1,378.8c.2-.4.6-.9,1-1-.1.5-.5.9-1,1Z" fill="#f4b43f"/>
  <path d="M131.1,378.8c-.3,0-.7,0-1,0h1Z" fill="#f4b43f"/>
  <path d="M165.1,483.8c2.4.4,3.2,1.8,5,3-.1,2.2.3,4.9,0,7s-1.5,1.8-1,3c-.3,0-.7,0-1,0-1.4-.3-3.4.4-5.3-.2-4.7-1.5-6.3-8.4-2.7-11.8s1.9-1,2-1c.6-.1,2.3-.1,3,0Z" fill="#f7d7a1"/>
  <path d="M170.1,493.8l15,10.5c-2.4,5.4-12.5-6.7-16-7.5-.5-1.2.9-2.6,1-3Z" fill="#edefef"/>
  <path d="M144.1,432.8c2.5,5.7,14.9,13.6,15.1,14.6s-1.1,3.3-1.1,4.9c0,10.8,13.8,19.9,7,31.5-.7-.1-2.4-.1-3,0-2.1-3.6-4.9-6.9-7.1-10.4-8.8-14.6-10.5-25.6-12.9-42.6h1c.3.7.7,1.3,1,2Z" fill="#ad979d"/>
  <path d="M193.1,465.8c0,.3,0,.7,0,1,0,1.3,0,2.7,0,4h2c0,.5-.9,1.4-1,2-2.9.1-2-2.9-4.5-5s-6.5-3.1-9.5-5.5c-5.1-4-7.3-10.6-12.5-14.5l-23.5-15c-.3-.7-.7-1.3-1-2,8.1,2.2,27.6,13.3,32.5,20s1.3,3.8,2.5,5.5c3.6,5,9.7,6.9,15,9.5Z" fill="#ee8630"/>
  <path d="M195.1,470.8h-2c0-1.3,0-2.7,0-4,.8.8,2,3,2,4Z" fill="#f0973a"/>
  <path d="M290.1,563.8c-.5.9-.2,4.8-1.6,5.1-6.2-1.8-12.7-1.4-19-2-1.3-.1-2.2-1-2.4-1,8.1,1.2,15.3-1.6,23-2Z" fill="#f0973a"/>
  <path d="M264.1,565.8c-.7,0-1.3,0-2,0l.8-.7,1.2.7Z" fill="#f7d7a1"/>
  <path d="M111.1,408.8c-2.1-5.4-3.8-3.8-7-5s-4.9-7.6-5.5-10c-1.2-4.4-.7-13.3-2-16s-10.7-7.3-11.9-7.1-.8,2-1.6,2.5c-1.3.8-3,.6-4.5,1.5-5.7,3.7-2.7,12.2-3.7,18.3s-3,7.4-4.8,10.7-1.5,6.9-6,8c-27-30.4,12.7-69.7,43-44.5,14.2,11.8,14.7,27.6,4,41.5Z" fill="#eb7222"/>
  <path d="M72.1,404.8c1.5.8,3.3,1.2,4.5,2,5,3.2,13,13.4,14.5,1-.7-.7-10.5,3.1-9-3,4.5,0,9,0,13.5,0s3.5,1.2,4.9,1,1-3.3,3.6-2c3.2,1.2,4.9-.4,7,5-11.9,15.5-33.5,18.2-47,3,4.5-1.1,4.3-4.6,6-8,.9-.1,1.4.7,2,1Z" fill="#dd471d"/>
  <path d="M145.1,209.8c1,6.7-1.8,12.5-2,19-1,0-2,0-3,0-3.8-5.8-3.3-12.7-5-19,2.4-5.6,6.7-4.6,10,0Z" fill="#faf8fb"/>
  <path d="M148.1,235.8c.3,14.3-12.5,11.5-14,4s0-.7,0-1c3.9,5.7,12.6,5,12-3h2Z" fill="#7a5754"/>
  <path d="M147.1,228.8c-1.3,0-2.7,0-4,0,.2-6.5,3-12.3,2-19,.4.6,1.6.3,2,2.5.8,4.4-.1,11.6,0,16.5Z" fill="#1d2022"/>
  <path d="M140.1,228.8c-.6,0-2.3,1.4-4,0,.2-6.3-4.2-11.5-1-19,1.7,6.3,1.2,13.2,5,19Z" fill="#7a5754"/>
  <path d="M140.1,228.8c1,0,2,0,3,0s2.7,0,4,0c0,2.5.9,4.7,1,7h-2c-.1-1.3-.9-3.9-2-4.5l-7.4-.5c-1.2.3-2.7,6.5-2.7,8s0,.7,0,1c-3.7-3.7,1.9-7.5,2-11,1.7,1.4,3.4,0,4,0Z" fill="#a5583d"/>
  <path d="M374.1,513.8c15.5,7.1,30.5,19.5,46,27,4.8,2.8,2.9,10.8,3,16,.3,16,.1,32.1-.5,48l-51.7,26.8c-15.8-9.2-31.9-18.6-46.3-29.9-.7-20.8-1.3-42.1.6-62.8l45.9-26.1c1.1.3,2,.5,3,1ZM370.1,524.8c-12.4,5.2-24.2,12.2-36.4,18.1l-1.6,2.9.2,51.3c5.8,7.5,15.1,10.2,22.8,14.7s8.4,5.5,13,8,2.2,2.9,4.1,2.6c2.3-1.4,4.8-2.4,7.2-3.6,5.6-3,10.7-6.4,16.7-10,6.8.5,12.9-5.6,18.8-8.2l.2-1.8.5-51-39.8-24.2-3.2-.8c-1.9.2-2.3,2-2.5,2Z" fill="#fbfafb"/>
  <path d="M375.1,510.8l-1,3c-1-.5-1.9-.7-3-1-4.7-1.2-5.4-1.5-10.3.2-6.4,2.2-23.1,11.4-28.2,15.8-13.9,11.9-7.1,22.8-15.5,37-.5-.2-1.4.1-2,0-1.7-.3-1.9-2.9-2-3,.6-5.3.6-13.1,2.6-17.9,5.7-13.8,26.4-27.9,40.2-32.8,8.3-3,11-2.4,19.3-1.2Z" fill="#5b85b9"/>
  <path d="M430.1,565.8c-.5-4-2.1-9.4-7-9-.1-5.2,1.8-13.2-3-16,1.6-2,.7-2.4-.4-4-4.8-6.6-31.2-19.4-39.8-23.3s-3.3-.1-2.7-2.7c9.2,1.7,11.6,4.6,19.1,8.4,14.5,7.3,32.1,14.2,33.9,33.1v13.5Z" fill="#5b85b9"/>
  <path d="M276.9,339c14.8-2.1,21.1,19.9,8.1,26.2-19,9.2-27.6-23.3-8.1-26.2Z" fill="#faf8fb"/>
  <path d="M310.9,387.5c-9.6,9.6-22.7-8.7-12.3-14.8,9.8-5.8,18.8,8.2,12.3,14.8Z" fill="#faf8fb"/>
  <path d="M429.8,346c23.8-5.5,21.9,37.9-2.4,25s-8.1-22.5,2.4-25Z" fill="#faf8fb"/>
  <path d="M458.9,377c14.7-3.2,14.6,21.2,1,18.6-10.5-2-10-16.6-1-18.6Z" fill="#faf8fb"/>
  <path d="M394.9,415c4.8,5.1-4,15.7-8.2,18.7-10,7.3-25.9,6.6-32.3-4.7,2.3-8.3,10.7-16.8,19.8-16.3-2.2,3.1-2.3,6.3-2,10,2-1.3,2.3-4.4,4-6.5,3.2-4,6.1-5.1,11.3-4.3,1.3.2,6.8,2.3,7.5,3Z" fill="#eb7222"/>
  <path d="M377.1,510.8c-.5,2.6,1.2,2,2.7,2.7,8.6,3.9,35,16.7,39.8,23.3s2,2,.4,4c-15.5-7.5-30.5-19.9-46-27l1-3c.6,0,1.4-.1,2,0Z" fill="#5babd1"/>
  <path d="M70.1,403.8c1.7-3.4,4.2-6.9,4.8-10.7,1-6.1-2-14.6,3.7-18.3s3.2-.8,4.5-1.5.8-2.4,1.6-2.5c1.2-.2,11.2,5.6,11.9,7.1,1.2,2.8.8,11.6,2,16s3.4,9.2,5.5,10c-2.6-1.2-3.2,2-3.6,2-1.4.1-3.2-1-4.9-1-4.5,0-9,0-13.5,0s-6.7,0-10,0c-.6-.3-1.1-1.1-2-1Z" fill="#fbfafb"/>
  <path d="M82.1,404.8c-1.5,6.1,8.3,2.3,9,3-1.5,12.4-9.5,2.2-14.5-1s-3-1.2-4.5-2c3.3,0,6.7,0,10,0Z" fill="#a5583d"/>
  <path d="M146.1,235.8c.6,8-8.1,8.7-12,3,0-1.6,1.5-7.7,2.7-8l7.4.5c1.1.7,1.9,3.2,2,4.5Z" fill="#faf8fb"/>
  <path d="M375.1,529.8c-1.3-5.3,4.3-1.9,6.4-.9,10.5,5.2,20.4,14.5,31.5,19l1.2,50.8c-6.7,1.9-12.4,6.7-18,10s-11.1,7-16.7,10-4.9,2.2-7.2,3.6c-1.8.3-2.9-1.9-4.1-2.6,1.7-.3,1.9-2.9,2-3,6.4-4.5,20.9-9.2,28.9-13.6,2.6-1.5,10.7-5.6,11.1-7.9l-.5-45.5c-.9-1.8-30.5-18.2-34.5-20Z" fill="#dd471d"/>
  <path d="M334.1,545.8c1.8,12-3,35.7,1.3,46.2s17,14.4,20.7,16.8l-1,3c-7.7-4.5-17-7.2-22.8-14.7l-.2-51.3c.7,0,1.3,0,2,0Z" fill="#f4b43f"/>
  <path d="M415.1,598.8h-1l-1.2-50.8c-11.1-4.6-21-13.9-31.5-19-2-1-7.7-4.4-6.4.9-1.6-.7-3.1-2-5-2v-3c.2,0,.6-1.9,2.5-2l3.2.8,39.8,24.2-.5,51Z" fill="#7a5754"/>
  <path d="M370.1,524.8v3c-.3.8-.9,1.4-1.7,1.7-7.8,3.2-28.2,16.1-34.3,16.3-.7,0-1.3,0-2,0l1.6-2.9c12.2-6,24-12.9,36.4-18.1Z" fill="#ee8630"/>
  <path d="M370.1,616.8c-.1.1-.3,2.7-2,3-4.6-2.5-8.7-5.5-13-8l1-3c4.2,2.6,10.2,3.7,14,8Z" fill="#ee8630"/>
  <path d="M415.1,598.8l-.2,1.8c-5.9,2.6-12,8.6-18.8,8.2,5.6-3.3,11.3-8.1,18-10h1Z" fill="#203257"/>
  <path d="M375.1,529.8c4,1.7,33.6,18.2,34.5,20l.5,45.5c-.4,2.3-8.5,6.4-11.1,7.9-8,4.5-22.5,9.1-28.9,13.6-3.8-4.3-9.8-5.4-14-8s-19.5-13.6-20.7-16.8c-4.2-10.5.6-34.2-1.3-46.2,6.1-.2,26.5-13,34.3-16.3.8-.3,1.4-.9,1.7-1.7,1.9,0,3.4,1.3,5,2ZM402.9,592.6c-.7-11.6,1.7-26.1.3-37.4-.2-1.2,0-2-1-3s-8.7-4-11.3-5.7-18.6-13-20-12.7l-30.2,16.9-1,40c1.9,4.5,26.4,15.2,31.8,18.8l31.5-17Z" fill="#fcf8ef"/>
  <path d="M402.9,592.6l-31.5,17c-5.4-3.6-29.9-14.3-31.8-18.8l1-40,30.2-16.9c1.4-.2,17.3,11,20,12.7s9.8,4.4,11.3,5.7.9,1.7,1,3c1.4,11.3-1,25.7-.3,37.4ZM367.9,545c-2.7.5-18.2,9.6-19.2,11.8.1,7.2-2.4,24.6.6,30.4s19.8,13.6,22.2,13.4l23.2-12.8,1.6-25.5c-.2-3.5-2-5.4-4.7-7.4s-17.8-9.6-19.1-9.9-2.8-.4-4.5,0Z" fill="#f3dd5e"/>
  <path d="M367.9,545c1.7-.3,2.8-.4,4.5,0s17.5,8.8,19.1,9.9c2.7,1.9,4.5,3.9,4.7,7.4l-1.6,25.5-23.2,12.8c-2.4.2-20.8-10.7-22.2-13.4-3-5.8-.5-23.2-.6-30.4,1-2.2,16.5-11.3,19.2-11.8Z" fill="#fbfafb"/>
</svg>