<svg width="646" height="660" xmlns="http://www.w3.org/2000/svg" xmlns:xlink="http://www.w3.org/1999/xlink" xml:space="preserve" overflow="hidden"><defs><clipPath id="clip0"><rect x="911" y="1543" width="646" height="660"/></clipPath></defs><g clip-path="url(#clip0)" transform="translate(-911 -1543)"><path d="M911 1859C911 1684.48 1055.61 1543 1234 1543 1412.39 1543 1557 1684.48 1557 1859 1557 2033.52 1412.39 2175 1234 2175 1055.61 2175 911 2033.52 911 1859Z" fill-rule="evenodd"/><path d="M0 214.5C-2.78816e-14 96.0349 98.0497-2.73087e-14 219-5.46174e-14 339.951-1.09235e-13 438 96.0349 438 214.5 438 332.965 339.951 429 219 429 98.0497 429-1.39408e-13 332.965 0 214.5Z" fill="#FFFFFF" fill-rule="evenodd" transform="matrix(-1 0 0 1 1456 1645)"/><path d="M0 68.4382C22.7383 65.3893 53.1424 18.7013 62.4428 0 74.1181 17.9136 95.9618 57.6176 124.885 68.4382L0 68.4382Z" fill="#FFFFFF" fill-rule="evenodd" transform="matrix(0.799818 -0.600243 -0.600243 -0.799818 1351.75 2114.55)"/><path d="M0 0C7.11767 3.58176 22.7281 40.5291 35.933 59.1745 49.1379 77.82 56.1072 78.8507 63.3235 95.9747 70.5395 121.047 61.6549 156.473 54.4879 184 53.7027 169.869 58.3658 135.964 49.4808 117.171 40.5958 98.3792 26.6551 86.799 17.0828 65.9457 1.08053 23.9444 2.74881 20.8044 0 0Z" fill="#E8E8E8" fill-rule="evenodd" transform="matrix(-1 0 0 1 1454 1883)"/><path d="M1035.67 1944.01C1107.16 2012.03 1141.06 2021.11 1201.05 2032.49 1261.04 2043.87 1285.07 2019.53 1317.81 2026.44 1350.56 2033.35 1396.45 2067.6 1397.5 2073.98 1387.11 2074.63 1347.38 2052.9 1323.27 2057.38 1299.16 2061.85 1285.35 2075.17 1236.91 2074.3 1110.55 2068.85 1048.9 1990.84 1035.67 1944.01Z" fill="#E8E8E8" fill-rule="evenodd"/><path d="M1130.29 2158.56C1080.76 2148.96 1013.08 2217.2 988.363 2199.42 963.649 2181.64 1009 2105.24 982.009 2051.87L1130.29 2158.56Z" fill-rule="evenodd"/><path d="M1105 1765.95C1105 1755.49 1113.49 1747 1123.96 1747L1356.05 1747C1366.51 1747 1375 1755.49 1375 1765.95L1375 1781.04C1375 1791.51 1366.51 1800 1356.05 1800L1123.96 1800C1113.49 1800 1105 1791.51 1105 1781.04Z" fill="#E4612F" fill-rule="evenodd"/><path d="M1105 1935.96C1105 1925.49 1113.49 1917 1123.96 1917L1295.05 1917C1305.51 1917 1314 1925.49 1314 1935.96L1314 1951.05C1314 1961.51 1305.51 1970 1295.05 1970L1123.96 1970C1113.49 1970 1105 1961.51 1105 1951.05Z" fill="#E4612F" fill-rule="evenodd"/><path d="M1105 1848.96C1105 1838.49 1113.49 1830 1123.96 1830L1356.05 1830C1366.51 1830 1375 1838.49 1375 1848.96L1375 1864.05C1375 1874.51 1366.51 1883 1356.05 1883L1123.96 1883C1113.49 1883 1105 1874.51 1105 1864.05Z" fill="#E4612F" fill-rule="evenodd"/></g></svg>